<svg width="44" height="37" viewBox="0 0 44 37" fill="none" xmlns="http://www.w3.org/2000/svg">
<g filter="url(#filter0_d_68_2225)">
<rect width="38" height="32.2424" rx="14.3939" transform="matrix(-1 0 0 1 41 0)" fill="#EEA812"/>
<rect x="-0.575758" y="0.575758" width="36.8485" height="31.0909" rx="13.8182" transform="matrix(-1 0 0 1 39.8485 0)" stroke="#7B3F23" stroke-width="1.15152"/>
</g>
<path d="M10.8658 15.009C10.1539 15.5884 10.159 16.6772 10.8762 17.2501L21.198 25.4936C22.1431 26.2484 23.5412 25.5718 23.5356 24.3623L23.4589 7.77987C23.4533 6.57038 22.0489 5.90667 21.1109 6.67018L10.8658 15.009Z" fill="white" stroke="#7B3F23" stroke-width="0.575758"/>
<mask id="path-4-inside-1_68_2225" fill="white">
<path d="M32.3636 9.21216H23.1515V22.4546H32.3636V9.21216Z"/>
</mask>
<path d="M32.3636 9.21216H23.1515V22.4546H32.3636V9.21216Z" fill="white"/>
<path d="M32.3636 9.21216V8.6364H32.9394V9.21216H32.3636ZM32.3636 22.4546H32.9394V23.0303H32.3636V22.4546ZM32.3636 9.78792H23.1515V8.6364H32.3636V9.78792ZM23.1515 21.8788H32.3636V23.0303H23.1515V21.8788ZM31.7879 22.4546V9.21216H32.9394V22.4546H31.7879Z" fill="#7B3F23" mask="url(#path-4-inside-1_68_2225)"/>
<defs>
<filter id="filter0_d_68_2225" x="0.69697" y="0" width="42.6061" height="36.8485" filterUnits="userSpaceOnUse" color-interpolation-filters="sRGB">
<feFlood flood-opacity="0" result="BackgroundImageFix"/>
<feColorMatrix in="SourceAlpha" type="matrix" values="0 0 0 0 0 0 0 0 0 0 0 0 0 0 0 0 0 0 127 0" result="hardAlpha"/>
<feOffset dy="2.30303"/>
<feGaussianBlur stdDeviation="1.15152"/>
<feComposite in2="hardAlpha" operator="out"/>
<feColorMatrix type="matrix" values="0 0 0 0 0 0 0 0 0 0 0 0 0 0 0 0 0 0 0.25 0"/>
<feBlend mode="normal" in2="BackgroundImageFix" result="effect1_dropShadow_68_2225"/>
<feBlend mode="normal" in="SourceGraphic" in2="effect1_dropShadow_68_2225" result="shape"/>
</filter>
</defs>
</svg>
