<svg width="69" height="84" viewBox="0 0 69 84" fill="none" xmlns="http://www.w3.org/2000/svg">
<path d="M9.50629 10.5324L56.6102 8.25324C57.9813 8.1869 59.1466 9.24463 59.2129 10.6157L62.2705 73.8078C62.3369 75.1789 61.2791 76.3442 59.908 76.4105L12.8041 78.6897L9.50629 10.5324Z" fill="url(#paint0_linear_89_2598)"/>
<path d="M8.21686 10.3566L53.924 8.45646C55.2955 8.39944 56.4536 9.46507 56.5106 10.8366L59.0967 73.0437C59.1537 74.4152 58.0881 75.5733 56.7166 75.6303L11.0095 77.5304L8.21686 10.3566Z" fill="#CCCCCC"/>
<path d="M7.86127 10.3227L53.5684 8.42252C54.9399 8.36551 56.098 9.43113 56.155 10.8027L58.7411 73.0097C58.7981 74.3813 57.7325 75.5393 56.361 75.5963L10.6539 77.4965L7.86127 10.3227Z" fill="#D7D7D7"/>
<path d="M7.20044 10.2119L52.9076 8.31175C54.2791 8.25473 55.4372 9.32035 55.4942 10.6919L58.0803 72.8989C58.1373 74.2705 57.0717 75.4285 55.7001 75.4856L9.99304 77.3857L7.20044 10.2119Z" fill="#EDEDED"/>
<path d="M6.68909 10.1245L52.3962 8.22434C53.7677 8.16732 54.9258 9.23295 54.9828 10.6045L57.5689 72.8115C57.626 74.1831 56.5603 75.3411 55.1888 75.3982L9.48169 77.2983L6.68909 10.1245Z" fill="#F5F5F5"/>
<path d="M6.18652 9.97241L51.8936 8.07224C53.2652 8.01522 54.4232 9.08085 54.4803 10.4524L57.0664 72.6594C57.1234 74.031 56.0578 75.189 54.6862 75.2461L8.97912 77.1462L6.18652 9.97241Z" fill="white"/>
<g clip-path="url(#clip0_89_2598)">
<path d="M6.24512 9.33276L53.2421 4.69681C54.6082 4.56205 55.7392 5.56537 55.7683 6.93779L57.1195 70.7188C57.1486 72.0912 56.0647 73.313 54.6986 73.4478L7.70161 78.0837L6.24512 9.33276Z" fill="#615580"/>
<rect width="49.7107" height="68.7664" transform="matrix(0.99517 -0.0981671 0.0211803 0.999776 6.24512 9.33276)" fill="url(#paint1_linear_89_2598)"/>
<rect width="49.7107" height="68.7664" transform="matrix(0.99517 -0.0981671 0.0211803 0.999776 6.24512 9.33276)" fill="url(#paint2_linear_89_2598)" fill-opacity="0.5"/>
</g>
<path d="M46.4414 42.5352C45.8555 42.582 45.375 42.6641 45 42.7813C44.6484 42.875 44.3672 43.0391 44.1562 43.2734C43.9687 43.4844 43.8398 43.7891 43.7695 44.1875C43.6992 44.5625 43.6641 45.043 43.6641 45.6289L43.6641 53.75C43.2656 54.1016 42.6797 54.4531 41.9062 54.8047C41.1328 55.1328 40.2656 55.4375 39.3047 55.7188C38.3672 55.9766 37.3945 56.1758 36.3867 56.3164C35.4023 56.4805 34.4766 56.5625 33.6094 56.5625C31.3828 56.5625 29.3203 56.1992 27.4219 55.4727C25.5469 54.7461 23.9414 53.6797 22.6055 52.2734C21.4805 51.0781 20.6484 49.7188 20.1094 48.1953C19.5703 46.6719 19.3008 44.9375 19.3008 42.9922C19.3008 40.9297 19.6406 39.043 20.3203 37.332C21 35.5977 21.9375 34.1094 23.1328 32.8672C24.3516 31.625 25.793 30.6523 27.457 29.9492C29.1445 29.2461 30.9961 28.8945 33.0117 28.8945C34.8398 28.8945 36.668 29.1992 38.4961 29.8086C39.2695 30.0898 39.8672 30.2305 40.2891 30.2305C40.7109 30.2305 41.0859 30.1016 41.4141 29.8438C41.7422 29.5859 41.9648 29.2695 42.082 28.8945L42.9258 28.8945L43.2773 37.3672L42.3633 37.3672C42.1055 36.7578 41.8711 36.2305 41.6602 35.7852C41.4492 35.3164 41.2266 34.9063 40.9922 34.5547C40.7812 34.1797 40.5586 33.8516 40.3242 33.5703C40.0898 33.2656 39.8203 32.9727 39.5156 32.6914C37.9219 31.2148 35.9883 30.4766 33.7148 30.4766C32.2617 30.4766 30.9141 30.7578 29.6719 31.3203C28.4531 31.8828 27.4102 32.6914 26.543 33.7461C25.7227 34.7539 25.0664 36.0898 24.5742 37.7539C24.082 39.3945 23.8359 41.1172 23.8359 42.9219C23.8359 44.7969 24.082 46.4844 24.5742 47.9844C25.0664 49.4609 25.7695 50.7148 26.6836 51.7461C27.5977 52.7773 28.6992 53.5742 29.9883 54.1367C31.3008 54.6992 32.7773 54.9805 34.418 54.9805C35.1445 54.9805 35.8242 54.9219 36.457 54.8047C37.1133 54.6641 37.6875 54.4883 38.1797 54.2773C38.6719 54.0664 39.0586 53.8203 39.3398 53.5391C39.6211 53.2344 39.7617 52.918 39.7617 52.5898L39.7617 46.0859C39.7617 45.3594 39.7266 44.7734 39.6562 44.3281C39.5859 43.8828 39.4219 43.543 39.1641 43.3086C38.9297 43.0508 38.5781 42.875 38.1094 42.7813C37.6406 42.6641 37.0078 42.582 36.2109 42.5352L36.2109 41.7969L46.4414 41.7969L46.4414 42.5352Z" fill="white"/>
<path d="M46.4414 42.5352L46.9199 48.516L52.4414 48.0743L52.4414 42.5352L46.4414 42.5352ZM45 42.7813L46.546 48.5787L46.6686 48.546L46.7896 48.5081L45 42.7813ZM44.1562 43.2734L39.6965 39.2596L39.6841 39.2734L39.6718 39.2873L44.1562 43.2734ZM43.7695 44.1875L49.6668 45.2932L49.6727 45.2618L49.6782 45.2302L43.7695 44.1875ZM43.6641 53.75L47.6338 58.249L49.6641 56.4576L49.6641 53.75L43.6641 53.75ZM41.9062 54.8047L44.2495 60.3282L44.3197 60.2984L44.3891 60.2669L41.9062 54.8047ZM39.3047 55.7188L40.8956 61.504L40.943 61.491L40.9901 61.4772L39.3047 55.7188ZM36.3867 56.3164L35.5575 50.374L35.4788 50.385L35.4003 50.398L36.3867 56.3164ZM27.4219 55.4727L25.2539 61.0673L25.2656 61.0718L25.2773 61.0763L27.4219 55.4727ZM22.6055 52.2734L18.2363 56.3856L18.2458 56.3958L18.2555 56.4059L22.6055 52.2734ZM20.3203 37.332L25.8964 39.5472L25.9016 39.5342L25.9067 39.5213L20.3203 37.332ZM23.1328 32.8672L18.85 28.6651L18.8296 28.6859L18.8094 28.7069L23.1328 32.8672ZM27.457 29.9492L25.1493 24.4108L25.1355 24.4165L25.1217 24.4223L27.457 29.9492ZM38.4961 29.8086L40.5466 24.1698L40.4704 24.1421L40.3935 24.1165L38.4961 29.8086ZM42.082 28.8945L42.082 22.8945L37.6709 22.8945L36.3552 27.1049L42.082 28.8945ZM42.9258 28.8945L48.9206 28.6458L48.682 22.8945L42.9258 22.8945L42.9258 28.8945ZM43.2773 37.3672L43.2773 43.3672L49.5315 43.3672L49.2722 37.1184L43.2773 37.3672ZM42.3633 37.3672L36.8375 39.705L38.3869 43.3672L42.3633 43.3672L42.3633 37.3672ZM41.6602 35.7852L36.1886 38.2473L36.2127 38.3007L36.2377 38.3537L41.6602 35.7852ZM40.9922 34.5547L35.7627 37.4963L35.874 37.6941L35.9999 37.8829L40.9922 34.5547ZM40.3242 33.5703L35.5685 37.2286L35.6399 37.3214L35.7149 37.4114L40.3242 33.5703ZM39.5156 32.6914L35.4379 37.0928L35.4459 37.1002L39.5156 32.6914ZM29.6719 31.3203L27.1968 25.8546L27.1771 25.8635L27.1575 25.8726L29.6719 31.3203ZM26.543 33.7461L21.9084 29.9355L21.899 29.9469L21.8896 29.9585L26.543 33.7461ZM24.5742 37.7539L30.3212 39.478L30.3245 39.4668L30.3278 39.4557L24.5742 37.7539ZM24.5742 47.9844L18.8733 49.855L18.8777 49.8684L18.8821 49.8817L24.5742 47.9844ZM29.9883 54.1367L27.5886 59.636L27.6067 59.6438L27.6248 59.6516L29.9883 54.1367ZM36.457 54.8047L37.5496 60.7044L37.6321 60.6891L37.7142 60.6715L36.457 54.8047ZM39.3398 53.5391L43.5825 57.7817L43.6673 57.6969L43.7487 57.6087L39.3398 53.5391ZM39.1641 43.3086L34.7244 47.3446L34.9166 47.556L35.128 47.7482L39.1641 43.3086ZM38.1094 42.7813L36.6542 48.6021L36.7927 48.6367L36.9327 48.6647L38.1094 42.7813ZM36.2109 42.5352L30.2109 42.5352L30.2109 48.1926L35.8586 48.5248L36.2109 42.5352ZM36.2109 41.7969L36.2109 35.7969L30.2109 35.7969L30.2109 41.7969L36.2109 41.7969ZM46.4414 41.7969L52.4414 41.7969L52.4414 35.7969L46.4414 35.7969L46.4414 41.7969ZM45.9629 36.5543C45.1282 36.621 44.1656 36.7559 43.2103 37.0544L46.7896 48.5081C46.7266 48.5278 46.6827 48.5387 46.6619 48.5436C46.6407 48.5485 46.6364 48.5488 46.6514 48.5463C46.6842 48.5406 46.7701 48.528 46.9199 48.516L45.9629 36.5543ZM43.454 36.9838C42.1561 37.33 40.7995 38.034 39.6965 39.2596L48.616 47.2872C47.9348 48.0441 47.1408 48.42 46.546 48.5787L43.454 36.9838ZM39.6718 39.2873C38.4926 40.6139 38.0449 42.1016 37.8608 43.1448L49.6782 45.2302C49.6348 45.4765 49.4449 46.3549 48.6407 47.2596L39.6718 39.2873ZM37.8723 43.0818C37.7076 43.96 37.6641 44.8464 37.6641 45.6289L49.6641 45.6289C49.6641 45.4521 49.6695 45.3344 49.6744 45.267C49.6797 45.1956 49.6821 45.2115 49.6668 45.2932L37.8723 43.0818ZM37.6641 45.6289L37.6641 53.75L49.6641 53.75L49.6641 45.6289L37.6641 45.6289ZM39.6943 49.251C39.7681 49.1858 39.8208 49.1468 39.8426 49.1313C39.8649 49.1154 39.8656 49.1163 39.8388 49.1324C39.7812 49.167 39.6504 49.2393 39.4234 49.3425L44.3891 60.2669C45.4208 59.7979 46.6056 59.1562 47.6338 58.249L39.6943 49.251ZM39.5629 49.2812C39.0401 49.503 38.3975 49.7326 37.6193 49.9603L40.9901 61.4772C42.1337 61.1424 43.2256 60.7626 44.2495 60.3282L39.5629 49.2812ZM37.7137 49.9335C37.0378 50.1194 36.3202 50.2676 35.5575 50.374L37.2159 62.2588C38.4689 62.084 39.6966 61.8337 40.8956 61.504L37.7137 49.9335ZM35.4003 50.398C34.6944 50.5157 34.1011 50.5625 33.6094 50.5625L33.6094 62.5625C34.852 62.5625 36.1103 62.4452 37.3731 62.2348L35.4003 50.398ZM33.6094 50.5625C32.0459 50.5625 30.7178 50.3097 29.5665 49.869L25.2773 61.0763C27.9228 62.0888 30.7197 62.5625 33.6094 62.5625L33.6094 50.5625ZM29.5898 49.878C28.51 49.4596 27.6583 48.8808 26.9555 48.1409L18.2555 56.4059C20.2245 58.4786 22.5837 60.0326 25.2539 61.0673L29.5898 49.878ZM26.9747 48.1612C26.4113 47.5627 26.0224 46.9194 25.7657 46.1938L14.453 50.1968C15.2744 52.5181 16.5496 54.5936 18.2363 56.3856L26.9747 48.1612ZM25.7657 46.1938C25.4951 45.4291 25.3008 44.3905 25.3008 42.9922L13.3008 42.9922C13.3008 45.4845 13.6455 47.9147 14.453 50.1968L25.7657 46.1938ZM25.3008 42.9922C25.3008 41.5973 25.5285 40.4733 25.8964 39.5472L14.7442 35.1169C13.7527 37.6126 13.3008 40.2621 13.3008 42.9922L25.3008 42.9922ZM25.9067 39.5213C26.3222 38.4608 26.85 37.6575 27.4562 37.0275L18.8094 28.7069C17.025 30.5612 15.6778 32.7345 14.734 35.1428L25.9067 39.5213ZM27.4157 37.0692C28.058 36.4146 28.8302 35.8826 29.7923 35.4761L25.1217 24.4223C22.7557 25.4221 20.6452 26.8354 18.85 28.6651L27.4157 37.0692ZM29.7647 35.4877C30.6493 35.1191 31.7067 34.8945 33.0117 34.8945L33.0117 22.8945C30.2855 22.8945 27.6397 23.3731 25.1493 24.4108L29.7647 35.4877ZM33.0117 34.8945C34.1608 34.8945 35.3491 35.0842 36.5987 35.5007L40.3935 24.1165C37.9868 23.3143 35.5189 22.8945 33.0117 22.8945L33.0117 34.8945ZM36.4456 35.4474C37.374 35.7849 38.7816 36.2305 40.2891 36.2305L40.2891 24.2305C40.5096 24.2305 40.672 24.2483 40.7595 24.2604C40.8062 24.2668 40.841 24.2729 40.863 24.2771C40.885 24.2813 40.8972 24.2842 40.8986 24.2845C40.9001 24.2848 40.871 24.278 40.8077 24.2585C40.7452 24.2392 40.6588 24.2107 40.5466 24.1698L36.4456 35.4474ZM40.2891 36.2305C42.0393 36.2305 43.7232 35.6599 45.121 34.5617L37.7071 25.1258C38.0431 24.8619 38.4562 24.6247 38.9362 24.4597C39.4155 24.2949 39.8789 24.2305 40.2891 24.2305L40.2891 36.2305ZM45.121 34.5617C46.3404 33.6035 47.3069 32.2907 47.8089 30.6842L36.3552 27.1049C36.6228 26.2484 37.1439 25.5684 37.7071 25.1258L45.121 34.5617ZM42.082 34.8945L42.9258 34.8945L42.9258 22.8945L42.082 22.8945L42.082 34.8945ZM36.9309 29.1433L37.2825 37.6159L49.2722 37.1184L48.9206 28.6458L36.9309 29.1433ZM43.2773 31.3672L42.3633 31.3672L42.3633 43.3672L43.2773 43.3672L43.2773 31.3672ZM47.8891 35.0293C47.6088 34.3667 47.3394 33.7588 47.0826 33.2166L36.2377 38.3537C36.4028 38.7022 36.6022 39.1489 36.8375 39.705L47.8891 35.0293ZM47.1317 33.323C46.8131 32.6149 46.4364 31.9044 45.9845 31.2265L35.9999 37.8829C36.0167 37.9081 36.0854 38.0179 36.1886 38.2473L47.1317 33.323ZM46.2216 31.6131C45.862 30.9737 45.4379 30.3344 44.9335 29.7292L35.7149 37.4114C35.696 37.3887 35.6925 37.3821 35.7021 37.3964C35.7118 37.4106 35.7326 37.4427 35.7627 37.4963L46.2216 31.6131ZM45.08 29.912C44.6231 29.3181 44.1202 28.7763 43.5853 28.2826L35.4459 37.1002C35.5205 37.169 35.5566 37.2131 35.5685 37.2286L45.08 29.912ZM43.5934 28.29C40.835 25.7345 37.4232 24.4766 33.7148 24.4766L33.7148 36.4766C34.5534 36.4766 35.0088 36.6952 35.4379 37.0928L43.5934 28.29ZM33.7148 24.4766C31.4651 24.4766 29.267 24.9172 27.1968 25.8546L32.1469 36.786C32.5612 36.5985 33.0583 36.4766 33.7148 36.4766L33.7148 24.4766ZM27.1575 25.8726C25.1032 26.8207 23.3397 28.1947 21.9084 29.9355L31.1775 37.5567C31.4806 37.1881 31.8031 36.9449 32.1862 36.7681L27.1575 25.8726ZM21.8896 29.9585C20.4306 31.7509 19.4666 33.8681 18.8206 36.0521L30.3278 39.4557C30.6662 38.3115 31.0147 37.7569 31.1963 37.5337L21.8896 29.9585ZM18.8273 36.0298C18.1585 38.259 17.8359 40.5646 17.8359 42.9219L29.8359 42.9219C29.8359 41.6698 30.0056 40.53 30.3212 39.478L18.8273 36.0298ZM17.8359 42.9219C17.8359 45.3164 18.1498 47.6502 18.8733 49.855L30.2752 46.1138C30.0142 45.3186 29.8359 44.2773 29.8359 42.9219L17.8359 42.9219ZM18.8821 49.8817C19.5973 52.0272 20.6771 54.0151 22.1935 55.7259L31.1737 47.7662C30.862 47.4146 30.5355 46.8947 30.2663 46.087L18.8821 49.8817ZM22.1935 55.7259C23.6979 57.4232 25.5176 58.7323 27.5886 59.636L32.3879 48.6375C31.8808 48.4162 31.4974 48.1315 31.1737 47.7662L22.1935 55.7259ZM27.6248 59.6516C29.7872 60.5783 32.085 60.9805 34.418 60.9805L34.418 48.9805C33.4697 48.9805 32.8144 48.8201 32.3518 48.6218L27.6248 59.6516ZM34.418 60.9805C35.465 60.9805 36.5138 60.8962 37.5496 60.7044L35.3645 48.905C35.1346 48.9476 34.8241 48.9805 34.418 48.9805L34.418 60.9805ZM37.7142 60.6715C38.659 60.469 39.6183 60.1886 40.5432 59.7922L35.8162 48.7625C35.7567 48.788 35.5675 48.8591 35.1999 48.9379L37.7142 60.6715ZM40.5432 59.7922C41.5085 59.3785 42.6099 58.7543 43.5825 57.7817L35.0972 49.2964C35.3088 49.0848 35.4963 48.9498 35.6176 48.8726C35.7384 48.7957 35.8128 48.7639 35.8162 48.7625L40.5432 59.7922ZM43.7487 57.6087C44.7725 56.4996 45.7617 54.7944 45.7617 52.5898L33.7617 52.5898C33.7617 51.0416 34.4697 49.9691 34.931 49.4694L43.7487 57.6087ZM45.7617 52.5898L45.7617 46.0859L33.7617 46.0859L33.7617 52.5898L45.7617 52.5898ZM45.7617 46.0859C45.7617 45.2107 45.7223 44.2758 45.5828 43.3923L33.7297 45.2639C33.7273 45.2486 33.7369 45.3069 33.7461 45.4609C33.7551 45.6101 33.7617 45.8157 33.7617 46.0859L45.7617 46.0859ZM45.5828 43.3923C45.3629 41.9992 44.7329 40.2624 43.2001 38.869L35.128 47.7482C34.1108 46.8235 33.809 45.7664 33.7297 45.2639L45.5828 43.3923ZM43.6037 39.2726C42.238 37.7703 40.5531 37.1512 39.2861 36.8978L36.9327 48.6647C36.6031 48.5988 35.6214 48.3313 34.7244 47.3446L43.6037 39.2726ZM39.5646 36.9604C38.5773 36.7136 37.5255 36.6021 36.5633 36.5455L35.8586 48.5248C36.15 48.5419 36.364 48.5629 36.5119 48.5821C36.6662 48.6021 36.7031 48.6144 36.6542 48.6021L39.5646 36.9604ZM42.2109 42.5352L42.2109 41.7969L30.2109 41.7969L30.2109 42.5352L42.2109 42.5352ZM36.2109 47.7969L46.4414 47.7969L46.4414 35.7969L36.2109 35.7969L36.2109 47.7969ZM40.4414 41.7969L40.4414 42.5352L52.4414 42.5352L52.4414 41.7969L40.4414 41.7969Z" fill="#668749"/>
<defs>
<linearGradient id="paint0_linear_89_2598" x1="34.2995" y1="9.33276" x2="37.5974" y2="77.4901" gradientUnits="userSpaceOnUse">
<stop stop-color="#6C6C6C"/>
<stop offset="0.984375" stop-color="#161616"/>
</linearGradient>
<linearGradient id="paint1_linear_89_2598" x1="-2.65124" y1="37.4901" x2="4.51538" y2="37.4901" gradientUnits="userSpaceOnUse">
<stop stop-opacity="0.28"/>
<stop offset="0.387075" stop-color="#2B2A2A" stop-opacity="0.3"/>
<stop offset="0.59375" stop-color="#484848" stop-opacity="0.15"/>
<stop offset="0.662299" stop-color="#BFBFBF" stop-opacity="0.35"/>
<stop offset="0.797245" stop-color="#707070" stop-opacity="0"/>
<stop offset="1" stop-color="#A6A6A6" stop-opacity="0"/>
</linearGradient>
<linearGradient id="paint2_linear_89_2598" x1="49.7107" y1="68.7664" x2="-2.14945" y2="2.48513" gradientUnits="userSpaceOnUse">
<stop stop-opacity="0.2"/>
<stop offset="0.338542" stop-opacity="0"/>
<stop offset="0.630208" stop-color="white" stop-opacity="0"/>
<stop offset="1" stop-color="white" stop-opacity="0.3"/>
</linearGradient>
<clipPath id="clip0_89_2598">
<path d="M6.24512 9.33276L53.2421 4.69681C54.6082 4.56205 55.7392 5.56537 55.7683 6.93779L57.1195 70.7188C57.1486 72.0912 56.0647 73.313 54.6986 73.4478L7.70161 78.0837L6.24512 9.33276Z" fill="white"/>
</clipPath>
</defs>
</svg>
