<svg width="139" height="44" viewBox="0 0 139 44" fill="none" xmlns="http://www.w3.org/2000/svg">
<g filter="url(#filter0_dd_16_3595)">
<path d="M3.64611 3.90743C3.80778 1.70464 5.64211 0 7.85083 0H133.161C135.628 0 137.569 2.11024 137.362 4.5694L134.77 35.386C134.587 37.5609 132.774 39.2366 130.592 39.2486L5.76015 39.9345C3.19406 39.9486 1.1606 37.7725 1.34844 35.2132L3.64611 3.90743Z" fill="#F3BC00"/>
<path d="M7.85083 0.366612H133.161C135.414 0.366612 137.185 2.29336 136.996 4.53868L134.404 35.3553C134.237 37.3411 132.582 38.8711 130.59 38.882L5.75813 39.5679C3.40589 39.5808 1.54188 37.586 1.71406 35.24L4.01174 3.93427C4.15935 1.92302 5.83417 0.366612 7.85083 0.366612Z" stroke="black" stroke-width="0.733223"/>
</g>
<mask id="mask0_16_3595" style="mask-type:alpha" maskUnits="userSpaceOnUse" x="1" y="0" width="137" height="40">
<path d="M3.64611 3.90743C3.80778 1.70464 5.64211 0 7.85083 0H133.161C135.628 0 137.569 2.11024 137.362 4.5694L134.77 35.386C134.587 37.5609 132.774 39.2366 130.592 39.2486L5.76015 39.9345C3.19406 39.9486 1.1606 37.7725 1.34844 35.2132L3.64611 3.90743Z" fill="#F3BC00"/>
</mask>
<g mask="url(#mask0_16_3595)">
<rect x="130.78" y="-0.0490723" width="3.66612" height="9.66704" transform="rotate(-43.362 130.78 -0.0490723)" fill="#FEFB9F"/>
<g style="mix-blend-mode:overlay" opacity="0.7">
<rect x="1.73322" width="137.479" height="4.76595" fill="white"/>
</g>
<g style="mix-blend-mode:overlay" opacity="0.7">
<rect x="0.266785" y="35.1947" width="137.479" height="4.76595" fill="black"/>
</g>
<g filter="url(#filter1_dd_16_3595)">
<path d="M7.85083 0.366612H133.161C135.414 0.366612 137.185 2.29336 136.996 4.53868L134.404 35.3553C134.237 37.3411 132.582 38.8711 130.59 38.882L5.75813 39.5679C3.40589 39.5808 1.54188 37.586 1.71406 35.24L4.01174 3.93427C4.15935 1.92302 5.83417 0.366612 7.85083 0.366612Z" stroke="black" stroke-width="0.733223" shape-rendering="crispEdges"/>
</g>
</g>
<g filter="url(#filter2_d_16_3595)">
<path d="M41.6893 25.3065V14.1869C41.6893 13.9366 42.2911 13.8115 43.4949 13.8115C44.7105 13.8115 45.3183 13.9366 45.3183 14.1869V22.9467H48.0714C48.2859 22.9467 48.4349 23.2267 48.5183 23.7869C48.5541 24.061 48.572 24.3411 48.572 24.6271C48.572 24.9132 48.5541 25.2052 48.5183 25.5031C48.423 26.0752 48.2681 26.3612 48.0535 26.3612H42.5474C42.2852 26.3612 42.0766 26.2539 41.9217 26.0394C41.7667 25.8249 41.6893 25.5806 41.6893 25.3065ZM55.6794 25.8785C54.9285 26.3195 53.9632 26.54 52.7833 26.54C51.6034 26.54 50.6082 26.1407 49.7978 25.3422C48.9874 24.5318 48.5822 23.4174 48.5822 21.9992C48.5822 20.569 48.9695 19.4189 49.7442 18.5489C50.5308 17.6789 51.52 17.2439 52.7118 17.2439C53.9036 17.2439 54.8213 17.5478 55.4649 18.1556C56.1204 18.7634 56.4481 19.5023 56.4481 20.3724C56.4481 22.3031 55.3397 23.2685 53.123 23.2685H51.8894C51.8894 23.626 51.9848 23.8763 52.1755 24.0193C52.3781 24.1504 52.6701 24.2159 53.0514 24.2159C53.8857 24.2159 54.6783 24.0253 55.4291 23.6439C55.441 23.632 55.4947 23.7154 55.59 23.8942C55.876 24.4066 56.0191 24.8416 56.0191 25.1992C56.0191 25.5448 55.9058 25.7713 55.6794 25.8785ZM53.4447 20.712C53.4447 20.2115 53.2004 19.9612 52.7118 19.9612C52.4853 19.9612 52.2887 20.0327 52.1218 20.1757C51.9669 20.3068 51.8894 20.5035 51.8894 20.7657V21.3199H52.8548C53.2481 21.3199 53.4447 21.1172 53.4447 20.712ZM61.102 26.2539C61.102 26.397 60.6015 26.4685 59.6003 26.4685C58.4085 26.4208 57.8126 26.3433 57.8126 26.2361V19.9076H56.9009C56.6625 19.9076 56.5434 19.4964 56.5434 18.674C56.5434 18.4595 56.5612 18.1973 56.597 17.8874C56.6447 17.5776 56.734 17.4226 56.8651 17.4226H57.8126V15.8495C57.8126 15.6111 58.3132 15.4919 59.3143 15.4919C60.3273 15.4919 60.8339 15.5873 60.8339 15.7779V16.9221L60.8517 17.4226H62.3713C62.5739 17.4226 62.6752 17.8398 62.6752 18.674C62.6752 19.5083 62.5739 19.9254 62.3713 19.9254H61.102V26.2539ZM64.8949 18.4238C64.7281 18.4714 64.5612 18.4953 64.3944 18.4953C64.2275 18.4953 64.0606 18.4714 63.8938 18.4238C63.5601 18.3284 63.3932 18.1735 63.3932 17.959V14.1869C63.3932 13.9724 63.6495 13.8174 64.1619 13.7221C64.4122 13.6744 64.6685 13.6506 64.9307 13.6506C65.1929 13.6506 65.4551 13.6744 65.7173 13.7221C66.2297 13.8174 66.486 13.9724 66.486 14.1869L65.4133 17.959C65.4133 18.1735 65.2405 18.3284 64.8949 18.4238ZM68.3175 23.1433C69.2829 23.7273 70.0457 24.0193 70.6058 24.0193C70.9634 24.0193 71.1421 23.8942 71.1421 23.6439C71.1421 23.4651 70.8323 23.2327 70.2125 22.9467C68.7228 22.3389 67.9779 21.3437 67.9779 19.9612C67.9779 19.0793 68.2997 18.4059 68.9432 17.9411C69.5868 17.4763 70.3555 17.2439 71.2494 17.2439C72.1552 17.2439 72.9179 17.3392 73.5377 17.5299C74.1693 17.7206 74.4852 17.9709 74.4852 18.2807C74.4852 18.5429 74.3541 18.8886 74.0919 19.3176C73.8416 19.7467 73.6688 19.9791 73.5734 20.0148C73.0609 19.7288 72.5068 19.5858 71.9108 19.5858C71.5891 19.5858 71.4282 19.699 71.4282 19.9254C71.4282 20.0685 71.4878 20.1936 71.6069 20.3009C71.738 20.3962 71.9704 20.5213 72.3041 20.6763C72.6379 20.8193 72.912 20.9504 73.1265 21.0696C73.3529 21.1888 73.6032 21.3556 73.8773 21.5701C74.4494 22.023 74.7354 22.613 74.7354 23.34C74.7354 24.2934 74.4196 25.0681 73.7879 25.664C73.1563 26.248 72.2028 26.54 70.9276 26.54C70.0814 26.54 69.3127 26.397 68.6215 26.1109C67.9302 25.8249 67.5846 25.4316 67.5846 24.931C67.5846 24.5973 67.662 24.2457 67.817 23.8763C67.9838 23.5068 68.1507 23.2625 68.3175 23.1433ZM84.8123 22.6249L84.848 20.1936C84.848 20.0267 85.0208 19.9195 85.3665 19.8718C85.7121 19.8122 85.9981 19.7824 86.2246 19.7824L86.9218 19.8361C87.3747 19.9076 87.6011 20.0327 87.6011 20.2115L87.5296 25.807C87.2912 25.9739 86.8086 26.1407 86.0816 26.3076C85.3665 26.4625 84.5441 26.54 83.6145 26.54C81.8864 26.54 80.492 25.9798 79.4313 24.8595C78.3705 23.7392 77.8402 22.0945 77.8402 19.9254C77.8402 18.0781 78.3586 16.5765 79.3955 15.4204C80.4324 14.2643 81.8685 13.6863 83.7039 13.6863C84.5382 13.6863 85.289 13.7697 85.9564 13.9366C86.6357 14.0915 87.1005 14.3061 87.3508 14.5802C87.3627 14.6755 87.3687 14.8543 87.3687 15.1165C87.3687 15.3787 87.2793 15.7541 87.1005 16.2427C86.9218 16.7195 86.7192 17.077 86.4927 17.3154C86.2663 17.5537 86.0994 17.6729 85.9922 17.6729C85.8968 17.6729 85.7896 17.6312 85.6704 17.5478C85.5631 17.4524 85.3426 17.3571 85.0089 17.2617C84.6752 17.1545 84.3534 17.1009 84.0436 17.1009C83.3046 17.1009 82.7028 17.3392 82.238 17.8159C81.7851 18.2927 81.5586 19.0316 81.5586 20.0327C81.5586 21.0338 81.791 21.7966 82.2558 22.321C82.7326 22.8335 83.2748 23.0897 83.8827 23.0897C84.5024 23.0897 84.8123 22.9348 84.8123 22.6249ZM89.3547 25.3065C88.6158 24.4841 88.2464 23.3459 88.2464 21.8919C88.2464 20.4379 88.6158 19.2997 89.3547 18.4774C90.1056 17.655 91.1127 17.2439 92.376 17.2439C93.6393 17.2439 94.6404 17.655 95.3793 18.4774C96.1183 19.2997 96.4877 20.4379 96.4877 21.8919C96.4877 23.3459 96.1183 24.4841 95.3793 25.3065C94.6404 26.1288 93.6393 26.54 92.376 26.54C91.1127 26.54 90.1056 26.1288 89.3547 25.3065ZM92.376 20.2293C91.7086 20.2293 91.3749 20.7776 91.3749 21.874C91.3749 22.9705 91.7086 23.5187 92.376 23.5187C93.0553 23.5187 93.395 22.9705 93.395 21.874C93.395 20.7776 93.0553 20.2293 92.376 20.2293Z" fill="#FEFDFB"/>
<path d="M45.3183 22.9467H44.5851V23.6799H45.3183V22.9467ZM48.5183 23.7869L49.2455 23.692L49.2436 23.6789L48.5183 23.7869ZM48.5183 25.5031L49.2416 25.6236L49.2443 25.6071L49.2463 25.5905L48.5183 25.5031ZM41.9217 26.0394L42.5161 25.6101L42.5161 25.6101L41.9217 26.0394ZM42.4225 25.3065V14.1869H40.9561V25.3065H42.4225ZM42.4225 14.1869C42.4225 14.4747 42.2314 14.619 42.1902 14.6447C42.1572 14.6653 42.1714 14.6478 42.2899 14.6232C42.5149 14.5764 42.9051 14.5447 43.4949 14.5447V13.0782C42.8809 13.0782 42.3683 13.1091 41.9914 13.1874C41.809 13.2254 41.5975 13.2861 41.4141 13.4005C41.2223 13.5201 40.9561 13.7739 40.9561 14.1869H42.4225ZM43.4949 14.5447C44.0907 14.5447 44.486 14.5764 44.7146 14.6235C44.835 14.6483 44.8509 14.6661 44.8191 14.6465C44.78 14.6223 44.5851 14.4783 44.5851 14.1869H46.0516C46.0516 13.7704 45.7807 13.5168 45.5897 13.3988C45.4059 13.2853 45.1938 13.2249 45.0103 13.1872C44.6311 13.1091 44.1147 13.0782 43.4949 13.0782V14.5447ZM44.5851 14.1869V22.9467H46.0516V14.1869H44.5851ZM45.3183 23.6799H48.0714V22.2135H45.3183V23.6799ZM48.0714 23.6799C47.9515 23.6799 47.8458 23.6365 47.7725 23.58C47.71 23.5318 47.6909 23.4901 47.6967 23.5011C47.7014 23.5099 47.7171 23.5437 47.7368 23.6148C47.7559 23.684 47.7754 23.7762 47.7931 23.8949L49.2436 23.6789C49.1976 23.3704 49.1245 23.0627 48.9914 22.8124C48.8573 22.5603 48.5686 22.2135 48.0714 22.2135V23.6799ZM47.7913 23.8817C47.8228 24.1233 47.8387 24.3717 47.8387 24.6271H49.3052C49.3052 24.3105 49.2854 23.9987 49.2454 23.6921L47.7913 23.8817ZM47.8387 24.6271C47.8387 24.8826 47.8228 25.1454 47.7903 25.4157L49.2463 25.5905C49.2854 25.2649 49.3052 24.9437 49.3052 24.6271H47.8387ZM47.7951 25.3826C47.7747 25.5049 47.753 25.6006 47.7318 25.6732C47.7101 25.7477 47.6926 25.7851 47.6859 25.7975C47.6779 25.8122 47.6949 25.7739 47.7544 25.7278C47.8245 25.6735 47.9299 25.628 48.0535 25.628V27.0944C48.5538 27.0944 48.8422 26.7417 48.9753 26.4959C49.1105 26.2463 49.1893 25.9373 49.2416 25.6236L47.7951 25.3826ZM48.0535 25.628H42.5474V27.0944H48.0535V25.628ZM42.5474 25.628C42.532 25.628 42.5247 25.6264 42.5237 25.6262C42.5229 25.626 42.5256 25.6266 42.5296 25.6287C42.5337 25.6308 42.5352 25.6323 42.5339 25.6312C42.5324 25.6298 42.526 25.6239 42.5161 25.6101L41.3273 26.4687C41.6185 26.872 42.0472 27.0944 42.5474 27.0944V25.628ZM42.5161 25.6101C42.4548 25.5253 42.4225 25.4323 42.4225 25.3065H40.9561C40.9561 25.7288 41.0787 26.1245 41.3273 26.4687L42.5161 25.6101ZM55.6794 25.8785L55.3655 25.2159L55.3361 25.2298L55.3081 25.2463L55.6794 25.8785ZM49.7978 25.3422L49.2793 25.8607L49.2832 25.8645L49.7978 25.3422ZM49.7442 18.5489L49.2003 18.0572L49.1966 18.0613L49.7442 18.5489ZM55.4649 18.1556L54.9614 18.6887L54.9663 18.6933L55.4649 18.1556ZM51.8894 23.2685V22.5352H51.1562V23.2685H51.8894ZM52.1755 24.0193L51.7355 24.6059L51.7558 24.6211L51.7771 24.6349L52.1755 24.0193ZM55.4291 23.6439L55.7612 24.2976L55.8651 24.2448L55.9476 24.1624L55.4291 23.6439ZM55.59 23.8942L54.9429 24.2393L54.9498 24.2515L55.59 23.8942ZM52.1218 20.1757L52.5955 20.7355L52.599 20.7324L52.1218 20.1757ZM51.8894 21.3199H51.1562V22.0531H51.8894V21.3199ZM55.3081 25.2463C54.7029 25.6017 53.8773 25.8068 52.7833 25.8068V27.2732C54.0491 27.2732 55.1542 27.0373 56.0507 26.5108L55.3081 25.2463ZM52.7833 25.8068C51.788 25.8068 50.9801 25.4778 50.3124 24.8199L49.2832 25.8645C50.2364 26.8037 51.4188 27.2732 52.7833 27.2732V25.8068ZM50.3163 24.8237C49.6745 24.1819 49.3154 23.2719 49.3154 21.9992H47.8489C47.8489 23.563 48.3003 24.8816 49.2793 25.8607L50.3163 24.8237ZM49.3154 21.9992C49.3154 20.7061 49.6623 19.7434 50.2918 19.0365L49.1966 18.0613C48.2767 19.0944 47.8489 20.432 47.8489 21.9992H49.3154ZM50.2881 19.0406C50.9331 18.3272 51.7234 17.9771 52.7118 17.9771V16.5106C51.3165 16.5106 50.1284 17.0306 49.2003 18.0572L50.2881 19.0406ZM52.7118 17.9771C53.7826 17.9771 54.4954 18.2486 54.9614 18.6887L55.9683 17.6225C55.1471 16.847 54.0246 16.5106 52.7118 16.5106V17.9771ZM54.9663 18.6933C55.4768 19.1666 55.7149 19.7127 55.7149 20.3724H57.1813C57.1813 19.292 56.7639 18.3602 55.9634 17.618L54.9663 18.6933ZM55.7149 20.3724C55.7149 21.1963 55.4831 21.6886 55.1353 21.9915C54.7681 22.3113 54.1413 22.5352 53.123 22.5352V24.0017C54.3214 24.0017 55.3572 23.7429 56.0984 23.0973C56.859 22.4349 57.1813 21.4791 57.1813 20.3724H55.7149ZM53.123 22.5352H51.8894V24.0017H53.123V22.5352ZM51.1562 23.2685C51.1562 23.7372 51.2819 24.2656 51.7355 24.6059L52.6154 23.4327C52.6274 23.4417 52.637 23.4519 52.6433 23.4607C52.6493 23.4689 52.6492 23.4714 52.6461 23.4633C52.6389 23.4443 52.6227 23.3861 52.6227 23.2685H51.1562ZM51.7771 24.6349C52.1488 24.8754 52.6039 24.9492 53.0514 24.9492V23.4827C52.7363 23.4827 52.6074 23.4254 52.5738 23.4037L51.7771 24.6349ZM53.0514 24.9492C54.0022 24.9492 54.9084 24.7307 55.7612 24.2976L55.0971 22.9902C54.4481 23.3198 53.7692 23.4827 53.0514 23.4827V24.9492ZM55.9476 24.1624C55.8083 24.3016 55.6216 24.376 55.4318 24.376C55.2687 24.376 55.1483 24.3217 55.0905 24.2908C54.9804 24.2322 54.9158 24.1596 54.9054 24.1483C54.8693 24.1089 54.8524 24.0799 54.8615 24.094C54.8714 24.1095 54.8972 24.1533 54.943 24.2392L56.237 23.5491C56.1875 23.4563 56.1387 23.369 56.095 23.301C56.0773 23.2734 56.0389 23.2146 55.9864 23.1574C55.9677 23.1371 55.8962 23.0586 55.7806 22.9969C55.72 22.9646 55.5971 22.9095 55.4318 22.9095C55.2399 22.9095 55.0514 22.9846 54.9106 23.1254L55.9476 24.1624ZM54.9498 24.2515C55.2096 24.7171 55.2858 25.0227 55.2858 25.1992H56.7523C56.7523 24.6606 56.5424 24.0962 56.2303 23.5368L54.9498 24.2515ZM55.2858 25.1992C55.2858 25.2463 55.2819 25.2768 55.2786 25.2937C55.2753 25.3103 55.2732 25.3106 55.2783 25.3003C55.2839 25.2891 55.2953 25.2712 55.3141 25.2527C55.3331 25.2341 55.352 25.2223 55.3655 25.2159L55.9933 26.5412C56.5724 26.2668 56.7523 25.7028 56.7523 25.1992H55.2858ZM54.178 20.712C54.178 20.3531 54.0904 19.9484 53.7862 19.6367C53.4787 19.3218 53.0737 19.228 52.7118 19.228V20.6944C52.7418 20.6944 52.7633 20.6964 52.7774 20.6984C52.7914 20.7005 52.7968 20.7024 52.7955 20.702C52.794 20.7015 52.7861 20.6986 52.7745 20.6914C52.7626 20.6841 52.7494 20.674 52.7368 20.6611C52.7242 20.6482 52.7151 20.6355 52.709 20.6251C52.703 20.6149 52.7013 20.6092 52.7017 20.6104C52.7022 20.6119 52.7047 20.6202 52.7071 20.6373C52.7095 20.6545 52.7115 20.679 52.7115 20.712H54.178ZM52.7118 19.228C52.3161 19.228 51.9488 19.3584 51.6447 19.619L52.599 20.7324C52.6286 20.707 52.6545 20.6944 52.7118 20.6944V19.228ZM51.6482 19.616C51.2832 19.9248 51.1562 20.3554 51.1562 20.7657H52.6227C52.6227 20.7052 52.6317 20.6852 52.6297 20.6903C52.6286 20.6932 52.6251 20.7008 52.6183 20.7104C52.6113 20.7203 52.6033 20.7288 52.5955 20.7354L51.6482 19.616ZM51.1562 20.7657V21.3199H52.6227V20.7657H51.1562ZM51.8894 22.0531H52.8548V20.5866H51.8894V22.0531ZM52.8548 22.0531C53.1701 22.0531 53.54 21.9706 53.8234 21.6786C54.1029 21.3906 54.178 21.0223 54.178 20.712H52.7115C52.7115 20.807 52.6883 20.7426 52.7711 20.6572C52.8104 20.6168 52.851 20.5965 52.8747 20.5884C52.8947 20.5816 52.8923 20.5866 52.8548 20.5866V22.0531ZM59.6003 26.4685L59.571 27.2011L59.5857 27.2017H59.6003V26.4685ZM57.8126 19.9076H58.5459V19.1743H57.8126V19.9076ZM56.597 17.8874L55.8723 17.776L55.8702 17.7896L55.8686 17.8034L56.597 17.8874ZM57.8126 17.4226V18.1559H58.5459V17.4226H57.8126ZM60.8339 16.9221H60.1006V16.9352L60.1011 16.9482L60.8339 16.9221ZM60.8517 17.4226L60.119 17.4488L60.1442 18.1559H60.8517V17.4226ZM61.102 19.9254V19.1922H60.3688V19.9254H61.102ZM60.3688 26.2539C60.3688 26.0334 60.4728 25.873 60.5601 25.7858C60.6361 25.7097 60.7062 25.6795 60.7193 25.6739C60.7465 25.6622 60.7288 25.6739 60.6229 25.689C60.4259 25.7171 60.0929 25.7352 59.6003 25.7352V27.2017C60.1089 27.2017 60.5267 27.1841 60.8303 27.1407C60.9747 27.1201 61.1447 27.087 61.297 27.0217C61.3794 26.9864 61.8352 26.7822 61.8352 26.2539H60.3688ZM59.6297 25.7358C59.0388 25.7122 58.6184 25.6819 58.3541 25.6475C58.2896 25.6391 58.2391 25.6311 58.2009 25.6238C58.182 25.6202 58.1675 25.6171 58.157 25.6146C58.1462 25.612 58.1414 25.6106 58.1415 25.6106C58.1416 25.6106 58.1437 25.6113 58.1474 25.6126C58.151 25.6139 58.1571 25.6162 58.1651 25.6197C58.179 25.6256 58.21 25.6399 58.2487 25.6658C58.2955 25.6971 58.5459 25.876 58.5459 26.2361H57.0794C57.0794 26.623 57.3484 26.8277 57.4324 26.884C57.5379 26.9547 57.6444 26.9918 57.7073 27.0113C57.8432 27.0534 58.0051 27.0809 58.165 27.1017C58.4966 27.1448 58.9701 27.1771 59.571 27.2011L59.6297 25.7358ZM58.5459 26.2361V19.9076H57.0794V26.2361H58.5459ZM57.8126 19.1743H56.9009V20.6408H57.8126V19.1743ZM56.9009 19.1743C56.9806 19.1743 57.0639 19.1925 57.1412 19.2306C57.2162 19.2675 57.267 19.314 57.2978 19.3493C57.3514 19.4111 57.3523 19.4479 57.337 19.3951C57.307 19.2915 57.2766 19.0673 57.2766 18.674H55.8101C55.8101 19.1032 55.8393 19.4956 55.9285 19.8033C55.9728 19.9561 56.0481 20.1471 56.1912 20.3116C56.353 20.4977 56.5975 20.6408 56.9009 20.6408V19.1743ZM57.2766 18.674C57.2766 18.4971 57.2915 18.2648 57.3254 17.9715L55.8686 17.8034C55.8309 18.1299 55.8101 18.422 55.8101 18.674H57.2766ZM57.3217 17.9989C57.3405 17.8766 57.3576 17.8659 57.3349 17.9052C57.3205 17.9301 57.2796 17.993 57.1962 18.0516C57.104 18.1164 56.9877 18.1559 56.8651 18.1559V16.6894C56.4452 16.6894 56.1864 16.9614 56.0647 17.1724C55.9526 17.3667 55.9011 17.5884 55.8723 17.776L57.3217 17.9989ZM56.8651 18.1559H57.8126V16.6894H56.8651V18.1559ZM58.5459 17.4226V15.8495H57.0794V17.4226H58.5459ZM58.5459 15.8495C58.5459 16.0937 58.4009 16.241 58.3327 16.2897C58.2833 16.325 58.2712 16.3152 58.3579 16.2946C58.5222 16.2554 58.8279 16.2251 59.3143 16.2251V14.7587C58.7996 14.7587 58.3544 14.788 58.0182 14.868C57.8546 14.907 57.6549 14.9717 57.4803 15.0964C57.287 15.2345 57.0794 15.486 57.0794 15.8495H58.5459ZM59.3143 16.2251C59.81 16.2251 60.1343 16.2493 60.3183 16.284C60.4171 16.3026 60.4192 16.3143 60.3784 16.2913C60.3425 16.271 60.1006 16.117 60.1006 15.7779H61.5671C61.5671 15.3435 61.2619 15.1061 61.0994 15.0143C60.932 14.9198 60.7441 14.8719 60.5896 14.8428C60.2671 14.7821 59.8317 14.7587 59.3143 14.7587V16.2251ZM60.1006 15.7779V16.9221H61.5671V15.7779H60.1006ZM60.1011 16.9482L60.119 17.4488L61.5845 17.3965L61.5666 16.8959L60.1011 16.9482ZM60.8517 18.1559H62.3713V16.6894H60.8517V18.1559ZM62.3713 18.1559C62.2638 18.1559 62.1595 18.1264 62.0708 18.0742C61.9873 18.0251 61.9372 17.9677 61.9116 17.9326C61.8678 17.8724 61.871 17.8438 61.8867 17.9085C61.9161 18.0296 61.942 18.2714 61.942 18.674H63.4084C63.4084 18.2424 63.3836 17.8585 63.3117 17.5625C63.2768 17.4186 63.2167 17.2336 63.0969 17.0691C62.9627 16.885 62.7193 16.6894 62.3713 16.6894V18.1559ZM61.942 18.674C61.942 19.0767 61.9161 19.3184 61.8867 19.4395C61.871 19.5043 61.8678 19.4757 61.9116 19.4155C61.9372 19.3804 61.9873 19.323 62.0708 19.2739C62.1595 19.2217 62.2638 19.1922 62.3713 19.1922V20.6587C62.7193 20.6587 62.9627 20.4631 63.0969 20.279C63.2167 20.1145 63.2768 19.9295 63.3117 19.7856C63.3836 19.4896 63.4084 19.1057 63.4084 18.674H61.942ZM62.3713 19.1922H61.102V20.6587H62.3713V19.1922ZM60.3688 19.9254V26.2539H61.8352V19.9254H60.3688ZM64.8949 18.4238L64.6999 17.7169L64.6935 17.7187L64.8949 18.4238ZM63.8938 18.4238L64.0952 17.7187L64.0952 17.7187L63.8938 18.4238ZM64.1619 13.7221L64.2961 14.4429L64.2991 14.4423L64.1619 13.7221ZM65.7173 13.7221L65.8514 13.0012L65.8484 13.0007L65.7173 13.7221ZM66.486 14.1869L67.1912 14.3874L67.2192 14.2891V14.1869H66.486ZM65.4133 17.959L64.7081 17.7584L64.6801 17.8567V17.959H65.4133ZM64.6935 17.7187C64.5895 17.7485 64.4904 17.762 64.3944 17.762V19.2285C64.632 19.2285 64.8666 19.1944 65.0963 19.1288L64.6935 17.7187ZM64.3944 17.762C64.2983 17.762 64.1992 17.7485 64.0952 17.7187L63.6924 19.1288C63.9221 19.1944 64.1567 19.2285 64.3944 19.2285V17.762ZM64.0952 17.7187C64.0455 17.7045 64.0164 17.6921 64.0027 17.6853C63.9888 17.6783 63.9978 17.6807 64.0173 17.6987C64.0383 17.7183 64.0687 17.7537 64.0928 17.8069C64.1172 17.861 64.1265 17.9147 64.1265 17.959H62.66C62.66 18.2837 62.7969 18.5667 63.0194 18.7733C63.2203 18.9598 63.4675 19.0645 63.6924 19.1288L64.0952 17.7187ZM64.1265 17.959V14.1869H62.66V17.959H64.1265ZM64.1265 14.1869C64.1265 14.29 64.0925 14.3847 64.0438 14.455C64.0219 14.4865 64.0009 14.5077 63.9869 14.5201C63.9798 14.5264 63.9741 14.5307 63.9705 14.5334C63.9686 14.5347 63.9672 14.5357 63.9662 14.5363C63.9658 14.5366 63.9654 14.5368 63.9652 14.537C63.9649 14.5371 63.9648 14.5372 63.9648 14.5372C63.9648 14.5372 63.9649 14.5372 63.9651 14.537C63.9654 14.5369 63.9657 14.5367 63.9662 14.5364C63.9671 14.5359 63.9685 14.5351 63.9704 14.5342C63.9742 14.5322 63.9798 14.5296 63.9872 14.5263C64.0024 14.5197 64.0238 14.5113 64.0526 14.502C64.1111 14.4829 64.1909 14.4625 64.2961 14.4429L64.0278 13.0012C63.7393 13.0549 63.4457 13.1374 63.206 13.2823C62.9547 13.4343 62.66 13.7274 62.66 14.1869H64.1265ZM64.2991 14.4423C64.5029 14.4035 64.7132 14.3838 64.9307 14.3838V12.9173C64.6238 12.9173 64.3216 12.9453 64.0248 13.0018L64.2991 14.4423ZM64.9307 14.3838C65.1482 14.3838 65.3665 14.4035 65.5861 14.4435L65.8484 13.0007C65.5437 12.9453 65.2376 12.9173 64.9307 12.9173V14.3838ZM65.5831 14.4429C65.6883 14.4625 65.7681 14.4829 65.8266 14.502C65.8554 14.5113 65.8768 14.5197 65.892 14.5263C65.8994 14.5296 65.905 14.5322 65.9088 14.5342C65.9107 14.5351 65.9121 14.5359 65.913 14.5364C65.9135 14.5367 65.9138 14.5369 65.9141 14.537C65.9143 14.5372 65.9144 14.5372 65.9144 14.5372C65.9144 14.5372 65.9143 14.5371 65.9141 14.537C65.9138 14.5368 65.9135 14.5366 65.913 14.5363C65.912 14.5357 65.9106 14.5347 65.9088 14.5334C65.9051 14.5307 65.8994 14.5264 65.8923 14.5201C65.8783 14.5077 65.8573 14.4865 65.8354 14.455C65.7867 14.3847 65.7528 14.29 65.7528 14.1869H67.2192C67.2192 13.7274 66.9245 13.4343 66.6732 13.2823C66.4335 13.1374 66.1399 13.0549 65.8514 13.0012L65.5831 14.4429ZM65.7807 13.9863L64.7081 17.7584L66.1186 18.1595L67.1912 14.3874L65.7807 13.9863ZM64.6801 17.959C64.6801 17.9109 64.6905 17.8541 64.7168 17.798C64.7424 17.7433 64.7741 17.7082 64.7943 17.6901C64.8129 17.6734 64.82 17.6725 64.803 17.6808C64.7862 17.6889 64.7536 17.7021 64.6999 17.7169L65.0899 19.1306C65.3181 19.0676 65.5688 18.9652 65.7732 18.782C66.0005 18.5782 66.1466 18.293 66.1466 17.959H64.6801ZM68.3175 23.1433L68.6971 22.516L68.2841 22.2661L67.8914 22.5467L68.3175 23.1433ZM70.2125 22.9467L70.5198 22.2809L70.5048 22.274L70.4895 22.2678L70.2125 22.9467ZM68.9432 17.9411L69.3725 18.5355L69.3725 18.5355L68.9432 17.9411ZM73.5377 17.5299L73.322 18.2307L73.3258 18.2318L73.5377 17.5299ZM74.0919 19.3176L73.4662 18.9353L73.4623 18.9417L73.4585 18.9482L74.0919 19.3176ZM73.5734 20.0148L73.2161 20.6551L73.5127 20.8207L73.8309 20.7014L73.5734 20.0148ZM71.6069 20.3009L71.1164 20.8459L71.1448 20.8714L71.1757 20.8938L71.6069 20.3009ZM72.3041 20.6763L71.9954 21.3413L72.0053 21.3459L72.0153 21.3502L72.3041 20.6763ZM73.1265 21.0696L72.7704 21.7105L72.7777 21.7146L72.785 21.7184L73.1265 21.0696ZM73.8773 21.5701L74.3325 20.9952L74.3292 20.9927L73.8773 21.5701ZM73.7879 25.664L74.2857 26.2024L74.2911 26.1973L73.7879 25.664ZM68.6215 26.1109L68.9018 25.4334L68.6215 26.1109ZM67.817 23.8763L67.1487 23.5745L67.1447 23.5836L67.1408 23.5927L67.817 23.8763ZM67.938 23.7707C68.9231 24.3666 69.833 24.7525 70.6058 24.7525V23.2861C70.2584 23.2861 69.6427 23.088 68.6971 22.516L67.938 23.7707ZM70.6058 24.7525C70.8476 24.7525 71.1597 24.7143 71.4285 24.5261C71.745 24.3046 71.8754 23.9677 71.8754 23.6439H70.4089C70.4089 23.6193 70.4135 23.5625 70.4466 23.4929C70.4815 23.4196 70.5338 23.3624 70.5876 23.3248C70.6367 23.2904 70.6727 23.2821 70.6738 23.2818C70.6748 23.2816 70.6548 23.2861 70.6058 23.2861V24.7525ZM71.8754 23.6439C71.8754 23.3835 71.7634 23.183 71.6696 23.0585C71.5741 22.9318 71.4574 22.8298 71.3497 22.7489C71.1336 22.5869 70.8469 22.4319 70.5198 22.2809L69.9053 23.6124C70.1979 23.7475 70.376 23.8517 70.4698 23.9221C70.5169 23.9574 70.5165 23.9649 70.4985 23.941C70.4821 23.9193 70.4089 23.8149 70.4089 23.6439H71.8754ZM70.4895 22.2678C69.8322 21.9996 69.3961 21.6691 69.1235 21.3051C68.8566 20.9485 68.7111 20.5127 68.7111 19.9612H67.2447C67.2447 20.7922 67.4716 21.5452 67.9495 22.1838C68.4219 22.8149 69.103 23.2859 69.9355 23.6256L70.4895 22.2678ZM68.7111 19.9612C68.7111 19.2844 68.9431 18.8456 69.3725 18.5355L68.5139 17.3467C67.6562 17.9661 67.2447 18.8741 67.2447 19.9612H68.7111ZM69.3725 18.5355C69.8757 18.1721 70.4894 17.9771 71.2494 17.9771V16.5106C70.2217 16.5106 69.298 16.7804 68.5139 17.3467L69.3725 18.5355ZM71.2494 17.9771C72.1087 17.9771 72.7937 18.0681 73.322 18.2307L73.7533 16.8291C73.0421 16.6103 72.2016 16.5106 71.2494 16.5106V17.9771ZM73.3258 18.2318C73.6023 18.3153 73.739 18.3926 73.7929 18.4353C73.8156 18.4533 73.8046 18.4504 73.7872 18.4196C73.7672 18.384 73.7519 18.3343 73.7519 18.2807H75.2184C75.2184 17.8379 74.98 17.5049 74.7037 17.286C74.4418 17.0784 74.1047 16.9352 73.7496 16.828L73.3258 18.2318ZM73.7519 18.2807C73.7519 18.3325 73.7121 18.533 73.4662 18.9353L74.7175 19.7C74.996 19.2442 75.2184 18.7533 75.2184 18.2807H73.7519ZM73.4585 18.9482C73.3389 19.1532 73.2489 19.2918 73.1862 19.3762C73.1544 19.4189 73.1398 19.4339 73.141 19.4327C73.1421 19.4316 73.1541 19.4195 73.1766 19.4029C73.1969 19.3878 73.2442 19.3552 73.316 19.3283L73.8309 20.7014C74.0045 20.6362 74.1234 20.5242 74.1779 20.4696C74.2462 20.4014 74.3083 20.3247 74.3629 20.2512C74.473 20.1032 74.5945 19.9111 74.7252 19.6871L73.4585 18.9482ZM73.9308 19.3746C73.3073 19.0266 72.6298 18.8525 71.9108 18.8525V20.319C72.3837 20.319 72.8146 20.431 73.2161 20.6551L73.9308 19.3746ZM71.9108 18.8525C71.6864 18.8525 71.387 18.888 71.1269 19.0711C70.8196 19.2873 70.6949 19.6151 70.6949 19.9254H72.1614C72.1614 19.9555 72.1559 20.017 72.121 20.0907C72.0843 20.1681 72.0291 20.2293 71.9708 20.2703C71.8716 20.3402 71.8135 20.319 71.9108 20.319V18.8525ZM70.6949 19.9254C70.6949 20.3027 70.8636 20.6183 71.1164 20.8459L72.0974 19.7559C72.0984 19.7568 72.1172 19.7742 72.1349 19.8113C72.1535 19.8504 72.1614 19.8915 72.1614 19.9254H70.6949ZM71.1757 20.8938C71.3694 21.0347 71.6588 21.185 71.9954 21.3413L72.6129 20.0112C72.2821 19.8576 72.1067 19.7577 72.0382 19.7079L71.1757 20.8938ZM72.0153 21.3502C72.3358 21.4876 72.5854 21.6077 72.7704 21.7105L73.4826 20.4286C73.2386 20.2931 72.9399 20.151 72.593 20.0023L72.0153 21.3502ZM72.785 21.7184C72.9616 21.8113 73.1745 21.9511 73.4254 22.1476L74.3292 20.9927C74.032 20.7601 73.7443 20.5662 73.468 20.4207L72.785 21.7184ZM73.4222 22.145C73.8194 22.4594 74.0022 22.838 74.0022 23.34H75.4687C75.4687 22.388 75.0794 21.5866 74.3324 20.9953L73.4222 22.145ZM74.0022 23.34C74.0022 24.1135 73.7544 24.6876 73.2848 25.1307L74.2911 26.1973C75.0848 25.4485 75.4687 24.4733 75.4687 23.34H74.0022ZM73.2902 25.1256C72.8468 25.5355 72.1057 25.8068 70.9276 25.8068V27.2732C72.3 27.2732 73.4658 26.9604 74.2857 26.2024L73.2902 25.1256ZM70.9276 25.8068C70.1651 25.8068 69.4932 25.6782 68.9018 25.4334L68.3411 26.7884C69.1322 27.1158 69.9978 27.2732 70.9276 27.2732V25.8068ZM68.9018 25.4334C68.3278 25.1959 68.3178 24.9957 68.3178 24.931H66.8514C66.8514 25.8675 67.5326 26.4539 68.3411 26.7884L68.9018 25.4334ZM68.3178 24.931C68.3178 24.7121 68.3685 24.4571 68.4932 24.1598L67.1408 23.5927C66.9556 24.0344 66.8514 24.4825 66.8514 24.931H68.3178ZM68.4852 24.1781C68.557 24.0191 68.6205 23.906 68.6728 23.8295C68.7273 23.7496 68.754 23.7326 68.7437 23.74L67.8914 22.5467C67.5585 22.7844 67.3261 23.1817 67.1487 23.5745L68.4852 24.1781ZM84.8123 22.6249L84.0791 22.6141V22.6249H84.8123ZM84.848 20.1936L85.5813 20.2044V20.1936H84.848ZM85.3665 19.8718L85.4667 20.5982L85.4789 20.5965L85.491 20.5944L85.3665 19.8718ZM86.2246 19.7824L86.2808 19.0514L86.2527 19.0492H86.2246V19.7824ZM86.9218 19.8361L87.0361 19.1118L87.0072 19.1072L86.978 19.105L86.9218 19.8361ZM87.6011 20.2115L88.3343 20.2208V20.2115H87.6011ZM87.5296 25.807L87.9501 26.4077L88.258 26.1922L88.2628 25.8164L87.5296 25.807ZM86.0816 26.3076L86.2368 27.0242L86.2456 27.0222L86.0816 26.3076ZM79.4313 24.8595L79.9637 24.3554L79.9637 24.3554L79.4313 24.8595ZM85.9564 13.9366L85.7786 14.6479L85.786 14.6498L85.7934 14.6515L85.9564 13.9366ZM87.3508 14.5802L88.0784 14.4892L88.0495 14.2579L87.8923 14.0858L87.3508 14.5802ZM87.1005 16.2427L87.7871 16.5002L87.7891 16.4947L87.1005 16.2427ZM86.4927 17.3154L85.9611 16.8104L85.9611 16.8104L86.4927 17.3154ZM85.6704 17.5478L85.1833 18.0958L85.215 18.1241L85.2499 18.1485L85.6704 17.5478ZM85.0089 17.2617L84.7846 17.9598L84.796 17.9635L84.8075 17.9668L85.0089 17.2617ZM82.238 17.8159L81.7129 17.304L81.7064 17.3109L82.238 17.8159ZM82.2558 22.321L81.7071 22.8073L81.713 22.8139L81.719 22.8204L82.2558 22.321ZM85.5454 22.6357L85.5812 20.2044L84.1149 20.1828L84.0791 22.6141L85.5454 22.6357ZM85.5813 20.1936C85.5813 20.2859 85.5552 20.3842 85.5007 20.4707C85.4499 20.5513 85.3921 20.5938 85.3643 20.611C85.3377 20.6275 85.3279 20.6278 85.3496 20.6213C85.3699 20.6152 85.4074 20.6063 85.4667 20.5982L85.2663 19.1455C85.0544 19.1747 84.8058 19.2317 84.591 19.365C84.3437 19.5185 84.1148 19.7982 84.1148 20.1936H85.5813ZM85.491 20.5944C85.8153 20.5385 86.056 20.5156 86.2246 20.5156V19.0492C85.9402 19.0492 85.6089 19.086 85.2419 19.1492L85.491 20.5944ZM86.1683 20.5135L86.8655 20.5671L86.978 19.105L86.2808 19.0514L86.1683 20.5135ZM86.8074 20.5603C86.8988 20.5747 86.9667 20.59 87.0151 20.604C87.0653 20.6186 87.0816 20.628 87.0766 20.6253C87.0733 20.6234 87.0232 20.596 86.9707 20.5255C86.9107 20.445 86.8679 20.3344 86.8679 20.2115H88.3343C88.3343 19.7446 88.0165 19.4692 87.7859 19.3418C87.5614 19.2177 87.2922 19.1522 87.0361 19.1118L86.8074 20.5603ZM86.8679 20.2021L86.7964 25.7976L88.2628 25.8164L88.3343 20.2208L86.8679 20.2021ZM87.1091 25.2063C87.0024 25.281 86.6534 25.424 85.9175 25.5929L86.2456 27.0222C86.9637 26.8574 87.58 26.6667 87.9501 26.4077L87.1091 25.2063ZM85.9263 25.591C85.2737 25.7324 84.5052 25.8068 83.6145 25.8068V27.2732C84.583 27.2732 85.4592 27.1927 86.2368 27.0242L85.9263 25.591ZM83.6145 25.8068C82.0611 25.8068 80.8686 25.3112 79.9637 24.3554L78.8988 25.3636C80.1153 26.6485 81.7116 27.2732 83.6145 27.2732V25.8068ZM79.9637 24.3554C79.0763 23.4182 78.5734 21.9835 78.5734 19.9254H77.107C77.107 22.2056 77.6648 24.0602 78.8988 25.3636L79.9637 24.3554ZM78.5734 19.9254C78.5734 18.2227 79.0473 16.9068 79.9413 15.91L78.8497 14.9308C77.67 16.2461 77.107 17.9336 77.107 19.9254H78.5734ZM79.9413 15.91C80.8137 14.9374 82.0353 14.4195 83.7039 14.4195V12.9531C81.7017 12.9531 80.0511 13.5913 78.8497 14.9308L79.9413 15.91ZM83.7039 14.4195C84.4904 14.4195 85.1801 14.4983 85.7786 14.6479L86.1342 13.2253C85.3979 13.0412 84.5859 12.9531 83.7039 12.9531V14.4195ZM85.7934 14.6515C86.4363 14.7981 86.7154 14.9717 86.8094 15.0746L87.8923 14.0858C87.4857 13.6404 86.8352 13.385 86.1195 13.2217L85.7934 14.6515ZM86.6233 14.6711C86.6287 14.7148 86.6355 14.8499 86.6355 15.1165H88.1019C88.1019 14.8587 88.0968 14.6363 88.0784 14.4892L86.6233 14.6711ZM86.6355 15.1165C86.6355 15.2444 86.5844 15.5195 86.412 15.9908L87.7891 16.4947C87.9743 15.9887 88.1019 15.513 88.1019 15.1165H86.6355ZM86.414 15.9853C86.2528 16.4152 86.0931 16.6715 85.9611 16.8104L87.0243 17.8204C87.3453 17.4825 87.5907 17.0238 87.7871 16.5002L86.414 15.9853ZM85.9611 16.8104C85.9141 16.8599 85.8741 16.899 85.8408 16.9293C85.8071 16.9599 85.7842 16.9778 85.7716 16.9869C85.7574 16.997 85.7648 16.9897 85.7914 16.9782C85.8057 16.972 85.8294 16.9628 85.8614 16.955C85.8936 16.9472 85.938 16.9397 85.9922 16.9397V18.4061C86.2851 18.4061 86.5126 18.2597 86.6239 18.1802C86.761 18.0823 86.8957 17.9558 87.0243 17.8204L85.9611 16.8104ZM85.9922 16.9397C86.0521 16.9397 86.0919 16.9528 86.106 16.9583C86.1192 16.9634 86.1144 16.9636 86.0909 16.9471L85.2499 18.1485C85.4316 18.2757 85.6862 18.4061 85.9922 18.4061V16.9397ZM86.1575 16.9998C85.912 16.7816 85.5403 16.651 85.2104 16.5567L84.8075 17.9668C84.956 18.0092 85.0621 18.0469 85.1335 18.0778C85.2136 18.1124 85.2141 18.1232 85.1833 18.0958L86.1575 16.9998ZM85.2333 16.5637C84.8365 16.4361 84.4388 16.3676 84.0436 16.3676V17.8341C84.268 17.8341 84.514 17.8728 84.7846 17.9598L85.2333 16.5637ZM84.0436 16.3676C83.1308 16.3676 82.3316 16.6696 81.713 17.3041L82.763 18.3278C83.0739 18.0088 83.4784 17.8341 84.0436 17.8341V16.3676ZM81.7064 17.3109C81.0705 17.9803 80.8254 18.9394 80.8254 20.0327H82.2919C82.2919 19.1238 82.4997 18.605 82.7696 18.3209L81.7064 17.3109ZM80.8254 20.0327C80.8254 21.137 81.0812 22.1011 81.7071 22.8073L82.8046 21.8346C82.5009 21.492 82.2919 20.9306 82.2919 20.0327H80.8254ZM81.719 22.8204C82.3114 23.4572 83.0396 23.8229 83.8827 23.8229V22.3565C83.51 22.3565 83.1538 22.2097 82.7927 21.8216L81.719 22.8204ZM83.8827 23.8229C84.23 23.8229 84.5996 23.7834 84.9078 23.6293C85.0722 23.5471 85.2396 23.4219 85.3643 23.235C85.4919 23.0434 85.5455 22.8307 85.5455 22.6249H84.0791C84.0791 22.574 84.0939 22.4969 84.1441 22.4215C84.1913 22.3508 84.2425 22.3224 84.252 22.3177C84.2586 22.3144 84.237 22.326 84.1688 22.3374C84.1026 22.3484 84.009 22.3565 83.8827 22.3565V23.8229ZM89.3547 25.3065L88.8093 25.7965L88.8133 25.8008L89.3547 25.3065ZM89.3547 18.4774L88.8133 17.983L88.8093 17.9873L89.3547 18.4774ZM95.3793 18.4774L94.8339 18.9675L94.8339 18.9675L95.3793 18.4774ZM95.3793 25.3065L94.8339 24.8164L95.3793 25.3065ZM89.9001 24.8164C89.3161 24.1664 88.9796 23.2233 88.9796 21.8919H87.5131C87.5131 23.4686 87.9155 24.8018 88.8093 25.7965L89.9001 24.8164ZM88.9796 21.8919C88.9796 20.5606 89.3161 19.6174 89.9001 18.9675L88.8093 17.9873C87.9155 18.9821 87.5131 20.3152 87.5131 21.8919H88.9796ZM89.8962 18.9718C90.4888 18.3228 91.2881 17.9771 92.376 17.9771V16.5106C90.9372 16.5106 89.7224 16.9873 88.8133 17.983L89.8962 18.9718ZM92.376 17.9771C93.4641 17.9771 94.2546 18.3227 94.8339 18.9675L95.9247 17.9873C95.0262 16.9874 93.8145 16.5106 92.376 16.5106V17.9771ZM94.8339 18.9675C95.418 19.6174 95.7545 20.5606 95.7545 21.8919H97.2209C97.2209 20.3152 96.8186 18.9821 95.9247 17.9873L94.8339 18.9675ZM95.7545 21.8919C95.7545 23.2233 95.418 24.1664 94.8339 24.8164L95.9247 25.7965C96.8186 24.8018 97.2209 23.4686 97.2209 21.8919H95.7545ZM94.8339 24.8164C94.2546 25.4611 93.4641 25.8068 92.376 25.8068V27.2732C93.8145 27.2732 95.0262 26.7965 95.9247 25.7965L94.8339 24.8164ZM92.376 25.8068C91.2881 25.8068 90.4888 25.461 89.8962 24.8121L88.8133 25.8008C89.7224 26.7966 90.9372 27.2732 92.376 27.2732V25.8068ZM92.376 19.4961C91.7988 19.4961 91.3051 19.7562 90.9988 20.2593C90.7285 20.7034 90.6416 21.2753 90.6416 21.874H92.1081C92.1081 21.3763 92.1881 21.1258 92.2515 21.0218C92.2649 20.9998 92.2752 20.9882 92.2806 20.9828C92.2857 20.9778 92.2887 20.9761 92.2902 20.9752C92.2903 20.9752 92.3113 20.9626 92.376 20.9626V19.4961ZM90.6416 21.874C90.6416 22.4728 90.7285 23.0447 90.9988 23.4888C91.3051 23.9919 91.7988 24.252 92.376 24.252V22.7855C92.3113 22.7855 92.2903 22.7729 92.2902 22.7728C92.2887 22.772 92.2857 22.7703 92.2806 22.7653C92.2752 22.7599 92.2649 22.7483 92.2515 22.7263C92.1881 22.6222 92.1081 22.3718 92.1081 21.874H90.6416ZM92.376 24.252C92.9531 24.252 93.4516 23.9972 93.7635 23.4937C94.0395 23.0483 94.1282 22.4742 94.1282 21.874H92.6618C92.6618 22.3703 92.5806 22.6186 92.5169 22.7214C92.4917 22.7621 92.4761 22.7693 92.4744 22.7702C92.471 22.7721 92.4457 22.7855 92.376 22.7855V24.252ZM94.1282 21.874C94.1282 21.2739 94.0395 20.6998 93.7635 20.2544C93.4516 19.7509 92.9531 19.4961 92.376 19.4961V20.9626C92.4457 20.9626 92.471 20.976 92.4744 20.9778C92.4761 20.9788 92.4917 20.986 92.5169 21.0267C92.5806 21.1294 92.6618 21.3777 92.6618 21.874H94.1282Z" fill="#060000"/>
</g>
<defs>
<filter id="filter0_dd_16_3595" x="0.603142" y="0" width="137.507" height="43.2341" filterUnits="userSpaceOnUse" color-interpolation-filters="sRGB">
<feFlood flood-opacity="0" result="BackgroundImageFix"/>
<feColorMatrix in="SourceAlpha" type="matrix" values="0 0 0 0 0 0 0 0 0 0 0 0 0 0 0 0 0 0 127 0" result="hardAlpha"/>
<feOffset dy="0.733223"/>
<feComposite in2="hardAlpha" operator="out"/>
<feColorMatrix type="matrix" values="0 0 0 0 0 0 0 0 0 0 0 0 0 0 0 0 0 0 1 0"/>
<feBlend mode="normal" in2="BackgroundImageFix" result="effect1_dropShadow_16_3595"/>
<feColorMatrix in="SourceAlpha" type="matrix" values="0 0 0 0 0 0 0 0 0 0 0 0 0 0 0 0 0 0 127 0" result="hardAlpha"/>
<feOffset dy="2.56628"/>
<feGaussianBlur stdDeviation="0.366612"/>
<feComposite in2="hardAlpha" operator="out"/>
<feColorMatrix type="matrix" values="0 0 0 0 0 0 0 0 0 0 0 0 0 0 0 0 0 0 0.25 0"/>
<feBlend mode="normal" in2="effect1_dropShadow_16_3595" result="effect2_dropShadow_16_3595"/>
<feBlend mode="normal" in="SourceGraphic" in2="effect2_dropShadow_16_3595" result="shape"/>
</filter>
<filter id="filter1_dd_16_3595" x="0.603142" y="0" width="137.507" height="43.2341" filterUnits="userSpaceOnUse" color-interpolation-filters="sRGB">
<feFlood flood-opacity="0" result="BackgroundImageFix"/>
<feColorMatrix in="SourceAlpha" type="matrix" values="0 0 0 0 0 0 0 0 0 0 0 0 0 0 0 0 0 0 127 0" result="hardAlpha"/>
<feOffset dy="0.733223"/>
<feComposite in2="hardAlpha" operator="out"/>
<feColorMatrix type="matrix" values="0 0 0 0 0 0 0 0 0 0 0 0 0 0 0 0 0 0 1 0"/>
<feBlend mode="normal" in2="BackgroundImageFix" result="effect1_dropShadow_16_3595"/>
<feColorMatrix in="SourceAlpha" type="matrix" values="0 0 0 0 0 0 0 0 0 0 0 0 0 0 0 0 0 0 127 0" result="hardAlpha"/>
<feOffset dy="2.56628"/>
<feGaussianBlur stdDeviation="0.366612"/>
<feComposite in2="hardAlpha" operator="out"/>
<feColorMatrix type="matrix" values="0 0 0 0 0 0 0 0 0 0 0 0 0 0 0 0 0 0 0.25 0"/>
<feBlend mode="normal" in2="effect1_dropShadow_16_3595" result="effect2_dropShadow_16_3595"/>
<feBlend mode="normal" in="SourceGraphic" in2="effect2_dropShadow_16_3595" result="shape"/>
</filter>
<filter id="filter2_d_16_3595" x="41.6893" y="13.6505" width="54.7985" height="14.356" filterUnits="userSpaceOnUse" color-interpolation-filters="sRGB">
<feFlood flood-opacity="0" result="BackgroundImageFix"/>
<feColorMatrix in="SourceAlpha" type="matrix" values="0 0 0 0 0 0 0 0 0 0 0 0 0 0 0 0 0 0 127 0" result="hardAlpha"/>
<feOffset dy="1.46645"/>
<feComposite in2="hardAlpha" operator="out"/>
<feColorMatrix type="matrix" values="0 0 0 0 0.0313726 0 0 0 0 0.00784314 0 0 0 0 0.0235294 0 0 0 1 0"/>
<feBlend mode="normal" in2="BackgroundImageFix" result="effect1_dropShadow_16_3595"/>
<feBlend mode="normal" in="SourceGraphic" in2="effect1_dropShadow_16_3595" result="shape"/>
</filter>
</defs>
</svg>
