<svg width="105" height="36" viewBox="0 0 105 36" fill="none" xmlns="http://www.w3.org/2000/svg">
<path d="M104.154 33.8515C104.115 30.5515 103.634 26.8915 100.515 24.5155C98.3408 21.1021 94.3474 18.4675 90.7568 22.4141C90.7234 22.4381 87.8074 24.1901 86.8368 25.3141C85.7261 24.1661 82.9074 24.9088 83.1101 21.4555C86.5048 21.4408 86.8554 22.5382 87.3688 18.9062C85.9408 16.9262 84.0248 13.7901 79.3114 14.0421C77.5074 14.9048 75.0741 15.7582 74.6074 17.5235C73.9208 16.9288 73.3928 16.1435 72.5474 15.7382C68.2861 15.3848 64.5554 15.2941 61.7394 17.4221C58.8488 16.0101 55.8941 13.9102 51.6421 14.9702C53.4434 12.5888 55.0941 12.0155 50.8914 10.7128C49.7474 8.25281 46.6034 1.3835 43.4848 6.8715C41.1768 5.06217 38.1754 3.06881 33.4408 3.77814C31.8248 1.53681 29.4141 -1.29652 28.2461 4.31414C25.7408 3.09014 24.0768 1.31283 20.9381 3.7075C19.0474 1.08483 15.4874 -2.3685 11.8568 2.3075C8.78078 -0.103165 4.76211 -0.0698541 6.84078 5.11815C3.47278 6.38481 3.23677 8.44081 2.26344 11.5128C-1.3059 15.4568 -0.0938901 16.0342 2.06878 18.2728C4.03944 17.6728 4.89544 19.5355 5.61677 19.8582C4.10877 23.3701 5.35011 23.8955 6.93811 26.0982C9.95678 26.6995 12.9434 27.1608 16.1248 26.2168C21.1261 27.2248 25.1021 28.4528 29.9568 28.0101C33.7674 29.3501 36.4874 29.5128 40.1861 28.8608C44.2648 31.7382 45.5715 32.2381 50.6501 31.3435C55.6221 35.2821 59.4968 36.1355 66.1208 35.5328C68.1448 34.7502 67.5274 33.2942 68.2408 32.1595C72.3914 33.4848 76.4101 34.3622 80.3781 32.1995C83.5274 34.2368 85.8061 33.2675 88.4168 32.8675C87.9728 30.9275 89.6448 30.1181 90.2234 28.8235C91.8528 29.5115 93.6101 29.3195 95.3128 29.5688C96.3901 34.2502 98.9208 35.4075 104.154 33.8515" fill="white"/>
</svg>
