<svg width="126" height="290" viewBox="0 0 126 290" fill="none" xmlns="http://www.w3.org/2000/svg">
<path d="M72.776 0.00350222C70.3853 -0.0778311 68.376 1.26615 66.1506 3.51682C62.184 2.19548 60.5333 3.51281 57.6533 4.80614C54.3853 1.83414 52.08 3.73681 50.004 3.94615C44.216 -2.05252 38.44 1.18215 35.9867 7.38348C34.6987 9.29415 37.2853 10.6688 37.684 11.6795C32.3253 11.0515 31.7453 12.1008 28.764 15.9781C27.6493 10.4181 24.9387 11.7248 21.1173 12.1115C16.3707 10.8248 14.164 12.5528 11.3467 14.6888C10.42 16.5568 10.216 18.4008 9.64534 20.2741C4.61201 17.9008 3.34933 20.8542 2 25.8608C7.264 27.9222 12.2293 26.0355 17.292 24.5715C17.2453 29.2888 19.448 30.3261 21.9653 32.3061C17.592 30.6235 17.5187 31.8101 15.5933 35.3155C9.63066 33.9915 8.62666 35.4515 5.39867 39.1821C5.908 41.5448 8.22534 42.0408 8.372 42.1888C12.36 43.4062 15.5293 41.0128 18.9933 39.6115C22.5693 46.1021 31.72 45.1982 38.9587 45.1982C40.224 46.6195 41.42 47.1342 42.7827 48.2048C44.852 47.0368 47.044 46.6968 49.1574 46.0555C47.0614 42.8222 44.2374 42.8528 41.9347 42.6208C44.152 37.4622 50.3213 37.3542 55.1053 38.3222C55.04 40.0302 54.828 41.3835 54.6786 43.0488C56.42 40.8141 58.188 41.3928 60.6253 40.8995C62.316 33.8675 73.6533 32.2742 77.008 38.1942V1.45549C75.436 0.535488 74.044 0.0461689 72.776 0.00350222" fill="url(#paint0_radial_16_467)"/>
<path d="M120.776 241.004C118.385 240.922 116.376 242.266 114.151 244.517C110.184 243.195 108.533 244.513 105.653 245.806C102.385 242.834 100.08 244.737 98.004 244.946C92.216 238.947 86.44 242.182 83.9867 248.383C82.6987 250.294 85.2853 251.669 85.684 252.679C80.3253 252.051 79.7453 253.101 76.764 256.978C75.6493 251.418 72.9387 252.725 69.1173 253.111C64.3707 251.825 62.164 253.553 59.3467 255.689C58.42 257.557 58.216 259.401 57.6453 261.274C52.612 258.901 51.3493 261.854 50 266.861C55.264 268.922 60.2293 267.036 65.292 265.572C65.2453 270.289 67.448 271.326 69.9653 273.306C65.592 271.623 65.5187 272.81 63.5933 276.315C57.6307 274.991 56.6267 276.451 53.3987 280.182C53.908 282.545 56.2253 283.041 56.372 283.189C60.36 284.406 63.5293 282.013 66.9933 280.611C70.5693 287.102 79.72 286.198 86.9587 286.198C88.224 287.619 89.42 288.134 90.7827 289.205C92.852 288.037 95.044 287.697 97.1574 287.055C95.0614 283.822 92.2374 283.853 89.9347 283.621C92.152 278.462 98.3213 278.354 103.105 279.322C103.04 281.03 102.828 282.383 102.679 284.049C104.42 281.814 106.188 282.393 108.625 281.899C110.316 274.867 121.653 273.274 125.008 279.194V242.455C123.436 241.535 122.044 241.046 120.776 241.004" fill="url(#paint1_radial_16_467)"/>
<path d="M87.4861 16.1463C83.0968 14.961 80.3781 13.9476 75.4981 16.4156C73.5034 17.685 73.3648 19.2543 72.5688 21.2677C69.5048 20.137 67.1221 21.405 64.8421 23.4237C64.3101 25.0277 64.8101 25.945 65.1101 27.465C60.2261 27.6837 56.2941 30.821 53.3874 34.741C47.6768 27.9757 41.1341 36.957 41.1341 43.093C37.9154 42.4063 34.6461 44.241 31.8101 45.5156C31.5688 41.5876 31.5768 39.3623 27.2794 40.6663C25.7634 36.9997 23.7861 37.0597 21.9514 40.3983C17.0301 38.157 11.5661 42.0623 12.0941 47.4037C6.63143 45.709 1.12611 48.189 0.108774 53.3317C-0.452559 56.2997 1.2541 58.2877 3.0381 60.6077C0.58477 61.4037 0.907439 64.4557 0.907439 67.073C7.09011 72.4823 17.6048 71.9223 25.4141 71.9223C33.6808 77.4143 43.3448 76.2357 52.8541 76.2357C56.4554 82.4543 66.3781 80.5997 72.8341 80.0063C80.3981 83.489 89.2381 81.577 97.0754 79.1983C107.431 84.0903 119.886 84.1156 130.367 82.753V0.160991C128.833 -0.415009 127.607 0.626332 126.115 2.13567C123.769 -0.287001 122.758 0.373004 121.051 2.67434C117.65 1.24634 117.594 1.85432 116.522 4.29299C113.334 4.64632 112.222 5.16099 110.663 7.52365C109.054 5.69165 107.651 6.981 105.866 8.33567C95.0648 -2.78833 88.9395 9.09301 87.4861 16.1463" fill="white"/>
<defs>
<radialGradient id="paint0_radial_16_467" cx="0" cy="0" r="1" gradientUnits="userSpaceOnUse" gradientTransform="translate(66.5733 25.4315) rotate(-104.91) scale(24.7838 69.8512)">
<stop stop-color="#BBD1EA"/>
<stop offset="1" stop-color="#E5F0F6"/>
</radialGradient>
<radialGradient id="paint1_radial_16_467" cx="0" cy="0" r="1" gradientUnits="userSpaceOnUse" gradientTransform="translate(114.573 266.432) rotate(-104.91) scale(24.7838 69.8512)">
<stop stop-color="#9FC6F2"/>
<stop offset="1" stop-color="#E5F0F6"/>
</radialGradient>
</defs>
</svg>
