<svg width="141" height="39" viewBox="0 0 141 39" fill="none" xmlns="http://www.w3.org/2000/svg">
<path d="M25.7747 14.0328C26.2413 14.7994 27.3413 15.4074 27.78 15.7914C26.4547 16.4488 27.2893 17.4901 27.024 18.4208C29.116 19.3328 31.3333 18.4275 33.0333 17.9835C35.072 21.0448 35.6573 22.2395 32.908 23.9101C32.5787 23.9408 32.372 25.3195 31.028 24.7875C27.2067 25.7021 22.8227 25.2061 24.5253 20.3994C23.7573 19.3221 22.112 19.1488 22.2707 17.2155C21.96 15.7355 24.8493 14.7821 25.7747 14.0328V14.0328ZM28.484 3.02878C27.108 3.07678 25.676 3.52611 24.2747 4.59811C22.48 4.28345 19.3733 3.94211 18.2653 7.22878C14.7507 4.76744 16.1933 7.22878 13.7613 7.22878C11.1813 7.31278 11.968 7.36477 11.2627 9.42477C10.1573 10.2301 9.73867 10.0915 8.75867 10.5208C5.96934 9.63547 4.61467 10.1741 2.75467 11.3981C3.24534 13.7301 3.62668 13.3861 6.00934 13.5941C7.66134 14.9314 9.07866 14.8821 11.2627 14.6901C12.216 14.0928 13.9253 14.6901 14.5173 14.6901C12.7413 16.6368 13.6947 17.7048 15.2667 19.0835C14.6573 19.9728 15.7213 21.0781 15.7667 21.2755C13.5827 21.8235 13.3893 22.7448 12.512 24.1301C10.0067 23.9008 9.98134 24.6755 9.25734 26.1021C5.48401 27.2554 2.23467 26.5781 0 30.4954C1.088 33.0461 2.89334 32.5328 5.75867 32.0301C7.92401 33.8208 9.50399 33.7835 12.512 33.7835C15.0453 35.9021 18.0907 35.3981 21.02 34.8848C22.24 34.9381 22.8213 34.5981 23.7747 34.4461C26.392 35.5768 28.5773 35.0848 30.7787 34.2274C34.276 36.1701 34.9413 32.9675 35.2827 32.4688C37.62 33.3755 38.9907 32.4994 40.5413 31.5914C42.6267 32.3888 44.7093 31.9581 46.7947 31.5914C48.4627 33.5288 49.94 33.3581 52.2987 33.5648C54.2 35.4168 56.4987 35.5461 59.3067 35.3234C62.492 37.9768 66.8867 37.8928 70.82 36.8568C74.6827 38.4808 78.5133 38.5888 82.8267 37.0768C87.3147 38.1728 91.3613 37.6155 95.0893 35.9808C98.1533 35.1741 100.688 35.0821 103.097 33.1261C104.809 33.2621 106.611 33.0155 107.96 32.4835C106.149 31.6701 104.852 30.3874 104.852 28.2994C102.316 29.5354 99.596 30.1301 96.5947 30.2715C92.6213 31.3168 89.396 31.7768 86.0813 29.1755C85.6173 29.5821 84.5813 30.2408 84.0827 30.9341C79.8253 32.4274 76.1347 31.7155 75.324 27.6421C73.348 27.9301 70.3053 28.5541 69.0653 31.1541C63.8507 31.1541 55.6667 27.6261 63.5613 25.8835C63.6453 24.8568 63.372 23.8061 63.8107 22.8101C62.856 22.8741 61.5573 22.0661 60.5573 23.0341C58.2747 21.5328 57.0773 20.8048 58.5573 18.2021C57.724 18.3488 56.748 17.8675 56.0533 18.6408C53.1893 20.5941 52.064 20.6515 48.8 19.5221L47.0453 21.0568C43.2253 21.6661 39.7787 21.5394 40.792 17.3261C39.632 17.1688 38.6253 17.4488 37.5373 16.8875C38.7413 15.6981 39.756 14.2834 41.5413 14.0328C43.84 13.1368 46.1213 13.1101 48.8 12.9368C47.0493 12.4768 45.2413 12.3194 43.7907 10.9594C40.3147 11.8741 37.1253 10.9008 38.7867 6.35147C36.4013 6.7328 34.336 7.0368 32.7827 8.98747C31.8133 8.73147 31.136 7.5008 29.2787 8.5488C27.28 6.5448 26.384 5.33811 29.7787 4.59811C30.1373 4.17811 30.4373 3.74345 30.7093 3.30345C29.9907 3.12345 29.2507 3.00211 28.484 3.03011V3.02878" fill="url(#paint0_linear_16_469)"/>
<path d="M132.58 26.8701C131.739 28.3648 130.643 29.0221 128.812 29.1581C126.833 30.4768 121.351 31.1328 119.896 29.0768C116.547 30.5661 109.684 31.2248 107.121 28.4234C103.021 28.7541 98.2866 28.7181 93.9773 27.5234C78.8559 29.5928 50.3826 29.0248 60.6146 8.23945C60.8452 6.14078 63.3492 6.04344 64.3826 6.19677C64.9652 6.00211 65.0666 6.36212 65.3933 6.44212C66.4626 5.33412 68.3493 5.02211 69.6213 5.87011C71.2093 4.93545 72.3892 5.18744 73.6652 6.19677C74.2852 6.69944 75.0573 6.60478 75.8719 6.60478C76.5786 6.32745 76.3613 5.8421 76.6066 5.46077C76.8959 3.90877 79.3292 4.51411 80.6506 5.29811C81.2172 6.06877 82.2439 6.14879 83.0399 6.27812C85.5586 5.76345 86.9012 7.00212 87.9119 8.64746C90.2346 8.40879 92.2012 8.89945 94.2532 9.71012C95.7972 9.56879 97.2519 9.6208 98.7573 9.95546C100.483 8.93413 101.824 9.07946 103.536 9.38346C101.137 5.22479 108.48 2.50077 110.797 6.03277C112.295 4.49544 114.249 5.38077 115.025 6.93144C116.809 5.27811 119.579 3.4021 120.632 6.52343C120.519 6.9821 120.54 7.37811 120.448 7.83144C121.736 8.46211 122.393 8.15012 123.205 7.74879C124.104 6.49812 124.06 4.70079 125.135 3.74479C125.801 2.81945 127.319 2.82077 128.26 2.76477C128.648 0.278106 132.013 -1.35389 133.315 1.53945C133.524 2.60611 132.415 2.99545 131.568 3.33678C132.977 5.00878 132.791 6.50611 130.925 7.66744C133.04 8.29278 134.953 9.08478 135.796 10.7728C139.399 10.2261 142.724 14.5941 138.369 16.0021C137.105 18.0808 134.573 18.1248 132.212 17.9634C134.137 18.8194 135.059 20.6728 134.693 22.2941C135.404 24.4221 134.18 25.4474 132.58 26.8701" fill="url(#paint1_linear_16_469)"/>
<defs>
<linearGradient id="paint0_linear_16_469" x1="44.276" y1="35.4208" x2="56.3293" y2="16.3567" gradientUnits="userSpaceOnUse">
<stop stop-color="#A8BCD8"/>
<stop offset="1" stop-color="#DEE8F2"/>
</linearGradient>
<linearGradient id="paint1_linear_16_469" x1="85.4746" y1="36.6514" x2="97.7577" y2="9.80499" gradientUnits="userSpaceOnUse">
<stop stop-color="#A8BCD8"/>
<stop offset="1" stop-color="white"/>
</linearGradient>
</defs>
</svg>
