<svg width="172" height="67" viewBox="0 0 172 67" fill="none" xmlns="http://www.w3.org/2000/svg">
<path d="M156.67 33.5349C155.376 30.4149 154.344 29.0282 150.152 30.4842C149.936 27.0802 148.737 24.1736 144.61 26.2162C144.702 24.3802 145.061 23.8509 142.817 22.8656C141.557 18.6109 138.608 17.0483 135.322 21.0323C133.44 20.2589 133.149 19.2082 131.912 21.2496C129.728 20.5549 127.834 20.4042 125.278 20.5176C121.752 18.7456 116.345 18.4749 113.646 24.0323C110.283 24.2456 108.871 24.8549 108.896 28.0323C107.185 27.9909 106.098 27.8856 104.712 28.5296C104.14 27.0336 104.36 26.3656 103.165 24.9309C104.122 22.7016 104.337 20.1216 101.646 17.6336C101.691 16.4816 102.097 14.5896 101.352 13.0309C106.348 9.66693 101.498 4.56559 96.0296 8.05625L95.8972 5.98425C92.5769 3.42691 88.4805 1.40959 85.9118 6.39092C85.119 6.36425 84.3034 6.66291 83.5353 6.31091C82.3968 2.16691 75.7378 -0.245097 75.0212 5.00557C73.9556 5.15224 73.0801 5.52293 71.8873 5.43627C70.2728 4.92293 69.4748 4.18024 67.1348 5.27757C63.3608 5.85224 61.1592 7.32426 61.7144 11.1683C58.928 10.2816 55.9738 9.68024 54.1488 12.3442C53.2316 11.0816 52.7102 10.2176 50.7946 9.32292C51.5509 8.31492 50.9758 7.38958 53.2862 7.08425C53.4857 7.35091 54.7753 7.85092 54.4389 8.62826C67.4998 12.7829 55.4801 -7.34241 49.9618 4.52425C49.2228 4.47892 47.5269 3.70159 46.2586 4.29759C44.7577 0.370927 42.128 1.58426 37.4086 1.85892C34.6061 -1.02508 33.7394 -0.239756 30.3092 2.08024C25.5056 2.38558 22.1452 3.12559 24.0868 7.79092C21.0264 9.53225 19.704 10.7043 22.6468 14.1216C22.3581 18.2763 23.4233 19.9323 26.542 21.4989C22.7572 29.0643 29.1233 29.5122 34.0832 32.3402C34.8373 33.0896 33.7629 34.3189 33.705 34.6749C33.5186 37.2442 35.2894 37.4829 36.841 38.4029C35.9613 40.9283 37.3024 40.6749 38.1108 41.7882C40.4222 42.5562 42.9222 41.7856 44.9186 41.1229C44.7081 47.8882 52.1602 49.4443 57.9244 46.7629C62.7113 49.2749 69.443 53.2909 74.2529 50.8056C76.3436 49.9829 80.3988 49.4402 81.5269 49.1856C86.3305 51.5736 92.4296 50.2442 96.5717 49.6136C102.889 50.6976 109.599 48.5322 115.318 46.1069C116.974 47.8856 119.292 47.3736 123.044 47.4629C125.172 47.3909 126.773 46.3683 128.452 45.5003C131.628 45.7536 134.385 45.4122 136.79 44.0442C142.92 47.8882 148.077 46.3962 152.33 43.9776C156.109 45.5776 158.77 44.8976 162.345 44.0323C168.234 48.9056 176.162 39.4242 168.276 37.8776C166.697 33.6082 163.061 33.7549 159.673 35.1923C158.793 33.2616 158.27 34.0443 156.67 33.5349" fill="url(#paint0_linear_16_470)"/>
<path d="M116.091 54.1378C113.748 53.7711 113.299 55.1685 112.463 55.4778C107.324 55.0471 107.461 56.1338 106 59.1805C109.175 61.0098 111.949 60.4445 115.089 60.8938C116.235 59.7885 117.889 58.9378 119.289 57.9605C121.933 60.0725 123.403 59.8271 128 58.9565C129.224 59.1871 129.56 57.8098 128.617 56.8191C124.193 51.7191 119.879 52.7391 116.091 54.1378" fill="url(#paint1_linear_16_470)"/>
<path d="M131.685 3.19831C131.209 5.88098 128.969 4.00498 127.629 4.40365C122.773 2.07565 122.159 5.1943 120.761 7.68897C115.929 5.8423 113.663 7.60497 111.465 8.4583C111.465 8.4583 101.272 16.8876 122.34 15.145C123.807 12.813 128.348 10.3556 130.272 9.63565C131.993 7.36365 133.803 7.54897 136.671 6.69697C140.18 8.92897 141.179 7.57829 144.093 7.31296C144.032 3.95962 147.128 4.81029 148.34 3.81029C145.333 0.156954 142.665 0.46365 138.969 2.83965C134.639 -0.19635 134.716 0.955642 131.685 3.19831" fill="url(#paint2_linear_16_470)"/>
<path d="M6.70592 36C6.75259 36.1294 6.78726 36.2467 6.84192 36.384C3.47392 37.6507 3.23524 39.7067 2.26058 42.78C-1.30742 46.7227 -0.091414 47.2987 2.07125 49.5374C4.04192 48.9387 4.89658 50.8 5.61658 51.1227C4.10991 54.6347 -0.358089 55.072 1.22991 57.276C4.24991 57.876 12.9446 58.428 16.1259 57.4827C21.1259 58.4907 25.1032 59.7187 29.9566 59.276C33.7686 60.616 36.4886 60.7787 40.1872 60.1267C44.2659 63.0054 45.5726 63.5027 50.6499 62.608C55.6233 66.548 59.4966 67.4 66.1206 66.7974C68.1446 66.0147 67.5272 64.5587 68.2392 63.4254C72.3899 64.7507 76.4086 65.628 80.3766 63.4654C83.5273 65.5027 85.8059 64.5334 88.4166 64.1334C87.9726 62.1934 89.6446 61.3854 90.2232 60.0894C91.8526 60.7787 93.6073 60.5854 95.3113 60.8347C96.3886 65.5174 98.9192 66.6733 104.153 65.1187C104.114 61.8173 103.635 58.1573 100.515 55.7813C98.3419 52.368 94.3459 49.7333 90.7566 53.68C90.7232 53.704 87.8073 55.456 86.8366 56.58C86.7153 56.4547 86.5646 56.3574 86.4086 56.2694C85.1699 57.7947 84.2632 59.1027 83.9872 59.8947C80.9712 59.376 79.3073 59.268 77.1766 57.7133C73.1846 59.264 70.3832 60.2107 66.3672 59.3987C64.7792 55.492 66.2006 54.6694 73.4512 53.856C73.6179 53.3307 73.0153 52.66 73.9499 52.284C69.2726 53.5013 66.6539 53.576 64.9486 49.9227C63.4939 50.22 62.3352 50.7094 60.4552 50.84C60.2646 53.1294 60.0886 55.3587 59.5312 57.54C54.8046 58.3734 50.9566 57.4453 53.3552 52.1853C50.4632 52.1987 47.8179 51.744 44.9512 51.488C43.6806 53.5493 42.5259 55.432 40.0886 56.8934C35.6272 56.5227 33.8286 56.6667 32.3686 52.3773C31.6592 53.1653 30.6192 54.1693 29.9366 55.0813C20.6286 54.308 19.9152 46.08 29.4539 47.62C25.2712 46.14 23.7846 46.0147 24.7886 41.7453C20.5299 41.7653 18.8846 41.5467 17.7499 37.9347C16.8286 39.0067 14.3112 37.528 14.9006 41.2467C10.5486 41.6427 7.54325 41.344 7.20725 36.4147C7.03659 36.26 6.87392 36.144 6.70592 36" fill="url(#paint3_linear_16_470)"/>
<defs>
<linearGradient id="paint0_linear_16_470" x1="95.708" y1="28.3122" x2="92.2" y2="48.1186" gradientUnits="userSpaceOnUse">
<stop stop-color="white"/>
<stop offset="1" stop-color="#B6C9DC"/>
</linearGradient>
<linearGradient id="paint1_linear_16_470" x1="118.547" y1="53.6738" x2="117.204" y2="61.6762" gradientUnits="userSpaceOnUse">
<stop stop-color="white"/>
<stop offset="1" stop-color="#BCD1E5"/>
</linearGradient>
<linearGradient id="paint2_linear_16_470" x1="141.451" y1="5.77964" x2="111.225" y2="13.5342" gradientUnits="userSpaceOnUse">
<stop stop-color="#F2F6FA"/>
<stop offset="1" stop-color="#DCE8F2"/>
</linearGradient>
<linearGradient id="paint3_linear_16_470" x1="24.0499" y1="53.4387" x2="94.4308" y2="43.8789" gradientUnits="userSpaceOnUse">
<stop stop-color="#BDD3E5"/>
<stop offset="1" stop-color="#FDE3BA"/>
</linearGradient>
</defs>
</svg>
