<svg width="77" height="55" viewBox="0 0 77 55" fill="none" xmlns="http://www.w3.org/2000/svg">
<path d="M22.9293 -1.30472e-05C26.228 0.271987 26.8773 2.41868 28.2466 3.45734C26.4586 4.34001 25.6333 6.39465 24.828 7.29999C26.3667 11.3187 27.3867 7.81732 28.6267 8.06799C29.928 10.3853 31.9333 10.7347 33.944 11.1413C37.724 8.70399 37.384 9.63333 39.6427 12.6787C44.452 13.8893 41.6787 15.892 40.7813 17.288C47.04 21.0507 41.2907 20.284 42.3013 22.6667C36.456 19.0827 34.152 22.872 33.5653 28.8147C33.9867 30.7227 38.3813 29.9667 41.1613 29.9667C35.7173 36.8013 41.768 40.24 48.3787 39.572C49.7733 38.9067 50.768 36.852 51.4173 36.1147C53.336 40.4187 53.9987 41.108 58.6333 41.108C60.4187 39.9933 62.3173 39.2453 63.952 38.4187C66.488 41.3827 68.6773 41.108 72.308 41.108C73.4133 42.6933 75.372 43.8173 76.8667 44.9507C75.2867 46.6147 75.8813 47.6907 75.3467 49.176C71.8027 50.4707 72.4453 51.148 71.548 54.1707C70.8493 52.836 69.5293 53.66 68.5093 53.4027C69.5707 47.884 67.3747 49.8667 65.0907 50.328C62.1947 48.432 62.1973 49.624 59.7733 50.7133C55.8293 46.3933 51.9947 46.972 48.7587 50.7133C51.16 51.2573 49.264 52.5053 49.5173 53.4027C46.0707 52.004 45.0013 52.2267 41.5413 54.1707C42.752 49.6387 40.86 50.8827 38.1227 50.328C34.9053 49.228 31.8933 49.6147 28.6267 49.9453C28.5507 46.7093 28.1747 44.9813 26.728 43.0293C24.4707 40.0173 22.98 41.4933 21.4093 41.4933C20.6587 36.688 20.6173 38.06 17.612 40.34C13.6493 40.452 12.3293 38.2533 10.0146 36.4973C9.86665 31.264 6.89201 32.28 3.17734 32.656C2.32134 28.512 4.25333 26.9133 6.596 24.204C2.80666 26.1107 1.07333 27.9107 -1 22.6667C1.39733 17.996 5.96932 16.5693 10.0146 15.752C8.50398 10.144 8.93599 6.96533 13.0533 3.84133C16.4587 0.801328 18.2093 0.47732 22.9293 -1.30472e-05" fill="url(#paint0_radial_16_468)"/>
<defs>
<radialGradient id="paint0_radial_16_468" cx="0" cy="0" r="1" gradientUnits="userSpaceOnUse" gradientTransform="translate(36.2787 27.5853) rotate(126.276) scale(24.1808 97.0989)">
<stop stop-color="#F3F8FB"/>
<stop offset="1" stop-color="#CBDFEE"/>
</radialGradient>
</defs>
</svg>
