<svg width="74" height="64" viewBox="0 0 74 64" fill="none" xmlns="http://www.w3.org/2000/svg">
<g filter="url(#filter0_d_72_2162)">
<rect x="4" width="66" height="56" rx="25" fill="#EEA812"/>
<rect x="5" y="1" width="64" height="54" rx="24" stroke="#7B3F23" stroke-width="2"/>
</g>
<path d="M37.0095 20.4643L25.1672 30.2178V40.7447C25.1672 41.0172 25.2754 41.2786 25.4682 41.4713C25.6609 41.6641 25.9223 41.7724 26.1949 41.7724L33.3926 41.7537C33.6643 41.7524 33.9243 41.6435 34.116 41.4509C34.3076 41.2583 34.4152 40.9977 34.4152 40.726V34.5785C34.4152 34.3059 34.5234 34.0445 34.7162 33.8518C34.9089 33.659 35.1703 33.5508 35.4429 33.5508H39.5536C39.8262 33.5508 40.0876 33.659 40.2803 33.8518C40.4731 34.0445 40.5813 34.3059 40.5813 34.5785V40.7215C40.5809 40.8568 40.6072 40.9907 40.6587 41.1158C40.7101 41.2409 40.7857 41.3545 40.8812 41.4503C40.9767 41.5461 41.0901 41.6221 41.215 41.6739C41.3399 41.7258 41.4738 41.7524 41.609 41.7524L48.8042 41.7724C49.0768 41.7724 49.3382 41.6641 49.5309 41.4713C49.7236 41.2786 49.8319 41.0172 49.8319 40.7447V30.2107L37.9922 20.4643C37.853 20.3521 37.6796 20.2909 37.5008 20.2909C37.322 20.2909 37.1486 20.3521 37.0095 20.4643ZM55.7155 27.0936L50.3458 22.6674V13.7708C50.3458 13.5664 50.2646 13.3703 50.12 13.2258C49.9755 13.0812 49.7794 13 49.575 13H45.978C45.7736 13 45.5776 13.0812 45.433 13.2258C45.2885 13.3703 45.2073 13.5664 45.2073 13.7708V18.4346L39.4567 13.7033C38.9048 13.2492 38.2123 13.0009 37.4976 13.0009C36.7829 13.0009 36.0904 13.2492 35.5386 13.7033L19.2797 27.0936C19.2017 27.1581 19.1371 27.2374 19.0897 27.3268C19.0423 27.4163 19.013 27.5143 19.0034 27.6151C18.9939 27.7159 19.0043 27.8176 19.0341 27.9144C19.0638 28.0111 19.1124 28.1011 19.177 28.1791L20.8149 30.1703C20.8792 30.2486 20.9584 30.3134 21.0479 30.361C21.1373 30.4087 21.2353 30.4382 21.3362 30.4479C21.4371 30.4576 21.5389 30.4474 21.6358 30.4177C21.7327 30.388 21.8229 30.3395 21.901 30.275L37.0095 17.8308C37.1486 17.7186 37.322 17.6574 37.5008 17.6574C37.6796 17.6574 37.853 17.7186 37.9922 17.8308L53.1013 30.275C53.1793 30.3395 53.2693 30.3881 53.366 30.4179C53.4628 30.4476 53.5645 30.458 53.6653 30.4485C53.7661 30.439 53.8641 30.4096 53.9536 30.3622C54.043 30.3148 54.1223 30.2503 54.1868 30.1722L55.8247 28.181C55.8892 28.1026 55.9375 28.0121 55.9669 27.9149C55.9964 27.8177 56.0063 27.7157 55.9961 27.6146C55.986 27.5136 55.956 27.4155 55.9078 27.3261C55.8596 27.2367 55.7943 27.1577 55.7155 27.0936Z" fill="white" stroke="#7B3F23"/>
<defs>
<filter id="filter0_d_72_2162" x="0" y="0" width="74" height="64" filterUnits="userSpaceOnUse" color-interpolation-filters="sRGB">
<feFlood flood-opacity="0" result="BackgroundImageFix"/>
<feColorMatrix in="SourceAlpha" type="matrix" values="0 0 0 0 0 0 0 0 0 0 0 0 0 0 0 0 0 0 127 0" result="hardAlpha"/>
<feOffset dy="4"/>
<feGaussianBlur stdDeviation="2"/>
<feComposite in2="hardAlpha" operator="out"/>
<feColorMatrix type="matrix" values="0 0 0 0 0 0 0 0 0 0 0 0 0 0 0 0 0 0 0.25 0"/>
<feBlend mode="normal" in2="BackgroundImageFix" result="effect1_dropShadow_72_2162"/>
<feBlend mode="normal" in="SourceGraphic" in2="effect1_dropShadow_72_2162" result="shape"/>
</filter>
</defs>
</svg>
