<svg width="208" height="284" viewBox="0 0 208 284" fill="none" xmlns="http://www.w3.org/2000/svg">
<path d="M89.71 249.264C89.71 249.264 85.7371 236.739 75.2161 225.979C75.2161 225.979 104.546 210.999 132.404 225.597C132.404 225.597 121.615 237.697 118.065 249.264C118.065 249.264 116.502 247.03 103.81 246.899C103.81 246.899 93.1664 246.241 89.71 249.264Z" fill="#010930"/>
<path d="M81.3901 229.679C81.3901 229.679 108.031 220.565 129.478 229.597C129.966 229.018 132.404 225.597 132.404 225.597C104.546 210.999 75.2161 225.978 75.2161 225.978C80.8754 231.767 84.6376 238.062 86.9084 242.648C85.6605 238.062 82.3086 233.709 81.3901 229.679Z" fill="#02125E"/>
<path d="M128.793 223.872C127.256 226.922 125.231 229.683 122.777 232.214C118.801 236.314 114.636 239.999 109.086 241.727C102.771 243.693 96.4791 243.143 89.9926 243.063C89.0237 243.05 88.0665 243.059 87.1136 243.066C88.9185 246.775 89.7101 249.264 89.7101 249.264C93.1664 246.241 103.81 246.899 103.81 246.899C116.502 247.03 118.065 249.264 118.065 249.264C121.615 237.697 132.404 225.597 132.404 225.597C131.202 224.967 129.998 224.396 128.793 223.872Z" fill="#040925"/>
<path d="M129.886 228.627C129.886 228.627 189.301 157.643 198.24 135.559C198.24 135.559 215.591 103.484 204.024 76.1423C204.024 76.1423 201.395 41.9649 180.888 33.5518C180.888 33.5518 167.217 16.2 146.711 11.4678C146.711 11.4678 136.194 1.4777 118.317 4.10666C118.317 4.10666 104.12 -5.18749 90.9749 4.19231C90.9749 4.19231 73.6233 -2.20266 57.849 11.994C57.849 11.994 34.7136 14.623 23.6716 35.1294C23.6716 35.1294 0.536107 46.171 2.63937 81.9265C2.63937 81.9265 -15.2381 110.845 42.0748 183.933L77.3037 228.627C77.3037 228.627 104.646 216.008 129.886 228.627Z" fill="#F15000"/>
<path d="M200.971 94.005C184.868 138.104 163.556 170.839 153.371 167.119C143.185 163.4 147.981 124.635 164.084 80.536C170.405 63.2268 177.528 47.6703 184.466 35.3799C183.337 34.683 182.147 34.0682 180.888 33.5519C180.888 33.5519 167.217 16.2001 146.711 11.4679C146.711 11.4679 144.928 9.77793 141.591 7.97166C142.788 22.5826 142.575 40.8106 140.664 60.4518C136.116 107.179 129.031 143.932 115.776 142.559C104.033 141.343 105.548 53.0104 103.998 31.9748C101.277 52.0145 96.6503 141.284 82.3086 142.394C71.4975 143.232 65.0576 104.756 63.496 57.8352C62.856 38.6059 63.7422 20.8224 65.7562 6.50101C63.1346 7.84692 60.4699 9.63486 57.8489 11.994C57.8489 11.994 34.7136 14.623 23.6716 35.1295C23.6716 35.1295 21.958 35.9492 19.508 37.8584C26.6174 49.4053 33.9749 63.7213 40.708 79.6099C59.0258 122.836 65.7812 161.308 55.7968 165.539C45.8127 169.77 22.8695 138.158 4.55204 94.9312C3.32444 92.0344 2.15079 89.1599 1.02862 86.3147C-1.58895 96.8379 -2.5948 126.97 42.0748 183.933L77.3037 228.627C77.3037 228.627 104.646 216.008 129.886 228.627C129.886 228.627 189.301 157.643 198.24 135.559C198.24 135.559 213.811 106.769 205.611 80.4895C204.188 84.9153 202.641 89.4307 200.971 94.005" fill="#DD4901"/>
<path d="M102.743 56.5289C102.658 53.9717 102.546 51.4438 102.412 48.946C102.111 51.4809 101.833 54.0484 101.58 56.6487C99.737 75.5855 99.473 93.2081 100.529 107.542C102.511 93.2769 103.378 75.6137 102.743 56.5289" fill="#981269"/>
<path d="M56.9272 12.1311C52.5254 12.8701 33.4032 17.0564 23.6716 35.1294C23.6716 35.1294 23.2889 35.3125 22.6299 35.7046C23.799 59.2093 35.5108 111.306 85.0636 225.897C86.4618 225.499 88.0188 225.098 89.7101 224.728C60.0129 79.882 55.8902 29.5388 56.9272 12.1311" fill="white"/>
<path d="M204.024 76.1423C204.024 76.1423 203.985 75.6483 203.884 74.7722C201.265 98.3368 188.683 156.678 129.099 228.246C129.361 228.372 129.623 228.496 129.886 228.627C129.886 228.627 189.301 157.643 198.24 135.559C198.24 135.559 215.591 103.484 204.024 76.1423Z" fill="white"/>
<path d="M42.0748 183.933L77.3037 228.627C77.3037 228.627 79.1455 227.778 82.3086 226.741C27.3214 148.645 8.15963 105.913 1.91617 83.4832C-0.774169 90.3499 -7.66163 120.507 42.0748 183.933" fill="white"/>
<path d="M181.291 33.7276C181.156 33.6692 181.024 33.6078 180.888 33.5519C180.888 33.5519 167.217 16.2001 146.711 11.4679C146.711 11.4679 146.5 11.2698 146.102 10.9446C146.766 30.0205 142.647 82.0824 113.155 223.551C116.183 223.955 119.278 224.616 122.384 225.597C178.38 107.183 183.128 54.2618 181.291 33.7276Z" fill="white"/>
<path d="M117.586 3.67252C114.535 1.95288 102.364 -3.93418 90.9748 4.19227C90.9748 4.19227 90.5803 4.04721 89.8608 3.84971C87.2188 22.7509 85.967 76.4477 94.3839 223.856C97.4344 223.385 100.771 223.062 104.294 223.023C116.574 76.4745 117.788 22.0742 117.586 3.67252" fill="white"/>
<path d="M176.734 66.62C166.582 118.783 149.675 159.382 138.972 157.299C134.288 156.388 131.568 147.451 130.841 133.318C126.318 158.393 120.53 188.177 113.155 223.551C116.183 223.955 119.278 224.616 122.384 225.597C175.66 112.934 182.545 59.5593 181.506 36.9545C180.326 46.3521 178.737 56.3254 176.734 66.62Z" fill="#DBDCDE"/>
<path d="M74.6033 147.62C73.3737 149.584 71.9171 150.789 70.2364 151.12C59.4096 153.256 43.4177 118.419 34.5177 73.3094C31.2295 56.6417 29.3711 40.907 28.8789 27.5796C26.9728 29.7789 25.2053 32.2811 23.6716 35.1294C23.6716 35.1294 23.2889 35.3125 22.6299 35.7046C23.799 59.2093 35.5108 111.306 85.0636 225.897C86.4618 225.499 88.0188 225.098 89.7101 224.728C83.6755 195.295 78.6973 169.765 74.6033 147.62" fill="#DBDCDE"/>
<path d="M100.109 147.035C95.2711 146.822 91.4312 135.508 89.3004 117.86C90.3168 146.275 91.9444 181.128 94.384 223.856C97.4342 223.385 100.771 223.063 104.294 223.023C107.512 184.625 109.969 152.557 111.841 125.801C108.423 139.143 104.272 147.218 100.109 147.035Z" fill="#DBDCDE"/>
<path d="M50.4195 179.297C41.1168 175.777 22.193 151.391 4.29321 119.182C9.49965 135.008 20.4179 156.316 42.0749 183.933L77.3038 228.627C77.3038 228.627 79.1455 227.778 82.3087 226.741C69.9557 209.197 59.416 193.443 50.4195 179.297" fill="#DBDCDE"/>
<path d="M202.701 117.419C184.338 157.311 164.78 188.407 156.252 192.012C148.506 203.609 139.524 215.724 129.099 228.246C129.361 228.372 129.623 228.496 129.886 228.627C129.886 228.627 189.301 157.642 198.24 135.559C198.24 135.559 204.901 123.24 207.216 107.366C205.768 110.673 204.261 114.028 202.701 117.419" fill="#DBDCDE"/>
<path d="M205.323 93.0828C205.323 93.0828 206.304 111.184 197.071 126.283C197.071 126.283 191.48 127.501 195.202 118.755C198.923 110.009 201.457 92.4412 205.323 93.0828Z" fill="white"/>
<path d="M190.735 46.6942C198.314 58.9692 202.302 72.5259 198.991 86.8602C195.775 100.785 189.288 114.79 181.299 126.621C180.32 119.876 183.259 112.751 185.659 106.6C188.38 99.6268 190.948 92.524 192.506 85.1811C195.347 71.7873 196.873 59.3563 190.735 46.6942" fill="#FF5D0D"/>
<path d="M72.3193 6.67768C72.4607 6.59205 72.6127 6.50591 72.776 6.42027C74.6934 5.41344 83.7895 5.27136 83.7906 8.48838C83.7988 32.4495 83.757 56.4952 84.7688 80.4162C85.0274 86.5285 85.2126 92.6532 85.5664 98.7605C85.8261 103.249 87.3668 108.492 85.526 112.814C85.4123 113.08 85.3903 113.888 85.3336 114.144C81.746 110.881 82.1339 102.309 81.4894 97.913C78.2431 75.777 77.3743 53.2678 77.1303 30.9229C77.0773 26.0823 78.3976 20.6862 76.6751 15.8842C75.6128 12.9226 67.3587 9.69868 72.3193 6.67768" fill="#FF5D0D"/>
<path d="M124.864 67.7873C127.493 65.5419 126.974 55.5251 127.038 52.5754C127.193 45.3577 126.813 38.1411 126.891 30.923C126.944 26.0818 125.624 20.6863 127.346 15.8843C128.408 12.9227 136.663 9.69877 131.702 6.67777C131.561 6.59164 131.409 6.50599 131.246 6.42036C129.328 5.41352 120.232 5.27144 120.231 8.48846C120.227 19.8582 120.305 31.2393 119.639 42.5951C119.278 48.7247 114.792 64.7069 122.727 68.0229C123.605 68.3902 124.306 68.264 124.864 67.7873" fill="#FF5D0D"/>
<path d="M119.681 76.1885C117.089 76.4315 116.541 110.633 119.154 113.831C122.434 108.852 130.922 75.1346 119.681 76.1885Z" fill="#FF5D0D"/>
<path d="M118.065 251.828V249.265C118.065 247.849 111.699 246.702 103.847 246.702C95.9937 246.702 89.6279 247.849 89.6279 249.265V251.828H118.065" fill="#F15000"/>
<path d="M103.847 248.28C95.9937 248.28 89.6279 249.427 89.6279 250.844V251.828H118.065V250.844C118.065 249.427 111.699 248.28 103.847 248.28Z" fill="#FF5D0D"/>
<path d="M118.065 251.828C118.065 253.244 111.699 254.392 103.847 254.392C95.9937 254.392 89.6279 253.244 89.6279 251.828C89.6279 250.412 95.9937 249.264 103.847 249.264C111.699 249.264 118.065 250.412 118.065 251.828Z" fill="#010930"/>
<path d="M117.315 251.006C115.415 252.019 110.105 252.748 103.847 252.748C97.5885 252.748 92.2785 252.019 90.3783 251.006C89.8941 251.264 89.6279 251.541 89.6279 251.828C89.6279 253.244 95.9937 254.392 103.847 254.392C111.699 254.392 118.065 253.244 118.065 251.828C118.065 251.541 117.799 251.264 117.315 251.006Z" fill="#DD4901"/>
<path d="M127.659 236.382C127.481 236.382 127.329 236.328 127.216 236.271L127.108 236.264C126.978 236.227 126.799 236.133 126.68 235.891C126.362 235.241 126.69 233.69 127.128 232.229C125.822 234.341 124.624 235.504 123.554 235.696C122.97 235.801 122.431 235.624 121.955 235.17C120.914 234.177 120.825 232.06 121.002 230.175C120.183 232.035 118.962 233.955 117.383 234.66C116.424 235.09 115.429 235.03 114.427 234.486C112.727 233.562 112.026 230.438 112.01 227.83C111.219 230.108 109.984 232.697 108.155 232.725H108.121C105.919 232.725 104.747 229.406 104.178 226.911C103.952 228.613 103.369 230.456 102.212 231.512C101.431 232.224 100.485 232.491 99.398 232.304C96.4854 231.801 95.1744 228.241 94.47 226.328C94.4441 226.258 94.4176 226.186 94.3913 226.115C94.4039 226.325 94.4187 226.55 94.4334 226.765C94.6001 229.236 94.6827 231.169 94.121 231.686C93.6654 232.108 93.141 232.206 92.6037 231.971C91.7906 231.615 91.0471 230.53 90.4858 229.36C90.5825 230.38 90.5224 231.317 90.0283 231.831C89.7259 232.146 89.2986 232.266 88.7577 232.188C87.4914 232.006 86.3427 230.58 85.5418 229.312C85.9149 230.923 86.0256 232.554 85.5163 233.265C85.3484 233.499 85.1187 233.622 84.8519 233.622C84.2952 233.622 83.7215 232.655 83.2269 231.468C83.2789 232.675 83.1348 233.942 82.5288 234.872C81.8614 235.897 80.6631 236.479 79.5434 236.315C78.6411 236.185 77.9659 235.583 77.6912 234.662C77.4193 233.751 77.486 232.804 77.5508 231.889C77.6069 231.096 77.6598 230.348 77.5103 229.624C77.4812 229.481 77.5724 229.342 77.7145 229.313C77.858 229.284 77.9963 229.375 78.0255 229.518C78.1892 230.312 78.1312 231.133 78.0752 231.927C78.011 232.835 77.9503 233.693 78.1949 234.511C78.4116 235.238 78.9176 235.694 79.6186 235.795C80.5231 235.926 81.5388 235.429 82.0884 234.585C83.1677 232.928 82.5801 229.914 82.2427 228.586C82.1713 228.338 82.1081 228.112 82.0551 227.914C82.0174 227.776 82.0971 227.634 82.2338 227.593C82.3703 227.554 82.5149 227.629 82.5588 227.765C82.5731 227.809 82.6603 228.082 82.7676 228.505C83.5175 231.059 84.4303 233.096 84.8519 233.096C84.9161 233.096 85.0012 233.08 85.0889 232.959C85.496 232.39 85.4254 230.354 84.6026 227.93C84.3219 227.102 84.2985 227.034 84.5384 226.932C84.7742 226.833 84.8547 226.99 85.0518 227.371C86.4434 230.061 87.7157 231.507 88.8326 231.668C89.2021 231.722 89.468 231.655 89.6491 231.467C90.2818 230.808 89.904 228.778 89.6543 227.434C89.5386 226.812 89.4471 226.32 89.4471 225.999C89.4471 225.854 89.5648 225.736 89.71 225.736C89.8555 225.736 89.973 225.854 89.973 225.999C89.973 226.046 89.9755 226.099 89.9807 226.159C90.095 227.441 91.4478 230.891 92.8146 231.489C93.1588 231.64 93.4615 231.581 93.7642 231.3C94.1857 230.911 93.999 228.135 93.9089 226.8C93.7961 225.125 93.7785 224.866 94.1152 224.822C94.4599 224.777 94.5959 225.149 94.9631 226.146C95.6311 227.96 96.8737 231.335 99.4875 231.785C100.405 231.943 101.203 231.721 101.858 231.124C103.497 229.628 103.881 226.229 103.738 224.438C103.727 224.296 103.831 224.17 103.973 224.156C104.116 224.143 104.243 224.242 104.261 224.384C104.362 225.186 105.332 232.2 108.121 232.2L108.146 232.199C110.243 232.167 111.608 227.487 112.191 225.489C112.246 225.301 112.294 225.134 112.336 224.995C112.379 224.856 112.525 224.777 112.664 224.819C112.803 224.861 112.882 225.008 112.84 225.148C112.147 227.432 112.549 232.867 114.678 234.023C115.54 234.493 116.356 234.544 117.169 234.18C119.611 233.088 121.144 228.633 121.532 226.997L121.534 226.989C121.567 226.847 121.708 226.761 121.85 226.794C121.991 226.827 122.079 226.969 122.046 227.11C121.386 229.903 121.061 233.591 122.318 234.789C122.671 235.126 123.044 235.253 123.461 235.178C124.358 235.018 125.908 233.845 128.197 229.167L128.244 229.072C128.306 228.945 128.456 228.891 128.587 228.948C128.716 229.006 128.776 229.156 128.723 229.287C127.902 231.314 126.749 234.836 127.153 235.659L127.153 235.66C127.206 235.665 127.267 235.686 127.337 235.732C127.479 235.829 127.639 235.904 127.834 235.813C128.191 235.648 129.079 234.715 129.623 229.651C129.639 229.506 129.765 229.4 129.912 229.417C130.057 229.433 130.161 229.562 130.146 229.707C129.719 233.681 129.035 235.834 128.057 236.29C127.914 236.356 127.78 236.382 127.659 236.382Z" fill="white"/>
<path d="M129.885 229.679C129.749 229.679 129.611 229.652 129.478 229.597C101.884 218.013 78.0063 229.454 77.7681 229.57C77.2483 229.827 76.6169 229.613 76.3606 229.091C76.1042 228.57 76.3183 227.94 76.8392 227.684C77.085 227.562 101.784 215.692 130.292 227.658C130.828 227.882 131.08 228.499 130.855 229.034C130.686 229.437 130.295 229.679 129.885 229.679" fill="#DD4901"/>
<path d="M76.8392 227.684L76.7853 227.717C77.078 227.871 77.4444 227.893 77.7681 227.745C78.0063 227.636 101.884 216.989 129.478 227.769C129.611 227.821 129.749 227.846 129.885 227.846C130.066 227.846 130.24 227.795 130.396 227.714L130.292 227.658C101.784 215.692 77.085 227.562 76.8392 227.684" fill="#FF5D0D"/>
<path d="M104.922 277.009C105.103 274.992 105.285 272.975 105.466 270.958C105.502 270.562 105.538 270.163 105.638 269.778C105.638 269.758 107.798 269.654 107.996 269.642C108.203 269.631 108.248 269.613 108.327 269.807C108.397 269.976 108.452 270.151 108.497 270.328C108.587 270.686 108.634 271.052 108.671 271.418C108.884 273.508 108.788 275.617 108.664 277.714C108.642 278.08 108.61 278.471 108.384 278.759C108.235 278.948 107.974 279.076 107.751 278.986C107.51 278.888 107.422 278.596 107.381 278.339C107.24 277.476 107.281 276.595 107.258 275.72C107.23 274.601 107.098 273.488 106.966 272.376C106.71 274.034 106.493 275.697 106.317 277.366C106.268 277.832 106.21 278.328 105.912 278.689C105.756 278.878 105.495 279.022 105.271 278.925C105.121 278.86 105.03 278.705 104.975 278.551C104.824 278.135 104.862 277.677 104.902 277.235C104.908 277.16 104.915 277.084 104.922 277.009" fill="#262628"/>
<path d="M107.647 278.899C107.645 278.901 107.644 278.903 107.642 278.906C107.628 278.937 107.653 278.98 107.658 279.011C107.667 279.061 107.667 279.112 107.663 279.162C107.662 279.179 107.659 279.2 107.681 279.204C107.863 279.242 108.057 279.232 108.234 279.175C108.272 279.163 108.269 279.113 108.268 279.084C108.267 279.044 108.265 279.006 108.268 278.966C108.27 278.94 108.272 278.896 108.24 278.885C108.224 278.88 108.175 278.896 108.157 278.898C108.1 278.903 108.043 278.903 107.986 278.9C107.918 278.898 107.85 278.893 107.782 278.892C107.747 278.891 107.712 278.892 107.677 278.894C107.662 278.895 107.653 278.893 107.647 278.899" fill="#565A5B"/>
<path d="M108.239 279.15C108.248 279.153 108.256 279.157 108.264 279.164C108.282 279.179 108.292 279.201 108.301 279.222C108.335 279.299 108.357 279.371 108.405 279.442C108.476 279.548 108.564 279.674 108.672 279.746C108.712 279.773 108.758 279.793 108.796 279.824C108.835 279.854 108.866 279.899 108.864 279.948C108.863 279.962 108.859 279.978 108.849 279.989C108.84 280 108.826 280.006 108.813 280.011C108.691 280.059 108.556 280.091 108.43 280.055C108.334 280.028 108.244 279.968 108.16 279.915C108.019 279.829 107.896 279.709 107.748 279.634C107.711 279.615 107.671 279.599 107.639 279.571C107.584 279.52 107.568 279.439 107.578 279.365C107.586 279.31 107.608 279.227 107.644 279.182C107.671 279.149 107.728 279.165 107.762 279.172C107.811 279.181 107.857 279.177 107.907 279.175C107.979 279.171 108.051 279.168 108.121 279.154C108.16 279.146 108.203 279.137 108.239 279.15" fill="#F8A018"/>
<path d="M105.314 278.843C105.251 278.834 105.191 278.819 105.129 278.807C105.118 278.805 105.104 278.805 105.095 278.813C105.073 278.833 105.078 278.865 105.076 278.892C105.069 278.998 105.032 279.1 105.03 279.206C105.029 279.211 105.03 279.217 105.033 279.221C105.036 279.225 105.042 279.227 105.047 279.228C105.145 279.254 105.245 279.275 105.345 279.291C105.418 279.303 105.492 279.312 105.566 279.307C105.589 279.305 105.615 279.301 105.631 279.283C105.645 279.266 105.646 279.243 105.647 279.221C105.651 279.146 105.674 279.072 105.702 279.003C105.713 278.974 105.774 278.87 105.723 278.848C105.692 278.835 105.652 278.852 105.62 278.855C105.573 278.858 105.524 278.857 105.476 278.856C105.422 278.854 105.368 278.85 105.314 278.843Z" fill="#565A5B"/>
<path d="M105.052 279.157C105.043 279.159 105.034 279.163 105.026 279.169C105.007 279.182 104.995 279.203 104.984 279.224C104.945 279.298 104.916 279.368 104.863 279.435C104.784 279.535 104.686 279.653 104.573 279.716C104.53 279.74 104.483 279.757 104.443 279.784C104.402 279.811 104.367 279.853 104.365 279.902C104.365 279.917 104.368 279.932 104.377 279.944C104.385 279.956 104.399 279.963 104.411 279.969C104.528 280.027 104.661 280.069 104.789 280.043C104.887 280.024 104.981 279.971 105.069 279.926C105.217 279.851 105.349 279.742 105.502 279.679C105.541 279.663 105.583 279.65 105.616 279.624C105.675 279.578 105.698 279.498 105.693 279.424C105.69 279.368 105.675 279.284 105.643 279.237C105.619 279.201 105.56 279.213 105.525 279.217C105.476 279.222 105.43 279.215 105.381 279.208C105.31 279.199 105.238 279.19 105.169 279.17C105.131 279.16 105.088 279.147 105.052 279.157" fill="#F8A018"/>
<path d="M105.483 270.855C105.479 270.834 105.472 270.813 105.456 270.799C105.438 270.783 105.413 270.779 105.389 270.776C105.334 270.769 105.28 270.762 105.225 270.756C105.208 270.753 105.189 270.751 105.173 270.757C105.137 270.77 105.124 270.814 105.116 270.852C105.083 271.014 105.05 271.177 105.016 271.339C105.002 271.411 104.982 271.483 104.989 271.557C104.997 271.633 105.025 271.705 105.059 271.772C105.132 271.912 105.235 272.037 105.36 272.134C105.372 272.142 105.387 272.151 105.399 272.144C105.414 272.136 105.41 272.112 105.403 272.096C105.366 272.012 105.311 271.937 105.273 271.852C105.21 271.711 105.201 271.552 105.193 271.397C105.193 271.386 105.192 271.374 105.198 271.365C105.204 271.355 105.219 271.351 105.227 271.359C105.23 271.363 105.231 271.369 105.232 271.374C105.253 271.522 105.238 271.684 105.319 271.81C105.33 271.826 105.348 271.844 105.366 271.837C105.374 271.834 105.379 271.826 105.383 271.819C105.398 271.791 105.399 271.758 105.401 271.727C105.418 271.438 105.531 271.153 105.485 270.867C105.485 270.863 105.484 270.859 105.483 270.855" fill="#7C4117"/>
<path d="M104.869 267.53C104.832 267.439 104.807 267.342 104.803 267.234C104.793 266.985 104.852 266.736 104.939 266.502C104.855 266.239 104.845 265.959 104.972 265.699C105.069 265.501 105.264 265.314 105.475 265.242C105.614 265.194 105.793 265.244 105.869 265.377C105.93 265.486 105.853 265.571 105.826 265.674C105.794 265.795 105.877 265.909 105.877 266.033C105.943 266.329 105.973 266.62 105.941 266.916C105.985 267.284 105.938 267.64 105.77 268.024C105.889 268.464 105.917 268.929 105.754 269.36C105.779 269.424 105.807 269.487 105.819 269.553C105.858 269.765 105.857 269.986 105.811 270.196C105.761 270.429 105.644 270.582 105.532 270.782C105.532 270.782 105.163 270.784 105.163 270.784C105.159 270.784 105.066 270.649 105.052 270.631C105.002 270.569 104.964 270.509 104.934 270.434C104.861 270.247 104.745 270.077 104.699 269.88C104.622 269.548 104.693 269.212 104.786 268.891C104.726 268.762 104.682 268.625 104.666 268.467C104.633 268.136 104.707 267.814 104.869 267.53" fill="#030C43"/>
<path d="M105.359 270.577C105.227 270.579 105.094 270.567 104.972 270.528C104.968 270.527 104.964 270.525 104.959 270.526C104.943 270.527 104.942 270.546 104.945 270.56C104.956 270.606 104.965 270.653 104.968 270.7C104.97 270.743 104.961 270.801 104.986 270.841C105.026 270.906 105.145 270.91 105.22 270.917C105.327 270.925 105.435 270.917 105.538 270.892C105.566 270.885 105.59 270.875 105.599 270.851C105.604 270.838 105.605 270.825 105.606 270.812C105.611 270.764 105.621 270.717 105.637 270.671C105.647 270.643 105.665 270.617 105.67 270.587C105.68 270.532 105.628 270.553 105.584 270.559C105.511 270.569 105.435 270.575 105.359 270.577" fill="#03279F"/>
<path d="M105.478 269.033C105.229 268.609 105.199 268.026 105.483 267.621C105.484 267.617 105.485 267.613 105.486 267.609C105.189 267.304 105.219 266.628 105.33 266.285C105.331 266.283 105.332 266.282 105.332 266.28C105.225 266.097 105.166 265.908 105.171 265.665C105.18 265.275 105.466 265.156 105.766 264.992C105.811 264.967 106.189 264.76 106.198 264.783C106.262 264.955 106.331 265.11 106.474 265.233C106.61 265.349 106.784 265.41 106.963 265.396C107.228 265.376 107.437 265.17 107.575 264.958C107.651 264.841 107.691 264.73 107.71 264.617C107.714 264.595 107.987 264.636 108.015 264.64C108.206 264.666 108.377 264.739 108.551 264.819C108.668 264.874 108.804 264.923 108.869 265.041C108.94 265.168 108.945 265.324 108.936 265.465C108.919 265.717 108.753 265.872 108.629 266.064C108.717 266.353 108.752 266.655 108.681 266.953C108.644 267.106 108.577 267.244 108.493 267.372C108.635 267.524 108.721 267.72 108.733 267.939C108.749 268.205 108.651 268.438 108.511 268.651C108.524 268.631 108.659 268.978 108.663 268.995C108.71 269.166 108.782 269.406 108.702 269.576C108.672 269.762 108.467 269.882 108.309 269.955C107.972 270.112 107.601 270.215 107.246 270.325C106.749 270.48 106.14 270.65 105.626 270.467C105.232 270.327 105.153 269.895 105.245 269.528C105.29 269.348 105.374 269.184 105.478 269.033" fill="#03279F"/>
<path d="M106.277 262.276C106.281 262.302 106.28 262.33 106.266 262.353C106.251 262.36 106.236 262.368 106.225 262.378C106.161 262.432 106.109 262.485 106.077 262.562C106.054 262.618 106.045 262.671 106.045 262.724C105.993 262.65 105.929 262.561 105.928 262.467C105.928 262.362 105.972 262.254 106.042 262.172C106.057 262.154 106.074 262.137 106.091 262.122C106.113 262.103 106.171 262.049 106.202 262.07C106.226 262.087 106.241 262.144 106.25 262.17C106.263 262.204 106.272 262.24 106.277 262.276" fill="#1B1C1F"/>
<path d="M106.311 264.668C106.427 264.452 106.483 264.212 106.497 263.974C106.498 263.954 106.496 263.832 106.497 263.707C106.531 263.721 106.57 263.729 106.615 263.73C106.813 263.732 107.016 263.619 107.195 263.552C107.251 263.531 107.306 263.509 107.359 263.485C107.357 263.557 107.355 263.63 107.358 263.702C107.363 263.853 107.381 264.006 107.424 264.153C107.508 264.44 107.737 264.735 108.055 264.849C108.01 264.833 107.796 265.237 107.769 265.279C107.651 265.46 107.417 265.595 107.19 265.648C107.041 265.683 106.882 265.676 106.733 265.641C106.38 265.558 106.08 265.314 105.956 265.009C106.105 264.918 106.23 264.817 106.311 264.668" fill="#9C4824"/>
<path d="M105.982 262.948C105.97 262.905 105.954 262.86 105.957 262.814C105.959 262.763 105.993 262.715 106.015 262.67C106.057 262.581 106.098 262.492 106.149 262.409C106.187 262.347 106.228 262.29 106.259 262.228C106.493 262.048 106.825 261.897 107.119 262.004C107.441 262.122 107.621 262.432 107.606 262.755C107.732 262.774 107.841 262.871 107.874 262.998C107.942 263.257 107.719 263.454 107.531 263.584C107.517 263.594 107.503 263.601 107.487 263.607C107.472 263.639 107.465 263.674 107.457 263.71C107.42 263.866 107.236 263.963 107.103 264.025C107.097 264.028 107.092 264.03 107.086 264.033C106.935 264.103 106.772 264.163 106.607 264.187C106.382 264.22 106.239 264.115 106.158 263.91C106.11 263.788 106.07 263.661 106.035 263.534C106.034 263.531 106.033 263.53 106.033 263.529C106.013 263.463 105.996 263.396 105.991 263.328C105.985 263.258 106.011 263.209 106.02 263.141C106.025 263.094 106.022 263.045 106.002 263.001C105.994 262.983 105.987 262.966 105.982 262.948" fill="#7C4117"/>
<path d="M106.167 261.858C106.18 261.843 106.196 261.83 106.215 261.826C106.244 261.82 106.272 261.836 106.293 261.855C106.314 261.874 106.331 261.898 106.353 261.916C106.408 261.96 106.465 261.947 106.524 261.926C106.604 261.899 106.685 261.873 106.768 261.855C106.917 261.822 107.073 261.822 107.224 261.834C107.388 261.848 107.617 261.895 107.721 262.037C107.74 262.063 107.756 262.092 107.765 262.123C107.772 262.152 107.762 262.189 107.773 262.217C107.785 262.247 107.839 262.258 107.869 262.282C107.951 262.345 108.006 262.44 108.033 262.539C108.068 262.671 108.059 262.811 108.042 262.946C108.006 263.22 107.873 263.508 107.674 263.702C107.607 263.767 107.531 263.823 107.449 263.869C107.431 263.879 107.413 263.889 107.394 263.898C107.383 263.903 107.35 263.931 107.338 263.916C107.335 263.913 107.334 263.909 107.334 263.904C107.327 263.86 107.356 263.83 107.381 263.797C107.412 263.757 107.442 263.717 107.454 263.667C107.47 263.599 107.479 263.543 107.541 263.504C107.611 263.46 107.66 263.401 107.703 263.331C107.733 263.283 107.761 263.229 107.775 263.174C107.788 263.123 107.792 263.054 107.775 263.002C107.749 262.927 107.666 262.896 107.593 262.912C107.485 262.936 107.403 263.04 107.391 263.147C107.39 263.161 107.386 263.18 107.372 263.181C107.366 263.182 107.361 263.18 107.356 263.177C107.281 263.138 107.256 263.017 107.25 262.941C107.247 262.898 107.253 262.853 107.274 262.815C107.295 262.776 107.331 262.743 107.345 262.7C107.366 262.635 107.338 262.559 107.286 262.511C107.236 262.463 107.168 262.439 107.099 262.426C106.944 262.396 106.786 262.437 106.632 262.466C106.609 262.47 106.586 262.474 106.562 262.478C106.434 262.498 106.291 262.505 106.195 262.41C106.124 262.34 106.092 262.238 106.086 262.14C106.08 262.05 106.105 261.926 106.167 261.858" fill="#1B1C1F"/>
<path d="M108.119 269.107C108.12 269.188 108.121 269.274 108.08 269.344C108.002 269.476 107.82 269.491 107.667 269.491C107.473 269.491 107.268 269.488 107.105 269.383C106.81 269.194 106.79 268.773 106.842 268.427C106.935 267.808 107.154 267.208 107.18 266.583C107.196 266.201 107.14 265.813 107.225 265.441C107.277 265.208 107.546 264.655 107.863 264.696C108.148 264.733 108.039 265.692 108.046 265.965C108.076 267.012 108.1 268.06 108.119 269.107" fill="#FE1010"/>
<path d="M106.718 266.845C106.708 267.041 106.673 267.257 106.519 267.377C106.404 267.468 106.248 267.483 106.102 267.487C106.003 267.489 105.895 267.485 105.82 267.421C105.739 267.353 105.72 267.239 105.71 267.134C105.651 266.522 105.725 265.904 105.864 265.306C105.897 265.164 105.955 265.001 106.094 264.962C106.235 264.921 106.377 265.038 106.44 265.171C106.686 265.68 106.747 266.287 106.718 266.845" fill="#FE1010"/>
<path d="M106.427 264.249C106.432 264.246 106.437 264.244 106.442 264.243C106.459 264.24 106.474 264.251 106.487 264.261C106.534 264.295 106.649 264.276 106.706 264.275C106.785 264.272 106.864 264.265 106.943 264.252C107.097 264.228 107.248 264.182 107.387 264.111C107.396 264.107 107.406 264.102 107.416 264.102C107.432 264.102 107.446 264.114 107.457 264.126C107.577 264.249 107.714 264.469 107.618 264.643C107.57 264.728 107.477 264.769 107.39 264.801C107.202 264.871 107.005 264.92 106.805 264.941C106.7 264.952 106.592 264.955 106.49 264.93C106.385 264.905 106.273 264.846 106.22 264.746C106.153 264.623 106.221 264.478 106.296 264.375C106.317 264.332 106.377 264.295 106.411 264.263C106.416 264.258 106.421 264.253 106.427 264.249" fill="#FE1010"/>
<path d="M105.798 264.953C105.792 264.928 105.795 264.903 105.81 264.878C105.827 264.851 105.858 264.836 105.887 264.822C105.979 264.779 106.02 264.745 106.066 264.654C106.087 264.615 106.101 264.527 106.16 264.524C106.188 264.522 106.212 264.551 106.238 264.56C106.576 264.686 106.965 264.642 107.307 264.552C107.42 264.523 107.563 264.479 107.628 264.378C107.638 264.362 107.648 264.343 107.666 264.336C107.706 264.319 107.74 264.364 107.757 264.394C107.775 264.427 107.789 264.445 107.821 264.468C107.893 264.519 107.972 264.559 108.056 264.586C108.09 264.598 108.128 264.609 108.148 264.639C108.175 264.682 108.151 264.74 108.12 264.78C108.082 264.832 108.024 264.868 107.978 264.913C107.863 265.027 107.779 265.174 107.641 265.265C107.471 265.377 107.261 265.433 107.061 265.472C106.847 265.514 106.623 265.488 106.418 265.415C106.295 265.371 106.177 265.311 106.069 265.235C105.978 265.17 105.826 265.069 105.798 264.953" fill="#770808"/>
<path d="M107.814 270.232C107.861 270.321 107.973 270.443 107.994 270.466C108.078 270.555 108.172 270.632 108.277 270.694C108.281 270.673 108.285 270.653 108.289 270.635C108.296 270.6 108.301 270.569 108.304 270.55C108.305 270.546 108.305 270.542 108.306 270.54C108.308 270.534 108.309 270.527 108.311 270.52C108.326 270.456 108.347 270.393 108.382 270.338C108.389 270.326 108.395 270.318 108.403 270.309C108.412 270.3 108.422 270.292 108.434 270.285C108.445 270.277 108.48 270.266 108.481 270.25C108.481 270.241 108.477 270.233 108.472 270.226C108.401 270.11 108.333 269.991 108.227 269.902C108.216 269.891 108.203 269.881 108.188 269.878C108.107 269.856 108.059 269.9 108.024 269.963C108 270.005 107.981 270.055 107.959 270.099C107.945 270.13 107.928 270.158 107.908 270.176C107.903 270.181 107.898 270.185 107.892 270.189C107.869 270.208 107.841 270.22 107.814 270.232" fill="#7C4117"/>
<path d="M107.802 270.208C107.805 270.215 107.809 270.223 107.814 270.232C107.861 270.321 107.973 270.443 107.994 270.466C108.078 270.555 108.172 270.632 108.276 270.694C108.292 270.705 108.309 270.714 108.326 270.723C108.332 270.727 108.338 270.731 108.344 270.734C108.356 270.74 108.367 270.748 108.379 270.754C108.398 270.765 108.454 270.81 108.465 270.769C108.473 270.739 108.481 270.706 108.481 270.673C108.481 270.644 108.466 270.632 108.441 270.617C108.414 270.6 108.389 270.584 108.366 270.565C108.348 270.551 108.33 270.538 108.314 270.523C108.313 270.522 108.312 270.521 108.311 270.52C108.26 270.476 108.214 270.427 108.166 270.376C108.092 270.298 108.019 270.214 107.969 270.119C107.966 270.112 107.962 270.105 107.959 270.099C107.954 270.088 107.949 270.077 107.945 270.065C107.894 270.087 107.847 270.112 107.802 270.144C107.786 270.155 107.788 270.178 107.802 270.208" fill="#BDC4C2"/>
<path d="M108.259 269.395C108.275 269.35 108.295 269.306 108.315 269.264C108.36 269.167 108.417 269.075 108.49 268.997C108.554 268.928 108.625 268.886 108.703 268.837C108.738 268.632 108.829 268.461 108.966 268.296C109.033 268.217 109.105 268.142 109.186 268.078C109.492 267.834 109.034 267.695 108.877 267.567C108.585 267.327 108.417 266.937 108.479 266.561C108.236 266.16 108.272 265.479 108.601 265.176C108.828 264.967 109.037 265.021 109.206 265.182C109.375 265.307 109.494 265.488 109.57 265.689C109.631 265.804 109.673 265.928 109.699 266.059C109.837 266.161 109.965 266.277 110.052 266.428C110.165 266.623 110.179 266.866 110.17 267.086C110.17 267.102 110.169 267.119 110.173 267.135C110.187 267.195 110.269 267.241 110.31 267.285C110.369 267.347 110.424 267.414 110.47 267.486C110.56 267.627 110.618 267.787 110.623 267.955C110.63 268.193 110.509 268.4 110.325 268.516C110.259 268.903 109.979 269.178 109.618 269.27C109.602 269.442 109.551 269.61 109.447 269.751C109.299 269.95 109.07 270.043 108.843 270.122C108.798 270.138 108.756 270.14 108.719 270.133C108.647 270.154 108.565 270.139 108.497 270.065C108.422 269.984 108.355 269.895 108.305 269.796C108.27 269.727 108.233 269.656 108.228 269.577C108.224 269.516 108.238 269.454 108.259 269.395" fill="#030C43"/>
<path d="M108.558 269.901C108.432 269.795 108.317 269.674 108.235 269.538C108.232 269.534 108.229 269.529 108.225 269.526C108.208 269.513 108.191 269.531 108.183 269.546C108.156 269.598 108.125 269.65 108.09 269.696C108.056 269.739 108 269.786 107.991 269.844C107.975 269.938 108.083 270.04 108.149 270.107C108.242 270.203 108.35 270.284 108.468 270.345C108.499 270.361 108.53 270.371 108.559 270.356C108.574 270.348 108.585 270.337 108.597 270.325C108.641 270.284 108.689 270.249 108.742 270.219C108.774 270.2 108.813 270.191 108.842 270.167C108.897 270.122 108.83 270.1 108.784 270.07C108.707 270.018 108.631 269.962 108.558 269.901" fill="#03279F"/>
<path d="M100.89 266.298C100.894 266.289 100.898 266.279 100.902 266.27C101.03 265.995 101.295 265.786 101.533 265.612C101.98 265.283 102.194 264.841 102.398 264.342C102.57 263.921 102.788 263.487 103.254 263.342C103.263 263.339 103.273 263.336 103.283 263.334C103.538 263.262 103.842 263.284 104.071 263.422C104.28 263.547 104.346 263.749 104.353 263.982C104.362 264.286 104.383 264.59 104.453 264.886C104.509 265.124 104.595 265.359 104.73 265.563C104.874 265.782 105.07 265.915 105.294 266.042C105.454 266.132 105.611 266.238 105.689 266.41C105.775 266.602 105.771 266.824 105.729 267.026C105.654 267.382 105.382 267.746 105.112 267.982C104.262 268.727 102.825 268.733 101.902 268.126C101.876 268.109 101.851 268.091 101.826 268.073C101.495 267.838 101.176 267.501 100.988 267.14C100.861 266.896 100.782 266.565 100.89 266.298" fill="#320600"/>
<path d="M99.6224 270.883C99.6338 271.014 99.7731 271.193 99.897 271.052C99.9248 271.02 99.9444 270.983 99.9733 270.953C100.07 270.85 100.227 270.859 100.347 270.798C100.452 270.743 100.542 270.664 100.625 270.58C100.638 270.567 100.65 270.552 100.664 270.539C100.709 270.492 100.752 270.443 100.797 270.395C101.219 269.947 101.761 269.606 102.103 269.094C102.368 268.699 102.492 268.228 102.608 267.767C102.693 267.429 102.774 267.09 102.825 266.744C102.841 266.633 102.855 266.518 102.831 266.408C102.809 266.31 102.755 266.214 102.67 266.162C102.66 266.156 102.649 266.15 102.637 266.145C102.393 266.039 102.214 266.338 102.134 266.516C102.02 266.773 101.978 267.055 101.939 267.329C101.889 267.69 101.837 268.05 101.787 268.41C101.773 268.502 101.759 268.598 101.708 268.676C101.662 268.746 101.59 268.796 101.524 268.849C101.116 269.174 100.881 269.664 100.568 270.082C100.518 270.148 100.465 270.213 100.404 270.269C100.351 270.319 100.292 270.362 100.226 270.391C100.117 270.441 99.995 270.452 99.8856 270.5C99.7246 270.569 99.6071 270.699 99.6224 270.883" fill="#FA5A4C"/>
<path d="M100.404 270.269C100.475 270.37 100.546 270.481 100.625 270.58C100.638 270.567 100.65 270.552 100.664 270.539C100.709 270.492 100.752 270.443 100.797 270.395C101.219 269.947 101.761 269.606 102.103 269.094C102.368 268.699 102.493 268.228 102.608 267.767C102.693 267.429 102.774 267.09 102.825 266.744C102.841 266.633 102.855 266.518 102.831 266.408C102.809 266.31 102.755 266.214 102.67 266.162C102.66 266.156 102.649 266.15 102.637 266.145C102.393 266.039 102.214 266.338 102.134 266.516C102.02 266.773 101.978 267.055 101.939 267.329C101.889 267.69 101.837 268.05 101.787 268.41C101.773 268.502 101.759 268.598 101.708 268.676C101.662 268.746 101.59 268.796 101.524 268.849C101.116 269.174 100.881 269.664 100.568 270.082C100.518 270.148 100.465 270.213 100.404 270.269" fill="#DBDCDE"/>
<path d="M104.057 265.651C104.047 265.639 104.037 265.627 104.024 265.618C103.978 265.586 103.916 265.605 103.861 265.616C103.804 265.626 103.745 265.627 103.687 265.627C103.584 265.627 103.48 265.627 103.377 265.627C103.275 265.627 103.178 265.637 103.081 265.603C103.064 265.597 103.046 265.59 103.028 265.591C103 265.594 102.962 265.617 102.938 265.632C102.899 265.658 102.864 265.695 102.831 265.728C102.812 265.747 102.793 265.768 102.788 265.794C102.783 265.825 102.799 265.856 102.817 265.882C102.851 265.934 102.892 265.981 102.937 266.024C102.981 266.066 103.03 266.104 103.084 266.133C103.148 266.168 103.219 266.191 103.29 266.207C103.407 266.233 103.528 266.242 103.648 266.233C103.743 266.226 103.84 266.207 103.919 266.153C103.967 266.119 104.006 266.073 104.043 266.028C104.091 265.971 104.154 265.901 104.17 265.826C104.183 265.764 104.094 265.695 104.057 265.651" fill="#EF3434"/>
<path d="M102.685 280.325C102.69 280.336 102.697 280.345 102.705 280.354H103.001C103.023 280.344 103.046 280.33 103.057 280.309C103.073 280.278 103.063 280.239 103.052 280.207C103.011 280.079 102.974 279.95 102.956 279.816C102.951 279.778 102.948 279.739 102.947 279.701C102.943 279.612 102.945 279.523 102.948 279.436H102.724C102.725 279.521 102.724 279.606 102.72 279.692C102.715 279.863 102.701 280.034 102.679 280.204C102.673 280.245 102.668 280.287 102.685 280.325" fill="#E56E98"/>
<path d="M103.843 280.32C103.852 280.336 103.865 280.346 103.881 280.354H104.195C104.203 280.345 104.21 280.333 104.215 280.321C104.231 280.284 104.224 280.241 104.216 280.2C104.187 280.035 104.168 279.868 104.155 279.701C104.148 279.613 104.143 279.525 104.141 279.438H103.917C103.923 279.527 103.929 279.617 103.929 279.707C103.929 279.746 103.927 279.785 103.924 279.825C103.912 279.958 103.88 280.089 103.844 280.218C103.834 280.252 103.825 280.289 103.843 280.32" fill="#E56E98"/>
<path d="M103.067 265.724C103.23 265.47 103.154 265.164 103.12 264.882C103.128 264.883 103.136 264.884 103.141 264.884L103.708 264.887C103.72 264.887 103.83 264.877 103.837 264.888C103.871 264.948 103.86 265.022 103.857 265.099C103.854 265.221 103.844 265.339 103.857 265.451C103.872 265.566 103.933 265.662 103.995 265.757C104.066 265.864 104.136 265.968 104.215 266.07C104.26 266.305 104.042 266.614 103.899 266.774C103.731 266.962 103.484 267.06 103.238 267.021C102.963 266.979 102.788 266.775 102.708 266.503C102.675 266.391 102.657 266.275 102.647 266.158C102.643 266.107 102.634 266.054 102.632 266.002C102.805 265.96 102.968 265.878 103.067 265.724" fill="#C5351D"/>
<path d="M104.297 263.922C104.257 263.825 104.191 263.727 104.123 263.647C103.985 263.487 103.765 263.442 103.564 263.494C103.37 263.545 103.198 263.679 103.09 263.847C103.038 263.928 103.009 264.027 102.995 264.122C102.99 264.156 102.986 264.192 102.986 264.228C102.986 264.258 102.999 264.303 102.985 264.331C102.987 264.328 102.941 264.314 102.937 264.313C102.918 264.31 102.898 264.311 102.88 264.317C102.846 264.328 102.822 264.355 102.808 264.387C102.788 264.434 102.78 264.496 102.789 264.547C102.81 264.669 102.889 264.784 102.986 264.861C103.042 264.906 103.107 264.94 103.174 264.965C103.176 264.967 103.177 264.969 103.178 264.97C103.28 265.109 103.427 265.21 103.585 265.277C103.707 265.329 103.892 265.399 104.023 265.343C104.132 265.295 104.195 265.147 104.245 265.046C104.303 264.929 104.347 264.805 104.372 264.677C104.422 264.424 104.396 264.161 104.297 263.922Z" fill="#FA5A4C"/>
<path d="M102.476 275.038C102.494 274.159 102.204 273.316 102.04 272.462C101.959 272.041 101.895 271.595 101.943 271.166C102.02 270.492 102.333 269.886 102.474 269.23C102.509 269.071 102.571 268.773 102.782 268.767C103.1 268.759 103.419 268.751 103.737 268.743C103.896 268.739 104.085 268.689 104.195 268.831C104.196 268.833 104.198 268.835 104.199 268.837C104.332 269.016 104.349 269.269 104.411 269.478C104.542 269.926 104.721 270.355 104.806 270.817C104.917 271.416 104.92 272.036 104.801 272.635C104.643 273.435 104.376 274.21 104.393 275.038C104.401 275.397 104.46 275.753 104.491 276.112C104.594 277.295 104.387 278.481 104.181 279.653C104.088 279.655 103.995 279.658 103.902 279.66C103.833 276.878 103.677 274.097 103.435 271.322C103.193 274.097 103.036 276.878 102.967 279.66C102.874 279.658 102.781 279.655 102.689 279.653C102.483 278.481 102.276 277.295 102.378 276.112C102.41 275.753 102.469 275.397 102.476 275.038" fill="#1C1D1A"/>
<path d="M100.569 270.327C100.535 270.279 100.504 270.228 100.468 270.182C100.467 270.18 100.465 270.178 100.463 270.178C100.461 270.178 100.459 270.179 100.458 270.181C100.442 270.196 100.43 270.214 100.415 270.23C100.382 270.264 100.337 270.284 100.299 270.313C100.289 270.321 100.278 270.333 100.28 270.345C100.281 270.351 100.284 270.355 100.287 270.36C100.362 270.479 100.452 270.588 100.556 270.683C100.559 270.685 100.562 270.688 100.565 270.688C100.569 270.688 100.572 270.686 100.575 270.683C100.624 270.643 100.668 270.597 100.707 270.548C100.736 270.511 100.68 270.471 100.657 270.443C100.627 270.405 100.597 270.367 100.569 270.327" fill="#D6DAD7"/>
<path d="M102.744 263.79C102.809 263.606 102.97 263.471 103.146 263.387C103.36 263.286 103.611 263.249 103.835 263.324C103.932 263.356 104.022 263.407 104.103 263.469C104.14 263.497 104.177 263.527 104.203 263.566C104.246 263.63 104.258 263.741 104.23 263.82C104.23 263.821 104.23 263.822 104.229 263.823C104.194 263.95 104.074 264.073 103.987 264.17C103.809 264.367 103.472 264.534 103.204 264.506C103.145 264.5 103.09 264.478 103.045 264.445C103.042 264.443 103.039 264.441 103.036 264.438C102.998 264.407 102.97 264.367 102.956 264.317C102.954 264.316 102.953 264.315 102.95 264.314C102.903 264.298 102.849 264.328 102.823 264.37C102.796 264.413 102.789 264.464 102.783 264.514C102.765 264.393 102.734 264.274 102.719 264.153C102.703 264.032 102.703 263.906 102.744 263.79Z" fill="#320600"/>
<path d="M101.8 270.704C101.91 270.136 102.135 269.596 102.277 269.034C102.501 268.146 102.514 267.217 102.453 266.303C102.447 266.219 102.442 266.129 102.482 266.055C102.523 265.981 102.627 265.936 102.694 265.987C102.731 266.015 102.746 266.062 102.76 266.107C102.816 266.293 102.879 266.481 102.993 266.638C103.108 266.795 103.282 266.92 103.477 266.929C103.661 266.937 103.84 266.839 103.959 266.698C104.078 266.556 104.143 266.376 104.175 266.194C104.192 266.103 104.247 265.964 104.367 266.039C104.456 266.095 104.425 266.248 104.412 266.334C104.291 267.101 104.389 267.886 104.545 268.646C104.701 269.407 104.913 270.156 105.023 270.925C105.044 271.07 105.052 271.242 104.941 271.338C104.828 271.436 104.655 271.4 104.51 271.358C104.139 271.251 103.767 271.143 103.396 271.036C102.996 270.92 102.55 270.808 102.179 270.996C102.081 271.046 101.968 271.116 101.871 271.065C101.769 271.01 101.77 270.865 101.791 270.75C101.794 270.735 101.797 270.72 101.8 270.704" fill="#DBDCDE"/>
<path d="M103.378 267.363C103.397 267.514 103.429 267.661 103.469 267.81C103.489 267.886 103.485 267.949 103.404 267.976C103.271 268.021 103.142 268.081 103.022 268.156C102.969 268.189 102.91 268.226 102.849 268.212C102.807 268.203 102.774 268.169 102.754 268.131C102.735 268.093 102.727 268.05 102.72 268.008C102.677 267.736 102.673 267.459 102.697 267.186C102.721 266.914 102.761 266.64 102.806 266.371C102.81 266.343 102.815 266.315 102.82 266.287C102.82 266.288 103.301 266.345 103.332 266.412C103.348 266.446 103.341 266.497 103.342 266.533C103.35 266.745 103.348 266.962 103.36 267.175C103.364 267.239 103.37 267.301 103.378 267.363" fill="#770808"/>
<path d="M102.55 265.795C102.556 265.789 102.561 265.783 102.567 265.777C102.664 265.68 102.781 265.626 102.914 265.597C102.945 265.59 103.029 265.556 103.054 265.584C103.063 265.594 103.064 265.608 103.064 265.622C103.067 265.672 103.069 265.721 103.105 265.762C103.139 265.801 103.185 265.834 103.231 265.858C103.351 265.921 103.505 265.945 103.638 265.916C103.727 265.896 103.829 265.845 103.886 265.772C103.943 265.7 103.982 265.524 104.099 265.635C104.19 265.722 104.278 265.812 104.347 265.916C104.363 265.94 104.378 265.966 104.38 265.994C104.383 266.054 104.335 266.121 104.303 266.168C104.168 266.365 103.942 266.486 103.71 266.527C103.343 266.593 102.873 266.491 102.631 266.183C102.589 266.13 102.554 266.065 102.526 266.002C102.491 265.923 102.499 265.856 102.55 265.795" fill="#FE1010"/>
<path d="M104.668 270.17C104.694 270.117 104.719 270.065 104.741 270.011C104.665 269.976 104.583 269.967 104.493 269.996C104.423 270.017 104.358 270.054 104.298 270.093C104.231 270.137 104.167 270.185 104.106 270.235C104.081 270.257 104.056 270.279 104.046 270.311C104.037 270.335 104.041 270.368 104.064 270.381C104.081 270.392 104.103 270.388 104.123 270.382C104.168 270.369 104.204 270.323 104.25 270.322C104.257 270.321 104.266 270.324 104.27 270.33C104.275 270.337 104.272 270.347 104.269 270.354C104.257 270.378 104.234 270.393 104.212 270.408C104.154 270.446 104.095 270.483 104.033 270.514C103.98 270.54 103.926 270.567 103.866 270.554C103.835 270.547 103.805 270.534 103.774 270.525C103.767 270.523 103.76 270.521 103.753 270.522C103.72 270.53 103.731 270.567 103.747 270.584C103.758 270.596 103.773 270.604 103.788 270.611C103.873 270.651 103.968 270.662 104.061 270.673C104.099 270.678 104.137 270.682 104.175 270.685C104.197 270.687 104.225 270.688 104.247 270.68C104.271 270.67 104.295 270.648 104.317 270.633C104.373 270.593 104.425 270.548 104.48 270.506C104.498 270.492 104.515 270.477 104.532 270.463L104.532 270.466C104.533 270.465 104.535 270.464 104.536 270.463C104.537 270.461 104.537 270.46 104.538 270.458C104.559 270.441 104.58 270.424 104.6 270.406C104.638 270.372 104.671 270.333 104.707 270.295C104.715 270.287 104.724 270.277 104.728 270.266C104.736 270.242 104.72 270.216 104.703 270.198C104.693 270.187 104.68 270.179 104.668 270.17Z" fill="#FA5A4C"/>
<path d="M105.804 268.472C105.46 267.894 105.116 267.316 104.773 266.738C104.671 266.565 104.562 266.388 104.424 266.246C104.421 266.278 104.416 266.309 104.411 266.334C104.346 266.746 104.345 267.164 104.383 267.582C104.517 267.782 104.682 267.964 104.837 268.136C104.869 268.171 105.197 268.521 105.197 268.536C104.946 268.864 104.978 269.31 104.772 269.656C104.745 269.702 104.713 269.748 104.675 269.79C104.667 269.798 104.661 269.806 104.654 269.817C104.626 269.855 104.595 269.902 104.559 269.931C104.549 269.939 104.538 269.946 104.527 269.95C104.526 269.95 104.526 269.95 104.525 269.951C104.56 270.025 104.642 270.089 104.695 270.139C104.723 270.165 104.749 270.193 104.773 270.222C104.793 270.213 104.815 270.206 104.831 270.197C104.85 270.188 104.869 270.178 104.886 270.166C104.898 270.159 104.909 270.152 104.919 270.144C104.939 270.13 104.958 270.116 104.977 270.101C105.066 270.032 105.145 269.953 105.224 269.872C105.393 269.7 105.535 269.501 105.64 269.282C105.732 269.089 105.927 268.68 105.804 268.472" fill="#E56E98"/>
<path d="M104.837 268.135C104.869 268.17 105.197 268.521 105.197 268.536C104.946 268.864 104.978 269.31 104.772 269.655C104.745 269.702 104.713 269.747 104.675 269.79C104.667 269.798 104.661 269.806 104.654 269.816C104.626 269.855 104.595 269.902 104.559 269.931C104.636 270.013 104.699 270.105 104.754 270.203C104.758 270.211 104.762 270.218 104.768 270.224C104.789 270.214 104.813 270.207 104.831 270.197C104.85 270.188 104.869 270.178 104.886 270.166C104.898 270.159 104.909 270.152 104.919 270.144C104.939 270.13 104.958 270.116 104.977 270.101C105.066 270.032 105.145 269.953 105.224 269.872C105.393 269.7 105.535 269.501 105.64 269.282C105.732 269.089 105.927 268.68 105.804 268.472C105.46 267.894 105.116 267.316 104.773 266.738C104.671 266.565 104.562 266.388 104.424 266.246C104.421 266.278 104.416 266.309 104.411 266.334C104.346 266.746 104.345 267.164 104.383 267.582C104.517 267.782 104.682 267.964 104.837 268.135" fill="#DBDCDE"/>
<path d="M104.528 269.883C104.544 269.867 104.56 269.85 104.575 269.834C104.584 269.826 104.592 269.817 104.603 269.811C104.657 269.784 104.711 269.881 104.736 269.915C104.782 269.977 104.834 270.033 104.885 270.09C104.897 270.102 104.908 270.114 104.914 270.13C104.921 270.144 104.923 270.163 104.915 270.177C104.903 270.199 104.875 270.205 104.854 270.219C104.824 270.238 104.807 270.273 104.777 270.291C104.771 270.294 104.764 270.297 104.757 270.297C104.748 270.297 104.74 270.291 104.732 270.285C104.634 270.209 104.553 270.113 104.484 270.01C104.472 269.993 104.461 269.973 104.466 269.954C104.47 269.943 104.478 269.934 104.486 269.926C104.5 269.912 104.514 269.897 104.528 269.883" fill="#E8ECE9"/>
<path d="M103.843 280.32C103.852 280.336 103.865 280.346 103.881 280.354H104.195C104.203 280.345 104.21 280.333 104.215 280.321C104.231 280.284 104.224 280.241 104.216 280.2C104.187 280.035 104.168 279.868 104.155 279.701C104.142 279.703 104.129 279.704 104.114 279.704C104.054 279.705 103.994 279.706 103.935 279.707H103.929C103.929 279.746 103.927 279.785 103.924 279.825C103.912 279.958 103.88 280.089 103.844 280.218C103.834 280.252 103.825 280.289 103.843 280.32" fill="#F8A018"/>
<path d="M102.685 280.325C102.69 280.336 102.697 280.345 102.705 280.354H103.001C103.023 280.344 103.046 280.33 103.057 280.309C103.073 280.278 103.063 280.239 103.052 280.207C103.011 280.079 102.974 279.95 102.956 279.816C102.951 279.778 102.948 279.739 102.947 279.701C102.943 279.7 102.939 279.699 102.935 279.699C102.887 279.697 102.841 279.696 102.793 279.694C102.788 279.694 102.754 279.693 102.72 279.692C102.715 279.863 102.701 280.034 102.679 280.204C102.673 280.245 102.668 280.287 102.685 280.325" fill="#F8A018"/>
<path d="M99.7213 272.206C99.4309 272.206 99.1955 271.971 99.1955 271.681V264.051C99.1955 263.887 99.1994 263.716 99.2035 263.542C99.2234 262.688 99.2439 261.806 98.817 261.188C98.6102 260.889 98.3075 260.676 98.0259 260.632C97.8341 260.602 97.6591 260.649 97.4938 260.777C96.9626 261.186 96.9193 262.104 96.8814 262.915C96.8712 263.128 96.8615 263.332 96.8445 263.521C96.6535 265.632 96.4407 267.81 96.2126 269.994C96.1822 270.282 95.9235 270.488 95.635 270.462C95.3461 270.432 95.1365 270.173 95.1667 269.884C95.3945 267.705 95.6066 265.533 95.797 263.426C95.8131 263.252 95.8216 263.063 95.8309 262.866C95.8773 261.879 95.9345 260.65 96.8526 259.943C97.2479 259.639 97.7092 259.518 98.1887 259.593C98.7619 259.682 99.3062 260.046 99.6822 260.591C100.303 261.489 100.278 262.592 100.255 263.566C100.251 263.732 100.247 263.895 100.247 264.052V271.681C100.247 271.971 100.012 272.206 99.7213 272.206" fill="#010930"/>
<path d="M95.6927 269.884C95.9202 267.705 96.1327 265.533 96.3232 263.426C96.3392 263.252 96.3479 263.063 96.3572 262.866C96.4032 261.879 96.4608 260.65 97.3787 259.943C97.6307 259.75 97.9109 259.639 98.2042 259.597L98.1887 259.593C97.7092 259.518 97.2478 259.639 96.8526 259.943C95.9345 260.65 95.8773 261.879 95.8309 262.866C95.8216 263.063 95.8131 263.252 95.797 263.426C95.6066 265.533 95.3945 267.705 95.1667 269.884C95.1365 270.173 95.3461 270.432 95.635 270.462C95.7487 270.473 95.8529 270.439 95.9452 270.386C95.7771 270.284 95.671 270.094 95.6927 269.884" fill="#02125E"/>
<path d="M99.7219 271.681V264.051C99.7219 263.887 99.7255 263.716 99.7298 263.542C99.7496 262.688 99.7699 261.806 99.3431 261.188C99.1366 260.889 98.8334 260.676 98.552 260.632C98.4236 260.612 98.303 260.63 98.1874 260.68C98.4186 260.765 98.6495 260.945 98.817 261.188C99.2439 261.806 99.2234 262.688 99.2035 263.542C99.1994 263.716 99.1955 263.887 99.1955 264.051V271.681C99.1955 271.971 99.4309 272.206 99.7213 272.206C99.8196 272.206 99.906 272.172 99.9847 272.126C99.8303 272.034 99.7219 271.873 99.7219 271.681" fill="#040925"/>
<path d="M112.668 270.628C112.378 270.628 112.142 270.392 112.142 270.102V262.473C112.142 262.308 112.146 262.138 112.15 261.963C112.17 261.11 112.19 260.227 111.763 259.61C111.557 259.311 111.254 259.097 110.973 259.053C110.781 259.023 110.606 259.07 110.44 259.198C109.909 259.608 109.866 260.526 109.828 261.337C109.818 261.549 109.808 261.754 109.791 261.942C109.6 264.054 109.387 266.231 109.159 268.416C109.128 268.704 108.87 268.91 108.581 268.884C108.292 268.854 108.083 268.595 108.113 268.306C108.341 266.127 108.553 263.954 108.744 261.847C108.76 261.673 108.768 261.484 108.777 261.288C108.824 260.3 108.881 259.071 109.799 258.365C110.194 258.06 110.655 257.94 111.135 258.015C111.708 258.104 112.252 258.468 112.628 259.012C113.249 259.911 113.224 261.014 113.201 261.988C113.197 262.154 113.194 262.316 113.194 262.473V270.102C113.194 270.392 112.958 270.628 112.668 270.628" fill="#010930"/>
<path d="M108.639 268.306C108.867 266.127 109.079 263.954 109.27 261.847C109.286 261.673 109.294 261.484 109.303 261.288C109.35 260.3 109.407 259.071 110.325 258.365C110.577 258.171 110.857 258.06 111.151 258.019L111.135 258.015C110.655 257.94 110.194 258.06 109.799 258.365C108.881 259.071 108.824 260.3 108.777 261.288C108.768 261.484 108.76 261.673 108.744 261.847C108.553 263.954 108.341 266.127 108.113 268.306C108.083 268.595 108.292 268.854 108.581 268.884C108.695 268.894 108.799 268.86 108.891 268.808C108.723 268.705 108.617 268.515 108.639 268.306" fill="#02125E"/>
<path d="M112.668 270.102V262.473C112.668 262.308 112.672 262.138 112.676 261.963C112.696 261.11 112.716 260.227 112.29 259.61C112.083 259.311 111.78 259.097 111.499 259.053C111.37 259.033 111.249 259.051 111.134 259.102C111.365 259.186 111.596 259.367 111.763 259.61C112.19 260.227 112.17 261.11 112.15 261.963C112.146 262.138 112.142 262.308 112.142 262.473V270.102C112.142 270.392 112.377 270.628 112.668 270.628C112.766 270.628 112.853 270.594 112.931 270.547C112.776 270.456 112.668 270.294 112.668 270.102Z" fill="#040925"/>
<path d="M95.1401 269.115L108.899 267.625L113.281 269.992L113.806 282.348L99.3466 283.575L95.1401 281.471V269.115Z" fill="#D43F49"/>
<path d="M108.899 267.626L95.1401 269.115V281.384L109.174 280.043L108.899 267.626" fill="#FF5D0D"/>
<path d="M109.174 280.043L95.1401 281.384V281.471L99.3466 283.575L113.806 282.348L109.174 280.043" fill="#040925"/>
<path d="M113.806 282.348L113.281 269.992L108.899 267.626L109.174 280.043L113.806 282.348Z" fill="#DD4901"/>
<path d="M108.899 268.361L95.1401 269.901V270.625L108.899 268.994V268.361Z" fill="white"/>
<path d="M109.074 269.693L95.1401 271.233V271.957L109.074 270.326V269.693Z" fill="white"/>
<path d="M109.074 271.024L95.1402 272.564V273.288L109.074 271.657V271.024" fill="white"/>
<path d="M109.074 272.279L95.1402 273.896V274.62L109.074 272.912V272.279" fill="white"/>
<path d="M109.074 273.688L95.1401 275.228V275.952L109.074 274.321V273.688" fill="white"/>
<path d="M109.074 274.973L95.1401 276.559V277.284L109.074 275.607V274.973Z" fill="white"/>
<path d="M109.074 276.351L95.1401 277.891V278.616L109.074 276.984V276.351" fill="white"/>
<path d="M109.174 277.683L95.1401 279.223V279.947L109.174 278.316V277.683" fill="white"/>
<path d="M109.174 279.015L95.1401 280.555V281.279L109.174 279.648V279.015Z" fill="white"/>
<path d="M113.329 271.12V270.518L108.899 268.361V268.994L113.329 271.12" fill="#DBDCDE"/>
<path d="M113.407 272.5V271.898L108.978 269.741V270.374L113.407 272.5Z" fill="#DBDCDE"/>
<path d="M113.506 273.88V273.278L108.9 271.056L108.999 271.737L113.506 273.88" fill="#DBDCDE"/>
<path d="M113.568 275.053V274.45L109.002 272.293V272.862L113.568 275.053Z" fill="#DBDCDE"/>
<path d="M113.568 276.52V275.917L109.004 273.695V274.33L113.568 276.52" fill="#DBDCDE"/>
<path d="M113.703 277.813V277.21L109.074 274.973L109.004 275.557L113.703 277.813" fill="#DBDCDE"/>
<path d="M113.703 279.16V278.558L109.074 276.352V276.985L113.703 279.16" fill="#DBDCDE"/>
<path d="M113.703 280.54V279.937L109.074 277.673V278.306L113.703 280.54" fill="#DBDCDE"/>
<path d="M113.806 281.92V281.317L109.074 279.003V279.637L113.806 281.92" fill="#DBDCDE"/>
<path d="M95.1684 269.376L108.846 267.896L113.156 270.223C113.284 270.292 113.443 270.244 113.512 270.116C113.581 269.989 113.533 269.829 113.406 269.761L109.024 267.394C108.977 267.369 108.924 267.358 108.871 267.364L95.1119 268.854C94.9675 268.87 94.8631 268.999 94.8787 269.144C94.8942 269.288 95.0242 269.392 95.1684 269.376" fill="#12152A"/>
<path d="M109.174 280.043L109.165 279.649L109.166 279.681L109.174 280.043Z" fill="#B02C36"/>
<path d="M109.165 279.649L109.151 279.017H109.151L109.152 279.041L109.165 279.649Z" fill="#C33C49"/>
<path d="M113.806 282.348L109.174 280.043L109.166 279.681L113.787 281.911L113.806 282.348Z" fill="#AA3B04"/>
<path d="M109.152 279.041L109.151 279.017H109.151L109.136 278.325H109.136L109.136 278.336L109.152 279.041" fill="#B02C36"/>
<path d="M113.761 281.295L109.152 279.041L109.136 278.336L113.703 280.54V279.977L113.761 281.295ZM113.701 279.936L109.91 278.081C110.136 277.975 110.349 277.837 110.547 277.677L112.107 278.41L113.667 279.143L113.701 279.936ZM113.64 278.528L110.985 277.262C111.142 277.091 111.287 276.907 111.42 276.717L113.607 277.766L113.64 278.528ZM113.58 277.15L111.715 276.249C111.809 276.084 111.894 275.918 111.971 275.754L113.552 276.513L113.58 277.15ZM113.525 275.897L112.185 275.244C112.275 275.004 112.354 274.757 112.424 274.504L113.487 275.014L113.525 275.897ZM113.46 274.399L112.556 273.973C112.592 273.808 112.625 273.643 112.655 273.476L113.436 273.847L113.46 274.399ZM113.409 273.23L112.743 272.91C112.774 272.681 112.801 272.451 112.823 272.22L113.377 272.486L113.409 273.23ZM113.35 271.87L112.87 271.636C112.886 271.397 112.898 271.157 112.907 270.918L113.317 271.115L113.35 271.87ZM113.29 270.499L112.926 270.322C112.928 270.248 112.929 270.175 112.931 270.102L112.984 270.13L113.156 270.223C113.163 270.227 113.17 270.23 113.177 270.234L113.281 270.289L113.29 270.499Z" fill="#AA3B04"/>
<path d="M113.317 271.115L112.907 270.918C112.915 270.719 112.922 270.52 112.926 270.322L113.29 270.499L113.317 271.115" fill="#9FA0A3"/>
<path d="M113.377 272.486L112.823 272.22C112.841 272.026 112.856 271.831 112.87 271.636L113.35 271.87L113.377 272.486" fill="#9FA0A3"/>
<path d="M113.436 273.847L112.655 273.476C112.688 273.288 112.717 273.1 112.743 272.91L113.409 273.23L113.436 273.847" fill="#9FA0A3"/>
<path d="M113.487 275.014L112.424 274.504C112.473 274.33 112.517 274.152 112.556 273.973L113.46 274.399L113.487 275.014" fill="#9FA0A3"/>
<path d="M113.552 276.513L111.971 275.754C111.972 275.751 111.973 275.75 111.974 275.748C112.05 275.583 112.12 275.415 112.185 275.244L113.525 275.897L113.552 276.513Z" fill="#9FA0A3"/>
<path d="M113.607 277.766L111.42 276.717C111.526 276.564 111.624 276.407 111.715 276.249L113.58 277.151L113.607 277.766Z" fill="#9FA0A3"/>
<path d="M113.667 279.143L110.547 277.677C110.702 277.551 110.848 277.411 110.985 277.262L113.64 278.528L113.667 279.143" fill="#9FA0A3"/>
<path d="M113.703 280.54L109.136 278.335L109.136 278.325C109.371 278.277 109.602 278.215 109.825 278.12C109.853 278.108 109.882 278.095 109.91 278.081L113.701 279.936L113.703 279.977V280.54Z" fill="#9FA0A3"/>
<path d="M113.787 281.911L109.166 279.681L109.165 279.649L109.152 279.041L113.761 281.294L113.787 281.911" fill="#9FA0A3"/>
<path d="M113.178 270.234C113.171 270.23 113.164 270.227 113.157 270.223L112.984 270.13L113.178 270.234" fill="#0B0F1B"/>
<path d="M95.14 281.384V281.279L109.165 279.649L109.174 280.043L95.14 281.384V281.384ZM95.14 280.555V279.947L104.322 278.88C105.154 278.873 105.985 278.826 106.795 278.751C107.214 278.712 107.633 278.665 108.05 278.61C108.262 278.582 108.474 278.543 108.678 278.477C108.733 278.46 108.853 278.392 108.959 278.341L109.136 278.321V278.325C109.135 278.325 109.135 278.325 109.135 278.325L109.15 279.017L95.14 280.555V280.555ZM95.14 279.222V278.616L98.9797 278.166C99.5378 278.375 100.1 278.516 100.671 278.616L95.14 279.222ZM95.14 277.891V277.284L96.8116 277.083C97.1121 277.274 97.4238 277.448 97.7295 277.605L95.14 277.891V277.891ZM95.14 276.559V275.952L95.4227 275.919C95.5834 276.11 95.7682 276.293 95.9695 276.465L95.14 276.559Z" fill="#F15000"/>
<path d="M95.14 281.471V281.384L109.174 280.043L95.14 281.471" fill="#500E16"/>
<path d="M95.14 275.952V275.531C95.2226 275.664 95.3175 275.794 95.4227 275.919L95.14 275.952Z" fill="#DBDCDE"/>
<path d="M95.14 277.284V276.559L95.9695 276.465C96.2286 276.687 96.5146 276.893 96.8116 277.082L95.14 277.284Z" fill="#DBDCDE"/>
<path d="M95.14 278.616V277.891L97.7295 277.605C98.0365 277.762 98.3376 277.9 98.6158 278.02C98.7371 278.072 98.8583 278.121 98.9797 278.166L95.14 278.616" fill="#DBDCDE"/>
<path d="M95.14 279.947V279.223L100.671 278.616C101.322 278.73 101.986 278.79 102.671 278.835C103.151 278.867 103.635 278.881 104.12 278.881C104.187 278.881 104.254 278.881 104.322 278.88L95.14 279.947ZM108.959 278.341C109.026 278.309 109.088 278.285 109.123 278.285C109.128 278.285 109.131 278.285 109.135 278.286L109.136 278.321L108.959 278.341" fill="#DBDCDE"/>
<path d="M95.14 281.279V280.555L109.15 279.017L109.165 279.649L95.14 281.279" fill="#DBDCDE"/>
<path d="M109.174 280.043L109.165 279.649H109.165L109.174 280.043ZM109.15 279.017L109.135 278.326C109.135 278.326 109.135 278.326 109.136 278.325L109.151 279.017H109.15Z" fill="#921E27"/>
<path d="M109.165 279.649L109.15 279.017H109.151L109.165 279.649H109.165" fill="#A22935"/>
<path d="M97.8005 259.881C97.718 259.881 97.6387 259.842 97.5882 259.773L91.2787 251.134C91.1932 251.017 91.2185 250.852 91.3357 250.766C91.4531 250.681 91.6173 250.707 91.7031 250.824L97.6362 258.947L98.5924 252.632C98.6136 252.488 98.748 252.389 98.8917 252.411C99.0349 252.433 99.1337 252.567 99.1121 252.711L98.0604 259.657C98.0446 259.763 97.9666 259.848 97.8632 259.874L97.8005 259.881Z" fill="#12152A"/>
<path d="M98.195 259.185C98.195 259.934 98.0001 260.542 97.7598 260.542C97.5192 260.542 97.3245 259.934 97.3245 259.185C97.3245 258.435 97.5192 257.828 97.7598 257.828C98.0001 257.828 98.195 258.435 98.195 259.185Z" fill="#12152A"/>
<path d="M101.042 258.564L97.7329 258.922C97.5882 258.938 97.4833 259.067 97.498 259.212C97.5119 259.347 97.6261 259.447 97.7592 259.447L97.7864 259.446L101.042 259.095C101.037 258.917 101.042 258.764 101.042 258.564" fill="#F15000"/>
<path d="M101.081 255.621V259.76C101.081 261.295 102.353 262.19 103.909 262.19C105.464 262.19 106.737 261.295 106.737 259.76V255.621C106.737 255.621 104.061 256.971 101.081 255.621Z" fill="#010930"/>
<path d="M103.537 261.109C105.096 261.109 106.371 260.214 106.371 258.679V255.774C106.602 255.687 106.737 255.621 106.737 255.621V259.76C106.737 261.295 105.462 262.19 103.903 262.19C102.418 262.19 101.192 261.375 101.081 259.97C101.571 260.702 102.489 261.109 103.537 261.109" fill="#040925"/>
<path d="M106.737 255.439V255.895C106.737 256.147 105.471 256.351 103.909 256.351C102.347 256.351 101.081 256.147 101.081 255.895V255.439H106.737Z" fill="#F15000"/>
<path d="M103.909 256.168C102.347 256.168 101.081 255.932 101.081 255.641V255.439H106.737V255.641C106.737 255.932 105.471 256.168 103.909 256.168Z" fill="#FF5D0D"/>
<path d="M106.737 255.438C106.737 255.136 105.471 254.891 103.909 254.891C102.347 254.891 101.081 255.136 101.081 255.438C101.081 255.741 102.347 255.986 103.909 255.986C105.471 255.986 106.737 255.741 106.737 255.438Z" fill="#12152A"/>
<path d="M106.588 255.621C106.21 255.403 105.153 255.246 103.909 255.246C102.664 255.246 101.608 255.403 101.23 255.621C101.134 255.566 101.081 255.506 101.081 255.444C101.081 255.139 102.347 254.891 103.909 254.891C105.471 254.891 106.737 255.139 106.737 255.444C106.737 255.506 106.684 255.566 106.588 255.621Z" fill="#DD4901"/>
<path d="M105.993 258.603C105.86 258.603 105.746 258.503 105.732 258.367C105.717 258.222 105.822 258.094 105.967 258.078L110.792 257.584C110.931 257.572 111.066 257.674 111.081 257.819C111.095 257.963 110.99 258.092 110.846 258.107L106.02 258.602L105.993 258.603" fill="#F15000"/>
<path d="M111.081 258.09L111.016 258.082C110.906 258.054 110.827 257.958 110.819 257.846L110.271 250.064C110.261 249.919 110.37 249.794 110.515 249.784C110.661 249.77 110.785 249.883 110.796 250.027L111.288 257.019L114.729 251.658C114.808 251.536 114.97 251.5 115.093 251.579C115.215 251.658 115.25 251.82 115.172 251.942L111.302 257.969C111.253 258.046 111.169 258.09 111.081 258.09Z" fill="#12152A"/>
<path d="M111.517 257.606C111.517 258.356 111.322 258.964 111.081 258.964C110.841 258.964 110.646 258.356 110.646 257.606C110.646 256.857 110.841 256.248 111.081 256.248C111.322 256.248 111.517 256.857 111.517 257.606Z" fill="#12152A"/>
</svg>
