<svg width="110" height="50" viewBox="0 0 110 50" fill="none" xmlns="http://www.w3.org/2000/svg">
<g filter="url(#filter0_d_75_2192)">
<rect x="3" width="104" height="45" rx="15.2047" fill="#EEA812"/>
<rect x="3.60819" y="0.608187" width="102.784" height="43.7836" rx="14.5965" stroke="#7B3F23" stroke-width="1.21637"/>
</g>
<g filter="url(#filter1_d_75_2192)">
<path d="M35.5744 27.7956C35.5744 27.9513 35.1122 28.0292 34.1877 28.0292C33.2535 28.0292 32.7864 27.9562 32.7864 27.8102V18.2933C32.7864 17.9527 32.9665 17.7825 33.3265 17.7825H36.1144C38.6737 17.7825 39.9533 18.7799 39.9533 20.7747C39.9533 21.3781 39.8365 21.9279 39.603 22.4241C39.3695 22.9107 39.0386 23.2999 38.6104 23.5919L40.4496 26.6571C40.3718 26.8907 40.1187 27.1583 39.6906 27.4599C39.1067 27.8784 38.625 28.0876 38.2455 28.0876C37.866 28.0876 37.5838 27.9513 37.3989 27.6789L36.0269 24.4822H35.5744V27.7956ZM35.5744 20.366V22.5555H35.6474C36.5718 22.5555 37.034 22.1711 37.034 21.4024C37.034 21.0521 36.9416 20.7942 36.7567 20.6288C36.5815 20.4536 36.2896 20.366 35.8809 20.366H35.5744ZM46.3297 27.6059C45.7167 27.9659 44.9284 28.146 43.9651 28.146C43.0017 28.146 42.1892 27.82 41.5275 27.168C40.8658 26.5063 40.5349 25.5964 40.5349 24.4385C40.5349 23.2707 40.8512 22.3317 41.4837 21.6213C42.1259 20.911 42.9336 20.5558 43.9067 20.5558C44.8798 20.5558 45.6291 20.8039 46.1545 21.3002C46.6898 21.7965 46.9574 22.3998 46.9574 23.1102C46.9574 24.6866 46.0524 25.4748 44.2424 25.4748H43.2352C43.2352 25.7667 43.3131 25.9711 43.4688 26.0879C43.6342 26.1949 43.8726 26.2484 44.184 26.2484C44.8652 26.2484 45.5123 26.0927 46.1254 25.7813C46.1351 25.7716 46.1789 25.8397 46.2567 25.9857C46.4903 26.4041 46.607 26.7593 46.607 27.0512C46.607 27.3334 46.5146 27.5183 46.3297 27.6059ZM44.5051 23.3875C44.5051 22.9788 44.3057 22.7745 43.9067 22.7745C43.7218 22.7745 43.5612 22.8328 43.425 22.9496C43.2985 23.0567 43.2352 23.2172 43.2352 23.4313V23.8838H44.0235C44.3446 23.8838 44.5051 23.7184 44.5051 23.3875ZM48.3196 22.7015C48.0472 22.2149 47.9109 21.8208 47.9109 21.5192C47.9109 21.2078 47.9936 21.0083 48.1591 20.9207C48.7137 20.6774 49.4727 20.5558 50.4361 20.5558C51.4092 20.5558 52.0952 20.7845 52.4942 21.2418C52.8932 21.6894 53.0927 22.356 53.0927 23.2415V25.5478H53.589C53.7544 25.5478 53.8809 25.6451 53.9685 25.8397C54.0658 26.0343 54.1144 26.3019 54.1144 26.6425C54.1144 26.9831 54.0268 27.3188 53.8517 27.6497C53.6863 27.9805 53.4576 28.146 53.1657 28.146C52.6402 28.146 52.2169 28.0049 51.8958 27.7227C51.7498 27.6059 51.6379 27.4648 51.56 27.2994C51.1124 27.8638 50.4166 28.146 49.4727 28.146C48.7624 28.146 48.1639 27.893 47.6774 27.3869C47.1908 26.8809 46.9475 26.2825 46.9475 25.5916C46.9475 24.0054 47.8963 23.2124 49.7939 23.2124H50.5967V23.0664C50.5967 22.8134 50.5529 22.6528 50.4653 22.5847C50.3875 22.5069 50.1977 22.4679 49.896 22.4679C49.5263 22.4679 49.0008 22.5458 48.3196 22.7015ZM49.4873 25.3872C49.4873 25.6013 49.5457 25.7667 49.6625 25.8835C49.7793 25.9905 49.9252 26.0441 50.1004 26.0441C50.2853 26.0441 50.4507 25.9711 50.5967 25.8251V24.7012H50.188C49.7209 24.7012 49.4873 24.9299 49.4873 25.3872ZM58.1226 17.87C58.1226 17.7241 58.507 17.6511 59.2758 17.6511C59.5385 17.6511 59.8402 17.6705 60.1808 17.7095C60.5311 17.7387 60.7062 17.7825 60.7062 17.8408V25.5332H61.2171C61.4604 25.5332 61.6209 25.7521 61.6988 26.19C61.7182 26.3165 61.728 26.4917 61.728 26.7155C61.728 26.9296 61.6599 27.1923 61.5236 27.5037C61.329 27.9319 61.0176 28.146 60.5895 28.146C60.2683 28.146 59.9813 28.0827 59.7283 27.9562C59.485 27.8297 59.3196 27.6983 59.232 27.5621L59.1006 27.3724C58.5654 27.8881 57.894 28.146 57.0863 28.146C56.2786 28.146 55.5877 27.8102 55.0136 27.1388C54.4395 26.4674 54.1524 25.5332 54.1524 24.3363C54.1524 23.1296 54.4541 22.2003 55.0574 21.5484C55.6607 20.8866 56.4149 20.5558 57.3198 20.5558C57.5826 20.5558 57.8502 20.585 58.1226 20.6434V17.87ZM57.641 22.8912C57.096 22.8912 56.8236 23.3826 56.8236 24.3655C56.8236 24.8618 56.9014 25.2218 57.0571 25.4456C57.2128 25.6597 57.3831 25.7667 57.568 25.7667C57.7626 25.7667 57.9475 25.684 58.1226 25.5186V23.0372C57.9572 22.9399 57.7967 22.8912 57.641 22.8912ZM68.8789 27.7665C68.8789 27.9611 68.3972 28.0584 67.4338 28.0584C66.4705 28.0584 65.9888 27.9611 65.9888 27.7665V20.439H64.2372C64.0718 20.439 63.955 20.2152 63.8869 19.7676C63.8577 19.5535 63.8431 19.3345 63.8431 19.1107C63.8431 18.8869 63.8577 18.668 63.8869 18.4539C63.955 18.0063 64.0718 17.7825 64.2372 17.7825H70.5867C70.7521 17.7825 70.8689 18.0063 70.937 18.4539C70.9662 18.668 70.9808 18.8869 70.9808 19.1107C70.9808 19.3345 70.9662 19.5535 70.937 19.7676C70.8689 20.2152 70.7521 20.439 70.5867 20.439H68.8789V27.7665ZM71.3427 27.1388C70.7394 26.4674 70.4378 25.5381 70.4378 24.3509C70.4378 23.1637 70.7394 22.2344 71.3427 21.5629C71.9558 20.8915 72.7781 20.5558 73.8095 20.5558C74.841 20.5558 75.6584 20.8915 76.2618 21.5629C76.8651 22.2344 77.1667 23.1637 77.1667 24.3509C77.1667 25.5381 76.8651 26.4674 76.2618 27.1388C75.6584 27.8102 74.841 28.146 73.8095 28.146C72.7781 28.146 71.9558 27.8102 71.3427 27.1388ZM73.8095 22.9934C73.2646 22.9934 72.9921 23.441 72.9921 24.3363C72.9921 25.2315 73.2646 25.6792 73.8095 25.6792C74.3642 25.6792 74.6415 25.2315 74.6415 24.3363C74.6415 23.441 74.3642 22.9934 73.8095 22.9934ZM90.2185 28.0146C89.3524 28.0146 88.9194 27.9173 88.9194 27.7227L88.6129 21.8695L86.8321 27.7956C86.7932 27.9124 86.4623 27.9708 85.8396 27.9708C85.2168 27.9708 84.8957 27.9173 84.8762 27.8102L83.037 21.8111L82.8327 27.6351C82.823 27.7811 82.6381 27.8832 82.278 27.9416C81.918 27.9903 81.6163 28.0146 81.373 28.0146C81.1395 28.0146 80.9108 28 80.687 27.9708C80.2199 27.9027 79.9912 27.7811 80.001 27.6059L80.3367 18.1182C80.3367 17.8846 80.9303 17.7679 82.1175 17.7679C82.4678 17.7679 82.8959 17.7971 83.4019 17.8554C83.908 17.9041 84.1902 18.0063 84.2485 18.162L85.8833 22.7599L87.3138 18.1474C87.4014 17.8944 88.0728 17.7679 89.3281 17.7679C89.6882 17.7679 90.1163 17.7971 90.6126 17.8554C91.1186 17.9041 91.3716 17.9965 91.3716 18.1328L91.7949 27.7081C91.7949 27.8151 91.6052 27.893 91.2257 27.9416C90.8462 27.9903 90.5104 28.0146 90.2185 28.0146ZM98.1769 27.6059C97.5638 27.9659 96.7756 28.146 95.8123 28.146C94.8489 28.146 94.0364 27.82 93.3747 27.168C92.7129 26.5063 92.3821 25.5964 92.3821 24.4385C92.3821 23.2707 92.6984 22.3317 93.3309 21.6213C93.9731 20.911 94.7808 20.5558 95.7539 20.5558C96.727 20.5558 97.4763 20.8039 98.0017 21.3002C98.5369 21.7965 98.8046 22.3998 98.8046 23.1102C98.8046 24.6866 97.8996 25.4748 96.0896 25.4748H95.0824C95.0824 25.7667 95.1603 25.9711 95.316 26.0879C95.4814 26.1949 95.7198 26.2484 96.0312 26.2484C96.7124 26.2484 97.3595 26.0927 97.9726 25.7813C97.9823 25.7716 98.0261 25.8397 98.1039 25.9857C98.3375 26.4041 98.4542 26.7593 98.4542 27.0512C98.4542 27.3334 98.3618 27.5183 98.1769 27.6059ZM96.3523 23.3875C96.3523 22.9788 96.1529 22.7745 95.7539 22.7745C95.569 22.7745 95.4084 22.8328 95.2722 22.9496C95.1457 23.0567 95.0824 23.2172 95.0824 23.4313V23.8838H95.8707C96.1918 23.8838 96.3523 23.7184 96.3523 23.3875Z" fill="#FEFDFB"/>
<path d="M39.603 22.4241L40.005 22.6171L40.0065 22.614L39.603 22.4241ZM38.6104 23.5919L38.3592 23.2234L38.0116 23.4605L38.2281 23.8213L38.6104 23.5919ZM40.4496 26.6571L40.8727 26.7981L40.9375 26.6036L40.832 26.4277L40.4496 26.6571ZM39.6906 27.4599L39.4337 27.0954L39.4308 27.0975L39.6906 27.4599ZM37.3989 27.6789L36.9892 27.8548L37.006 27.894L37.0299 27.9293L37.3989 27.6789ZM36.0269 24.4822L36.4366 24.3064L36.3207 24.0363H36.0269V24.4822ZM35.5744 24.4822V24.0363H35.1284V24.4822H35.5744ZM35.5744 20.366V19.9201H35.1284V20.366H35.5744ZM35.5744 22.5555H35.1284V23.0014H35.5744V22.5555ZM36.7567 20.6288L36.4414 20.9441L36.4501 20.9528L36.4593 20.9611L36.7567 20.6288ZM35.1284 27.7956C35.1284 27.6941 35.1694 27.6129 35.2126 27.5619C35.25 27.5179 35.2843 27.501 35.2866 27.4998C35.2889 27.4986 35.2546 27.5141 35.1536 27.5311C34.9605 27.5636 34.6441 27.5833 34.1877 27.5833V28.4751C34.6558 28.4751 35.0327 28.4559 35.3018 28.4106C35.4319 28.3886 35.571 28.3554 35.6888 28.2958C35.7907 28.2443 36.0203 28.0954 36.0203 27.7956H35.1284ZM34.1877 27.5833C33.726 27.5833 33.4038 27.5648 33.2056 27.5339C33.1577 27.5264 33.1217 27.5189 33.0959 27.5121C33.0688 27.5051 33.0601 27.5008 33.0633 27.5023C33.0635 27.5023 33.0982 27.5177 33.1375 27.5607C33.1832 27.6107 33.2324 27.697 33.2324 27.8102H32.3405C32.3405 28.1252 32.5957 28.2681 32.6848 28.3098C32.8008 28.3642 32.938 28.3947 33.0679 28.415C33.3368 28.4571 33.7152 28.4751 34.1877 28.4751V27.5833ZM33.2324 27.8102V18.2933H32.3405V27.8102H33.2324ZM33.2324 18.2933C33.2324 18.2462 33.2387 18.2238 33.2408 18.218C33.242 18.2147 33.239 18.2236 33.2279 18.2341C33.2042 18.2566 33.2092 18.2284 33.3265 18.2284V17.3365C33.0837 17.3365 32.8188 17.3935 32.615 17.5862C32.4066 17.7834 32.3405 18.0478 32.3405 18.2933H33.2324ZM33.3265 18.2284H36.1144V17.3365H33.3265V18.2284ZM36.1144 18.2284C37.3484 18.2284 38.1918 18.4709 38.7195 18.8822C39.226 19.2771 39.5074 19.8798 39.5074 20.7747H40.3993C40.3993 19.6748 40.0408 18.7814 39.2677 18.1788C38.5158 17.5927 37.4397 17.3365 36.1144 17.3365V18.2284ZM39.5074 20.7747C39.5074 21.3191 39.4024 21.8031 39.1995 22.2343L40.0065 22.614C40.2707 22.0526 40.3993 21.4371 40.3993 20.7747H39.5074ZM39.201 22.2312C38.9999 22.65 38.7198 22.9776 38.3592 23.2234L38.8617 23.9603C39.3574 23.6223 39.739 23.1713 40.005 22.6171L39.201 22.2312ZM38.2281 23.8213L40.0672 26.8866L40.832 26.4277L38.9928 23.3624L38.2281 23.8213ZM40.0265 26.5161C39.9979 26.602 39.8551 26.7985 39.4337 27.0954L39.9474 27.8245C40.3824 27.518 40.7456 27.1794 40.8727 26.7981L40.0265 26.5161ZM39.4308 27.0975C38.8649 27.503 38.4797 27.6416 38.2455 27.6416V28.5335C38.7704 28.5335 39.3486 28.2537 39.9503 27.8224L39.4308 27.0975ZM38.2455 27.6416C37.9877 27.6416 37.8562 27.5585 37.7679 27.4285L37.0299 27.9293C37.3115 28.3442 37.7444 28.5335 38.2455 28.5335V27.6416ZM37.8087 27.503L36.4366 24.3064L35.6171 24.6581L36.9892 27.8548L37.8087 27.503ZM36.0269 24.0363H35.5744V24.9282H36.0269V24.0363ZM35.1284 24.4822V27.7956H36.0203V24.4822H35.1284ZM35.1284 20.366V22.5555H36.0203V20.366H35.1284ZM35.5744 23.0014H35.6474V22.1096H35.5744V23.0014ZM35.6474 23.0014C36.1603 23.0014 36.6281 22.8965 36.9725 22.6101C37.3326 22.3106 37.48 21.8793 37.48 21.4024H36.5881C36.5881 21.6942 36.5043 21.8395 36.4022 21.9244C36.2844 22.0223 36.0588 22.1096 35.6474 22.1096V23.0014ZM37.48 21.4024C37.48 20.979 37.3673 20.5767 37.054 20.2964L36.4593 20.9611C36.5159 21.0117 36.5881 21.1251 36.5881 21.4024H37.48ZM37.072 20.3134C36.7729 20.0143 36.3349 19.9201 35.8809 19.9201V20.812C36.2443 20.812 36.3902 20.8929 36.4414 20.9441L37.072 20.3134ZM35.8809 19.9201H35.5744V20.812H35.8809V19.9201ZM46.3297 27.6059L46.1388 27.2029L46.1209 27.2114L46.1039 27.2214L46.3297 27.6059ZM41.5275 27.168L41.2121 27.4833L41.2145 27.4857L41.5275 27.168ZM41.4837 21.6213L41.1529 21.3223L41.1506 21.3248L41.4837 21.6213ZM46.1545 21.3002L45.8483 21.6244L45.8513 21.6272L46.1545 21.3002ZM43.2352 25.4748V25.0289H42.7893V25.4748H43.2352ZM43.4688 26.0879L43.2012 26.4446L43.2136 26.4539L43.2265 26.4623L43.4688 26.0879ZM46.1254 25.7813L46.3273 26.1789L46.3905 26.1468L46.4407 26.0967L46.1254 25.7813ZM46.2567 25.9857L45.8632 26.1956L45.8673 26.203L46.2567 25.9857ZM43.425 22.9496L43.7131 23.29L43.7152 23.2882L43.425 22.9496ZM43.2352 23.8838H42.7893V24.3297H43.2352V23.8838ZM46.1039 27.2214C45.5794 27.5294 44.8762 27.7 43.9651 27.7V28.5919C44.9807 28.5919 45.8539 28.4025 46.5555 27.9904L46.1039 27.2214ZM43.9651 27.7C43.114 27.7 42.4153 27.4168 41.8404 26.8503L41.2145 27.4857C41.963 28.2232 42.8894 28.5919 43.9651 28.5919V27.7ZM41.8428 26.8527C41.2836 26.2935 40.9808 25.5079 40.9808 24.4385H40.089C40.089 25.685 40.4479 26.7191 41.2121 27.4833L41.8428 26.8527ZM40.9808 24.4385C40.9808 23.3541 41.2725 22.529 41.8167 21.9179L41.1506 21.3248C40.4298 22.1343 40.089 23.1874 40.089 24.4385H40.9808ZM41.8145 21.9204C42.3706 21.3053 43.0573 21.0017 43.9067 21.0017V20.1099C42.8098 20.1099 41.8812 20.5167 41.1529 21.3223L41.8145 21.9204ZM43.9067 21.0017C44.8062 21.0017 45.4309 21.2302 45.8484 21.6244L46.4607 20.976C45.8272 20.3777 44.9534 20.1099 43.9067 20.1099V21.0017ZM45.8513 21.6272C46.2984 22.0417 46.5114 22.5277 46.5114 23.1102H47.4033C47.4033 22.2719 47.0811 21.5513 46.4578 20.9732L45.8513 21.6272ZM46.5114 23.1102C46.5114 23.8124 46.3127 24.2626 45.9857 24.5474C45.647 24.8424 45.0926 25.0289 44.2424 25.0289V25.9207C45.2022 25.9207 46.0053 25.7131 46.5715 25.2199C47.1495 24.7165 47.4033 23.9844 47.4033 23.1102H46.5114ZM44.2424 25.0289H43.2352V25.9207H44.2424V25.0289ZM42.7893 25.4748C42.7893 25.8344 42.8856 26.2079 43.2012 26.4446L43.7364 25.7311C43.734 25.7294 43.7231 25.7217 43.7104 25.6883C43.696 25.6506 43.6812 25.5836 43.6812 25.4748H42.7893ZM43.2265 26.4623C43.4948 26.6358 43.8324 26.6944 44.184 26.6944V25.8025C43.9129 25.8025 43.7737 25.754 43.711 25.7135L43.2265 26.4623ZM44.184 26.6944C44.9361 26.6944 45.6523 26.5218 46.3273 26.1789L45.9234 25.3837C45.3723 25.6637 44.7943 25.8025 44.184 25.8025V26.6944ZM46.4407 26.0967C46.3561 26.1812 46.2428 26.2264 46.1276 26.2264C46.0286 26.2264 45.9556 26.1934 45.9207 26.1748C45.8544 26.1394 45.8158 26.0959 45.8103 26.09C45.7901 26.0679 45.7821 26.0533 45.7904 26.0663C45.802 26.0844 45.8254 26.1246 45.8632 26.1955L46.6502 25.7758C46.6102 25.7008 46.5728 25.634 46.5406 25.584C46.527 25.5629 46.5014 25.524 46.4678 25.4873C46.4556 25.474 46.4114 25.4257 46.3405 25.3879C46.3033 25.368 46.2283 25.3345 46.1276 25.3345C46.0106 25.3345 45.8958 25.3802 45.81 25.466L46.4407 26.0967ZM45.8673 26.203C46.085 26.5929 46.1611 26.8694 46.1611 27.0512H47.053C47.053 26.6492 46.8956 26.2153 46.6461 25.7683L45.8673 26.203ZM46.1611 27.0512C46.1611 27.1471 46.1449 27.19 46.1388 27.2021C46.1364 27.2071 46.1359 27.2065 46.1385 27.2039C46.1412 27.2012 46.1424 27.2012 46.1388 27.2029L46.5206 28.0089C46.92 27.8197 47.053 27.4295 47.053 27.0512H46.1611ZM44.9511 23.3875C44.9511 23.1171 44.8851 22.8318 44.6746 22.6162C44.4622 22.3986 44.1777 22.3285 43.9067 22.3285V23.2204C44.0347 23.2204 44.0494 23.2525 44.0364 23.2392C44.0254 23.2279 44.0592 23.2492 44.0592 23.3875H44.9511ZM43.9067 22.3285C43.6189 22.3285 43.3545 22.4227 43.1348 22.611L43.7152 23.2882C43.768 23.243 43.8247 23.2204 43.9067 23.2204V22.3285ZM43.137 22.6092C42.8827 22.8243 42.7893 23.1271 42.7893 23.4313H43.6812C43.6812 23.3672 43.6908 23.3311 43.6976 23.3138C43.7034 23.2991 43.7084 23.294 43.7131 23.29L43.137 22.6092ZM42.7893 23.4313V23.8838H43.6812V23.4313H42.7893ZM43.2352 24.3297H44.0235V23.4379H43.2352V24.3297ZM44.0235 24.3297C44.2562 24.3297 44.5119 24.269 44.7047 24.0703C44.8952 23.8741 44.9511 23.6184 44.9511 23.3875H44.0592C44.0592 23.4355 44.0532 23.4597 44.0508 23.4674C44.0489 23.473 44.0514 23.4629 44.0647 23.4491C44.0784 23.4351 44.0903 23.4307 44.0894 23.431C44.0861 23.4321 44.0667 23.4379 44.0235 23.4379V24.3297ZM48.3196 22.7015L47.9305 22.9194L48.0936 23.2106L48.419 23.1362L48.3196 22.7015ZM48.1591 20.9207L47.9799 20.5123L47.9649 20.5189L47.9504 20.5266L48.1591 20.9207ZM52.4942 21.2418L52.1582 21.535L52.1613 21.5385L52.4942 21.2418ZM53.0927 25.5478H52.6467V25.9937H53.0927V25.5478ZM53.9685 25.8397L53.5618 26.0227L53.5655 26.031L53.5696 26.0391L53.9685 25.8397ZM53.8517 27.6497L53.4575 27.441L53.4528 27.4503L53.8517 27.6497ZM51.8958 27.7227L52.1901 27.3877L52.1824 27.3809L52.1743 27.3744L51.8958 27.7227ZM51.56 27.2994L51.9635 27.1095L51.6574 26.459L51.2106 27.0223L51.56 27.2994ZM47.6774 27.3869L47.9988 27.0779L47.6774 27.3869ZM50.5967 23.2124V23.6583H51.0426V23.2124H50.5967ZM50.4653 22.5847L50.15 22.9L50.1696 22.9197L50.1915 22.9367L50.4653 22.5847ZM49.6625 25.8835L49.3472 26.1988L49.354 26.2057L49.3612 26.2122L49.6625 25.8835ZM50.5967 25.8251L50.912 26.1404L51.0426 26.0098V25.8251H50.5967ZM50.5967 24.7012H51.0426V24.2553H50.5967V24.7012ZM48.7087 22.4836C48.4468 22.0159 48.3569 21.704 48.3569 21.5192H47.465C47.465 21.9377 47.6475 22.414 47.9305 22.9194L48.7087 22.4836ZM48.3569 21.5192C48.3569 21.3983 48.3736 21.3341 48.3849 21.3068C48.3929 21.2873 48.3905 21.3028 48.3677 21.3148L47.9504 20.5266C47.5593 20.7337 47.465 21.1583 47.465 21.5192H48.3569ZM48.3382 21.3291C48.8128 21.1209 49.5021 21.0017 50.4361 21.0017V20.1099C49.4434 20.1099 48.6146 20.234 47.9799 20.5123L48.3382 21.3291ZM50.4361 21.0017C51.3567 21.0017 51.8837 21.2203 52.1582 21.535L52.8303 20.9487C52.3068 20.3486 51.4617 20.1099 50.4361 20.1099V21.0017ZM52.1613 21.5385C52.4595 21.8731 52.6467 22.4144 52.6467 23.2415H53.5386C53.5386 22.2976 53.3269 21.5058 52.8271 20.9451L52.1613 21.5385ZM52.6467 23.2415V25.5478H53.5386V23.2415H52.6467ZM53.0927 25.9937H53.589V25.1019H53.0927V25.9937ZM53.589 25.9937C53.586 25.9937 53.577 25.9932 53.5647 25.9891C53.5522 25.9849 53.5423 25.9791 53.536 25.9742C53.5302 25.9698 53.5307 25.9687 53.5359 25.9757C53.5412 25.983 53.5505 25.9976 53.5618 26.0227L54.3751 25.6567C54.3109 25.5141 54.2177 25.3734 54.0798 25.2673C53.9356 25.1564 53.7662 25.1019 53.589 25.1019V25.9937ZM53.5696 26.0391C53.6233 26.1466 53.6685 26.3359 53.6685 26.6425H54.5604C54.5604 26.2679 54.5082 25.9221 54.3673 25.6403L53.5696 26.0391ZM53.6685 26.6425C53.6685 26.9034 53.6021 27.168 53.4576 27.441L54.2458 27.8583C54.4516 27.4697 54.5604 27.0629 54.5604 26.6425H53.6685ZM53.4528 27.4503C53.3389 27.6781 53.2409 27.7 53.1657 27.7V28.5919C53.6743 28.5919 54.0336 28.283 54.2505 27.8491L53.4528 27.4503ZM53.1657 27.7C52.7227 27.7 52.4123 27.583 52.1901 27.3877L51.6014 28.0576C52.0214 28.4268 52.5577 28.5919 53.1657 28.5919V27.7ZM52.1743 27.3744C52.0803 27.2992 52.0117 27.2119 51.9635 27.1095L51.1565 27.4892C51.2641 27.7177 51.4193 27.9126 51.6172 28.0709L52.1743 27.3744ZM51.2106 27.0223C50.8724 27.4487 50.3262 27.7 49.4727 27.7V28.5919C50.5071 28.5919 51.3524 28.2788 51.9094 27.5765L51.2106 27.0223ZM49.4727 27.7C48.882 27.7 48.4002 27.4953 47.9988 27.0779L47.3559 27.696C47.9277 28.2907 48.6427 28.5919 49.4727 28.5919V27.7ZM47.9988 27.0779C47.5907 26.6534 47.3935 26.1652 47.3935 25.5916H46.5016C46.5016 26.3998 46.7909 27.1084 47.3559 27.696L47.9988 27.0779ZM47.3935 25.5916C47.3935 24.8903 47.5994 24.4383 47.9451 24.1493C48.3062 23.8475 48.8963 23.6583 49.7939 23.6583V22.7664C48.7939 22.7664 47.9609 22.9737 47.3731 23.465C46.7701 23.9691 46.5016 24.7067 46.5016 25.5916H47.3935ZM49.7939 23.6583H50.5967V22.7664H49.7939V23.6583ZM51.0426 23.2124V23.0664H50.1507V23.2124H51.0426ZM51.0426 23.0664C51.0426 22.9185 51.0303 22.7717 50.9941 22.6389C50.9588 22.5097 50.8887 22.349 50.7391 22.2327L50.1915 22.9367C50.16 22.9122 50.1432 22.8876 50.1361 22.8753C50.1294 22.8636 50.1302 22.861 50.1336 22.8735C50.1412 22.9012 50.1507 22.9612 50.1507 23.0664H51.0426ZM50.7806 22.2694C50.6488 22.1376 50.4777 22.0856 50.3542 22.0603C50.2183 22.0324 50.0623 22.022 49.896 22.022V22.9139C50.0314 22.9139 50.1211 22.9229 50.175 22.934C50.2012 22.9393 50.2102 22.9435 50.2076 22.9423C50.2057 22.9415 50.1805 22.9305 50.15 22.9L50.7806 22.2694ZM49.896 22.022C49.4753 22.022 48.9107 22.1089 48.2203 22.2667L48.419 23.1362C49.0909 22.9826 49.5773 22.9139 49.896 22.9139V22.022ZM49.0414 25.3872C49.0414 25.683 49.124 25.9757 49.3472 26.1988L49.9778 25.5682C49.9674 25.5578 49.9333 25.5196 49.9333 25.3872H49.0414ZM49.3612 26.2122C49.5691 26.4029 49.8264 26.49 50.1004 26.49V25.5981C50.024 25.5981 49.9894 25.5782 49.9638 25.5548L49.3612 26.2122ZM50.1004 26.49C50.4178 26.49 50.6931 26.3594 50.912 26.1404L50.2813 25.5098C50.2084 25.5828 50.1527 25.5981 50.1004 25.5981V26.49ZM51.0426 25.8251V24.7012H50.1507V25.8251H51.0426ZM50.5967 24.2553H50.188V25.1471H50.5967V24.2553ZM50.188 24.2553C49.888 24.2553 49.5807 24.3287 49.3505 24.5541C49.1186 24.7812 49.0414 25.0874 49.0414 25.3872H49.9333C49.9333 25.2297 49.9729 25.1929 49.9745 25.1913C49.9778 25.188 50.0208 25.1471 50.188 25.1471V24.2553ZM60.1807 17.7095L60.1301 18.1527L60.1437 18.1539L60.1807 17.7095ZM60.7062 25.5332H60.2603V25.9791H60.7062V25.5332ZM61.6988 26.19L62.1397 26.1222L62.1378 26.112L61.6988 26.19ZM61.5236 27.5037L61.9296 27.6883L61.9322 27.6825L61.5236 27.5037ZM59.7283 27.9562L59.5225 28.3519L59.5288 28.3551L59.7283 27.9562ZM59.232 27.5621L59.6071 27.321L59.603 27.3145L59.5986 27.3083L59.232 27.5621ZM59.1006 27.3724L59.4673 27.1185L59.1688 26.6874L58.7912 27.0512L59.1006 27.3724ZM55.0136 27.1388L54.6747 27.4286L55.0136 27.1388ZM55.0574 21.5484L55.3847 21.8512L55.3869 21.8488L55.0574 21.5484ZM58.1226 20.6434L58.0292 21.0794L58.5686 21.195V20.6434H58.1226ZM57.0571 25.4456L56.6909 25.7003L56.6965 25.7079L57.0571 25.4456ZM58.1226 25.5186L58.4288 25.8428L58.5686 25.7108V25.5186H58.1226ZM58.1226 23.0372H58.5686V22.7821L58.3487 22.6528L58.1226 23.0372ZM58.5686 17.87C58.5686 18.0668 58.4288 18.1541 58.4154 18.1617C58.3999 18.1706 58.4152 18.1589 58.4941 18.1439C58.6438 18.1155 58.8981 18.097 59.2758 18.097V17.2051C58.8847 17.2051 58.5624 17.2232 58.3277 17.2677C58.2145 17.2892 58.0856 17.3232 57.974 17.3868C57.8646 17.4491 57.6767 17.6003 57.6767 17.87H58.5686ZM59.2758 18.097C59.5174 18.097 59.8016 18.115 60.1301 18.1525L60.2314 17.2664C59.8787 17.2261 59.5596 17.2051 59.2758 17.2051V18.097ZM60.1437 18.1539C60.3129 18.168 60.4151 18.1839 60.4667 18.1968C60.4962 18.2042 60.481 18.2038 60.4487 18.185C60.4316 18.175 60.3902 18.1488 60.3498 18.0982C60.3052 18.0424 60.2603 17.954 60.2603 17.8408H61.1522C61.1522 17.5769 60.9544 17.4474 60.8981 17.4146C60.8219 17.3702 60.7411 17.3461 60.683 17.3316C60.5594 17.3007 60.399 17.2802 60.2178 17.2651L60.1437 18.1539ZM60.2603 17.8408V25.5332H61.1522V17.8408H60.2603ZM60.7062 25.9791H61.2171V25.0873H60.7062V25.9791ZM61.2171 25.9791C61.2082 25.9791 61.1902 25.9764 61.1715 25.9663C61.1545 25.957 61.1522 25.9499 61.1604 25.9611C61.1825 25.9913 61.226 26.0785 61.2597 26.2681L62.1378 26.112C62.0937 25.8637 62.018 25.6225 61.8796 25.4337C61.7266 25.225 61.4988 25.0873 61.2171 25.0873V25.9791ZM61.258 26.2578C61.2724 26.3513 61.282 26.5003 61.282 26.7155H62.1739C62.1739 26.4831 62.1641 26.2818 62.1395 26.1222L61.258 26.2578ZM61.282 26.7155C61.282 26.8425 61.2395 27.0405 61.1151 27.325L61.9322 27.6825C62.0802 27.3441 62.1739 27.0167 62.1739 26.7155H61.282ZM61.1177 27.3192C61.0457 27.4774 60.9658 27.5668 60.8915 27.6179C60.8198 27.6672 60.7258 27.7 60.5895 27.7V28.5919C60.8813 28.5919 61.1571 28.5176 61.3968 28.3529C61.6338 28.1899 61.8069 27.9582 61.9296 27.6882L61.1177 27.3192ZM60.5895 27.7C60.3281 27.7 60.1109 27.6489 59.9277 27.5574L59.5288 28.3551C59.8517 28.5165 60.2085 28.5919 60.5895 28.5919V27.7ZM59.934 27.5606C59.7176 27.448 59.6328 27.361 59.6071 27.321L58.8569 27.8032C59.0063 28.0357 59.2524 28.2114 59.5225 28.3519L59.934 27.5606ZM59.5986 27.3083L59.4673 27.1185L58.734 27.6262L58.8653 27.8159L59.5986 27.3083ZM58.7912 27.0512C58.3467 27.4796 57.7895 27.7 57.0863 27.7V28.5919C57.9984 28.5919 58.7842 28.2966 59.41 27.6935L58.7912 27.0512ZM57.0863 27.7C56.4222 27.7 55.8509 27.4319 55.3525 26.849L54.6747 27.4286C55.3245 28.1886 56.135 28.5919 57.0863 28.5919V27.7ZM55.3525 26.849C54.8686 26.2831 54.5983 25.4648 54.5983 24.3363H53.7065C53.7065 25.6016 54.0103 26.6517 54.6747 27.4286L55.3525 26.849ZM54.5983 24.3363C54.5983 23.2011 54.8814 22.395 55.3847 21.8512L54.7301 21.2455C54.0267 22.0056 53.7065 23.0582 53.7065 24.3363H54.5983ZM55.3869 21.8488C55.9047 21.2809 56.5387 21.0017 57.3198 21.0017V20.1099C56.291 20.1099 55.4167 20.4924 54.7279 21.2479L55.3869 21.8488ZM57.3198 21.0017C57.5493 21.0017 57.7856 21.0272 58.0292 21.0794L58.2161 20.2073C57.9148 20.1428 57.6158 20.1099 57.3198 20.1099V21.0017ZM58.5686 20.6434V17.87H57.6767V20.6434H58.5686ZM57.641 22.4453C57.4356 22.4453 57.2346 22.4924 57.0536 22.6012C56.8733 22.7096 56.7371 22.8646 56.6379 23.0436C56.4469 23.3881 56.3776 23.8475 56.3776 24.3655H57.2695C57.2695 23.9007 57.3365 23.6229 57.4179 23.476C57.4549 23.4093 57.4891 23.38 57.5131 23.3656C57.5365 23.3515 57.5739 23.3372 57.641 23.3372V22.4453ZM56.3776 24.3655C56.3776 24.888 56.4557 25.362 56.691 25.7003L57.4232 25.191C57.3471 25.0816 57.2695 24.8355 57.2695 24.3655H56.3776ZM56.6965 25.7079C56.8976 25.9845 57.1857 26.2127 57.568 26.2127V25.3208C57.5668 25.3208 57.5595 25.3218 57.5389 25.3089C57.5144 25.2935 57.4722 25.2582 57.4177 25.1833L56.6965 25.7079ZM57.568 26.2127C57.902 26.2127 58.1916 26.0669 58.4288 25.8428L57.8165 25.1944C57.7034 25.3012 57.6231 25.3208 57.568 25.3208V26.2127ZM58.5686 25.5186V23.0372H57.6767V25.5186H58.5686ZM58.3487 22.6528C58.1306 22.5245 57.8927 22.4453 57.641 22.4453V23.3372C57.7006 23.3372 57.7838 23.3552 57.8965 23.4216L58.3487 22.6528ZM65.9888 20.439H66.4347V19.9931H65.9888V20.439ZM63.8869 19.7676L63.445 19.8278L63.446 19.8347L63.8869 19.7676ZM63.8869 18.4539L63.446 18.3868L63.445 18.3936L63.8869 18.4539ZM70.937 18.4539L71.3789 18.3936L71.3779 18.3868L70.937 18.4539ZM70.937 19.7676L71.3779 19.8347L71.3788 19.8278L70.937 19.7676ZM68.8789 20.439V19.9931H68.433V20.439H68.8789ZM68.433 27.7665C68.433 27.5957 68.5495 27.5176 68.5574 27.5128C68.5624 27.5098 68.5311 27.5277 68.4293 27.5483C68.2335 27.5879 67.9084 27.6124 67.4338 27.6124V28.5043C67.9227 28.5043 68.3201 28.4803 68.6059 28.4225C68.745 28.3944 68.8944 28.3515 69.0197 28.2755C69.1481 28.1977 69.3248 28.0345 69.3248 27.7665H68.433ZM67.4338 27.6124C66.9593 27.6124 66.6342 27.5879 66.4384 27.5483C66.3366 27.5277 66.3053 27.5098 66.3102 27.5128C66.3182 27.5176 66.4347 27.5957 66.4347 27.7665H65.5429C65.5429 28.0345 65.7196 28.1977 65.848 28.2755C65.9733 28.3515 66.1226 28.3944 66.2617 28.4225C66.5476 28.4803 66.945 28.5043 67.4338 28.5043V27.6124ZM66.4347 27.7665V20.439H65.5429V27.7665H66.4347ZM65.9888 19.9931H64.2372V20.885H65.9888V19.9931ZM64.2372 19.9931C64.3056 19.9931 64.3633 20.019 64.3994 20.0477C64.4286 20.0709 64.432 20.0861 64.4209 20.0649C64.3966 20.0182 64.3593 19.9079 64.3278 19.7005L63.446 19.8347C63.4826 20.0749 63.5378 20.3003 63.6302 20.4774C63.721 20.6514 63.9103 20.885 64.2372 20.885V19.9931ZM64.3287 19.7073C64.3024 19.5139 64.289 19.3151 64.289 19.1107H63.3972C63.3972 19.354 63.413 19.5931 63.445 19.8278L64.3287 19.7073ZM64.289 19.1107C64.289 18.9064 64.3024 18.7076 64.3287 18.5141L63.445 18.3936C63.413 18.6284 63.3972 18.8675 63.3972 19.1107H64.289ZM64.3278 18.521C64.3593 18.3136 64.3966 18.2033 64.4209 18.1566C64.432 18.1353 64.4286 18.1506 64.3994 18.1738C64.3633 18.2024 64.3056 18.2284 64.2372 18.2284V17.3365C63.9103 17.3365 63.721 17.57 63.6302 17.744C63.5378 17.9212 63.4826 18.1465 63.446 18.3868L64.3278 18.521ZM64.2372 18.2284H70.5867V17.3365H64.2372V18.2284ZM70.5867 18.2284C70.5183 18.2284 70.4606 18.2024 70.4245 18.1738C70.3952 18.1506 70.3919 18.1353 70.403 18.1566C70.4273 18.2033 70.4646 18.3136 70.4961 18.521L71.3779 18.3868C71.3413 18.1465 71.2861 17.9212 71.1937 17.744C71.1029 17.57 70.9136 17.3365 70.5867 17.3365V18.2284ZM70.4952 18.5141C70.5215 18.7076 70.5349 18.9064 70.5349 19.1107H71.4267C71.4267 18.8675 71.4109 18.6284 71.3788 18.3936L70.4952 18.5141ZM70.5349 19.1107C70.5349 19.3151 70.5215 19.5139 70.4952 19.7073L71.3788 19.8278C71.4109 19.5931 71.4267 19.354 71.4267 19.1107H70.5349ZM70.4961 19.7005C70.4646 19.9079 70.4273 20.0182 70.403 20.0649C70.3919 20.0861 70.3952 20.0709 70.4245 20.0477C70.4606 20.019 70.5183 19.9931 70.5867 19.9931V20.885C70.9136 20.885 71.1029 20.6514 71.1937 20.4774C71.2861 20.3003 71.3413 20.0749 71.3779 19.8347L70.4961 19.7005ZM70.5867 19.9931H68.8789V20.885H70.5867V19.9931ZM68.433 20.439V27.7665H69.3248V20.439H68.433ZM71.3427 27.1388L71.011 27.4369L71.0134 27.4395L71.3427 27.1388ZM71.3427 21.5629L71.0134 21.2623L71.011 21.2649L71.3427 21.5629ZM76.2618 21.5629L75.93 21.861L76.2618 21.5629ZM76.2618 27.1388L75.93 26.8408L76.2618 27.1388ZM71.6744 26.8408C71.1653 26.2742 70.8837 25.4635 70.8837 24.3509H69.9918C69.9918 25.6127 70.3135 26.6606 71.011 27.4369L71.6744 26.8408ZM70.8837 24.3509C70.8837 23.2383 71.1653 22.4276 71.6744 21.861L71.011 21.2649C70.3135 22.0412 69.9918 23.0891 69.9918 24.3509H70.8837ZM71.6721 21.8636C72.1888 21.2976 72.8847 21.0017 73.8095 21.0017V20.1099C72.6714 20.1099 71.7227 20.4854 71.0134 21.2623L71.6721 21.8636ZM73.8095 21.0017C74.7344 21.0017 75.4238 21.2976 75.93 21.861L76.5935 21.2649C75.8931 20.4854 74.9476 20.1099 73.8095 20.1099V21.0017ZM75.93 21.861C76.4392 22.4276 76.7208 23.2383 76.7208 24.3509H77.6127C77.6127 23.0891 77.291 22.0412 76.5935 21.2649L75.93 21.861ZM76.7208 24.3509C76.7208 25.4635 76.4392 26.2742 75.93 26.8408L76.5935 27.4369C77.291 26.6606 77.6127 25.6127 77.6127 24.3509H76.7208ZM75.93 26.8408C75.4238 27.4042 74.7344 27.7 73.8095 27.7V28.5919C74.9476 28.5919 75.8931 28.2163 76.5935 27.4369L75.93 26.8408ZM73.8095 27.7C72.8847 27.7 72.1888 27.4041 71.6721 26.8381L71.0134 27.4395C71.7227 28.2164 72.6714 28.5919 73.8095 28.5919V27.7ZM73.8095 22.5475C73.389 22.5475 73.0366 22.7342 72.8156 23.0973C72.6164 23.4245 72.5462 23.8579 72.5462 24.3363H73.4381C73.4381 23.9194 73.5041 23.6814 73.5774 23.561C73.6289 23.4765 73.6851 23.4393 73.8095 23.4393V22.5475ZM72.5462 24.3363C72.5462 24.8146 72.6164 25.2481 72.8156 25.5753C73.0366 25.9384 73.389 26.1251 73.8095 26.1251V25.2332C73.6851 25.2332 73.6289 25.1961 73.5774 25.1116C73.5041 24.9912 73.4381 24.7532 73.4381 24.3363H72.5462ZM73.8095 26.1251C74.2313 26.1251 74.5875 25.9416 74.8126 25.5783C75.0159 25.2503 75.0875 24.8155 75.0875 24.3363H74.1956C74.1956 24.7523 74.1286 24.989 74.0545 25.1086C74.0022 25.1929 73.9425 25.2332 73.8095 25.2332V26.1251ZM75.0875 24.3363C75.0875 23.8571 75.0159 23.4223 74.8126 23.0943C74.5875 22.731 74.2313 22.5475 73.8095 22.5475V23.4393C73.9425 23.4393 74.0022 23.4797 74.0545 23.564C74.1286 23.6836 74.1956 23.9202 74.1956 24.3363H75.0875ZM88.9194 27.7227H89.3654V27.711L89.3647 27.6993L88.9194 27.7227ZM88.6129 21.8695L89.0582 21.8462L88.1858 21.7411L88.6129 21.8695ZM86.8321 27.7956L87.2554 27.9367L87.2592 27.924L86.8321 27.7956ZM84.8762 27.8102L85.3149 27.7305L85.3102 27.7046L85.3025 27.6795L84.8762 27.8102ZM83.037 21.8111L83.4634 21.6804L82.5914 21.7954L83.037 21.8111ZM82.8327 27.6351L83.2779 27.6648L83.2783 27.6507L82.8327 27.6351ZM82.278 27.9416L82.3378 28.3837L82.3494 28.3818L82.278 27.9416ZM80.687 27.9708L80.6226 28.4121L80.6293 28.413L80.687 27.9708ZM80.001 27.6059L80.4463 27.6306L80.4466 27.6217L80.001 27.6059ZM80.3367 18.1182L80.7823 18.1339L80.7826 18.1261V18.1182H80.3367ZM83.4019 17.8554L83.3508 18.2985L83.3593 18.2993L83.4019 17.8554ZM84.2485 18.162L84.6688 18.0125L84.6661 18.0054L84.2485 18.162ZM85.8833 22.7599L85.4632 22.9093L85.9122 24.1722L86.3093 22.8919L85.8833 22.7599ZM87.3138 18.1474L86.8924 18.0015L86.89 18.0084L86.8879 18.0153L87.3138 18.1474ZM90.6126 17.8554L90.5605 18.2984L90.5699 18.2993L90.6126 17.8554ZM91.3716 18.1328H90.9257V18.1426L90.9261 18.1525L91.3716 18.1328ZM91.7949 27.7081H92.2409V27.6982L92.2404 27.6884L91.7949 27.7081ZM91.2257 27.9416L91.2824 28.3839L91.2257 27.9416ZM90.2185 27.5687C89.7935 27.5687 89.5089 27.544 89.342 27.5065C89.2553 27.4871 89.2367 27.4718 89.2499 27.4806C89.2724 27.4958 89.3654 27.5747 89.3654 27.7227H88.4735C88.4735 27.9679 88.6206 28.132 88.7513 28.2201C88.8727 28.302 89.0165 28.3475 89.1464 28.3767C89.4125 28.4365 89.7774 28.4605 90.2185 28.4605V27.5687ZM89.3647 27.6993L89.0582 21.8462L88.1676 21.8928L88.4741 27.746L89.3647 27.6993ZM88.1858 21.7411L86.405 27.6673L87.2592 27.924L89.04 21.9978L88.1858 21.7411ZM86.4091 27.6546C86.4332 27.5822 86.4738 27.5342 86.5032 27.5074C86.5311 27.4819 86.5534 27.4711 86.5573 27.4693C86.5627 27.4667 86.5424 27.4764 86.4773 27.4879C86.3505 27.5102 86.1429 27.5249 85.8396 27.5249V28.4167C86.159 28.4167 86.4282 28.4022 86.6323 28.3662C86.7326 28.3485 86.8413 28.3216 86.9391 28.2753C87.0259 28.2342 87.1881 28.1379 87.2552 27.9367L86.4091 27.6546ZM85.8396 27.5249C85.5348 27.5249 85.3284 27.5114 85.2049 27.4908C85.1403 27.48 85.1256 27.4715 85.1375 27.4771C85.1445 27.4805 85.1754 27.4955 85.2109 27.5305C85.2494 27.5685 85.2976 27.635 85.3149 27.7305L84.4374 27.89C84.4822 28.1362 84.6778 28.2464 84.7572 28.2839C84.8543 28.3296 84.9624 28.3546 85.0583 28.3705C85.256 28.4035 85.5215 28.4167 85.8396 28.4167V27.5249ZM85.3025 27.6795L83.4634 21.6804L82.6107 21.9418L84.4498 27.941L85.3025 27.6795ZM82.5914 21.7954L82.387 27.6195L83.2783 27.6507L83.4827 21.8267L82.5914 21.7954ZM82.3877 27.6054C82.3917 27.5454 82.4152 27.4949 82.4417 27.4611C82.4645 27.4321 82.4817 27.425 82.471 27.4309C82.461 27.4364 82.4361 27.448 82.3892 27.4619C82.3432 27.4754 82.2831 27.489 82.2066 27.5014L82.3494 28.3818C82.5488 28.3495 82.7439 28.2991 82.9024 28.2115C83.0638 28.1223 83.2586 27.9498 83.2776 27.6648L82.3877 27.6054ZM82.2183 27.4997C81.8694 27.5468 81.5892 27.5687 81.373 27.5687V28.4605C81.6434 28.4605 81.9665 28.4337 82.3377 28.3835L82.2183 27.4997ZM81.373 27.5687C81.1581 27.5687 80.9487 27.5552 80.7447 27.5286L80.6293 28.413C80.8729 28.4448 81.1209 28.4605 81.373 28.4605V27.5687ZM80.7514 27.5295C80.5339 27.4978 80.4207 27.4593 80.3746 27.4348C80.354 27.4238 80.3724 27.4288 80.3972 27.4625C80.428 27.5043 80.4498 27.5652 80.4462 27.6306L79.5557 27.5812C79.5369 27.92 79.7713 28.1241 79.9558 28.2222C80.1384 28.3193 80.373 28.3757 80.6226 28.4121L80.7514 27.5295ZM80.4466 27.6217L80.7823 18.1339L79.891 18.1024L79.5553 27.5901L80.4466 27.6217ZM80.7826 18.1182C80.7826 18.1909 80.7573 18.254 80.7253 18.2981C80.7109 18.3179 80.6974 18.331 80.6886 18.3385C80.6841 18.3423 80.6806 18.3449 80.6783 18.3466C80.6759 18.3482 80.6747 18.3489 80.6746 18.349C80.6746 18.349 80.6756 18.3484 80.6778 18.3473C80.6801 18.3461 80.6833 18.3446 80.6877 18.3427C80.6966 18.3388 80.7092 18.334 80.726 18.3284C80.7602 18.3172 80.8068 18.305 80.868 18.293C81.1209 18.2432 81.5308 18.2138 82.1175 18.2138V17.3219C81.5169 17.3219 81.0365 17.3509 80.6958 17.4179C80.5294 17.4506 80.36 17.499 80.2213 17.5809C80.0817 17.6633 79.8907 17.8345 79.8907 18.1182H80.7826ZM82.1175 18.2138C82.4449 18.2138 82.8549 18.2412 83.3508 18.2984L83.4531 17.4124C82.937 17.3529 82.4906 17.3219 82.1175 17.3219V18.2138ZM83.3593 18.2993C83.5969 18.3222 83.7514 18.3553 83.8413 18.3879C83.8854 18.4038 83.8979 18.414 83.8936 18.4108C83.8878 18.4064 83.8534 18.3782 83.831 18.3185L84.6661 18.0054C84.5652 17.7363 84.3164 17.6114 84.1449 17.5493C83.9526 17.4796 83.713 17.4374 83.4446 17.4115L83.3593 18.2993ZM83.8284 18.3114L85.4632 22.9093L86.3035 22.6105L84.6687 18.0126L83.8284 18.3114ZM86.3093 22.8919L87.7397 18.2795L86.8879 18.0153L85.4574 22.6278L86.3093 22.8919ZM87.7352 18.2932C87.7019 18.3895 87.639 18.4049 87.6884 18.3802C87.7309 18.359 87.8169 18.329 87.9656 18.301C88.2603 18.2454 88.7093 18.2138 89.3281 18.2138V17.3219C88.6916 17.3219 88.1772 17.3535 87.8005 17.4245C87.6135 17.4597 87.4368 17.5088 87.2895 17.5825C87.1491 17.6527 86.9695 17.7787 86.8924 18.0015L87.7352 18.2932ZM89.3281 18.2138C89.6655 18.2138 90.0754 18.2413 90.5605 18.2983L90.6647 17.4126C90.1572 17.3529 89.7108 17.3219 89.3281 17.3219V18.2138ZM90.5699 18.2993C90.8123 18.3226 90.9566 18.3537 91.0288 18.3801C91.0659 18.3937 91.0535 18.3953 91.0252 18.3696C90.9885 18.3365 90.9257 18.2552 90.9257 18.1328H91.8176C91.8176 17.9422 91.7231 17.7983 91.6232 17.708C91.5316 17.6252 91.4244 17.5751 91.3349 17.5424C91.1541 17.4763 90.919 17.4369 90.6553 17.4115L90.5699 18.2993ZM90.9261 18.1525L91.3494 27.7278L92.2404 27.6884L91.8171 18.1131L90.9261 18.1525ZM91.349 27.7081C91.349 27.5872 91.4075 27.5031 91.4481 27.4635C91.4815 27.431 91.5038 27.4258 91.4834 27.4342C91.4432 27.4506 91.3473 27.4764 91.169 27.4993L91.2824 28.3839C91.4836 28.3581 91.6722 28.3207 91.8219 28.2593C91.8963 28.2288 91.9898 28.181 92.0706 28.1023C92.1586 28.0164 92.2409 27.8824 92.2409 27.7081H91.349ZM91.169 27.4993C90.8028 27.5462 90.4867 27.5687 90.2185 27.5687V28.4605C90.5342 28.4605 90.8895 28.4343 91.2824 28.3839L91.169 27.4993ZM98.1769 27.6059L97.986 27.2029L97.9681 27.2114L97.9511 27.2214L98.1769 27.6059ZM93.3747 27.168L93.0593 27.4833L93.0617 27.4857L93.3747 27.168ZM93.3309 21.6213L93.0001 21.3223L92.9978 21.3248L93.3309 21.6213ZM98.0017 21.3002L97.6955 21.6244L97.6985 21.6272L98.0017 21.3002ZM95.0824 25.4748V25.0289H94.6365V25.4748H95.0824ZM95.316 26.0879L95.0484 26.4446L95.0608 26.4539L95.0737 26.4623L95.316 26.0879ZM97.9725 25.7813L98.1745 26.1789L98.2377 26.1468L98.2879 26.0967L97.9725 25.7813ZM98.1039 25.9857L97.7104 26.1956L97.7145 26.203L98.1039 25.9857ZM95.2722 22.9496L95.5603 23.29L95.5624 23.2882L95.2722 22.9496ZM95.0824 23.8838H94.6365V24.3297H95.0824V23.8838ZM97.9511 27.2214C97.4266 27.5294 96.7234 27.7 95.8123 27.7V28.5919C96.8279 28.5919 97.7011 28.4025 98.4027 27.9904L97.9511 27.2214ZM95.8123 27.7C94.9612 27.7 94.2625 27.4168 93.6876 26.8503L93.0617 27.4857C93.8102 28.2232 94.7366 28.5919 95.8123 28.5919V27.7ZM93.69 26.8527C93.1308 26.2935 92.828 25.5079 92.828 24.4385H91.9362C91.9362 25.685 92.2951 26.7191 93.0593 27.4833L93.69 26.8527ZM92.828 24.4385C92.828 23.3541 93.1197 22.529 93.6639 21.9179L92.9978 21.3248C92.277 22.1343 91.9362 23.1874 91.9362 24.4385H92.828ZM93.6617 21.9204C94.2178 21.3053 94.9045 21.0017 95.7539 21.0017V20.1099C94.657 20.1099 93.7284 20.5167 93.0001 21.3223L93.6617 21.9204ZM95.7539 21.0017C96.6534 21.0017 97.2781 21.2302 97.6956 21.6244L98.3079 20.976C97.6744 20.3777 96.8006 20.1099 95.7539 20.1099V21.0017ZM97.6985 21.6272C98.1456 22.0417 98.3586 22.5277 98.3586 23.1102H99.2505C99.2505 22.2719 98.9283 21.5513 98.305 20.9732L97.6985 21.6272ZM98.3586 23.1102C98.3586 23.8124 98.1599 24.2626 97.8329 24.5474C97.4942 24.8424 96.9398 25.0289 96.0896 25.0289V25.9207C97.0494 25.9207 97.8525 25.7131 98.4187 25.2199C98.9967 24.7165 99.2505 23.9844 99.2505 23.1102H98.3586ZM96.0896 25.0289H95.0824V25.9207H96.0896V25.0289ZM94.6365 25.4748C94.6365 25.8344 94.7328 26.2079 95.0484 26.4446L95.5835 25.7311C95.5812 25.7294 95.5703 25.7217 95.5576 25.6883C95.5432 25.6506 95.5284 25.5836 95.5284 25.4748H94.6365ZM95.0737 26.4623C95.3419 26.6358 95.6796 26.6944 96.0312 26.6944V25.8025C95.7601 25.8025 95.6209 25.754 95.5582 25.7135L95.0737 26.4623ZM96.0312 26.6944C96.7833 26.6944 97.4995 26.5218 98.1745 26.1789L97.7706 25.3837C97.2195 25.6637 96.6415 25.8025 96.0312 25.8025V26.6944ZM98.2879 26.0967C98.2033 26.1812 98.09 26.2264 97.9748 26.2264C97.8758 26.2264 97.8028 26.1934 97.7679 26.1748C97.7016 26.1394 97.663 26.0959 97.6575 26.09C97.6373 26.0679 97.6293 26.0533 97.6376 26.0663C97.6492 26.0844 97.6726 26.1246 97.7104 26.1955L98.4974 25.7758C98.4574 25.7008 98.42 25.634 98.3878 25.584C98.3742 25.5629 98.3486 25.524 98.315 25.4873C98.3028 25.474 98.2586 25.4257 98.1876 25.3879C98.1505 25.368 98.0755 25.3345 97.9748 25.3345C97.8578 25.3345 97.743 25.3802 97.6572 25.466L98.2879 26.0967ZM97.7145 26.203C97.9322 26.5929 98.0083 26.8694 98.0083 27.0512H98.9002C98.9002 26.6492 98.7428 26.2153 98.4933 25.7683L97.7145 26.203ZM98.0083 27.0512C98.0083 27.1471 97.9921 27.19 97.986 27.2021C97.9836 27.2071 97.9831 27.2065 97.9857 27.2039C97.9884 27.2012 97.9896 27.2012 97.986 27.2029L98.3678 28.0089C98.7672 27.8197 98.9002 27.4295 98.9002 27.0512H98.0083ZM96.7983 23.3875C96.7983 23.1171 96.7323 22.8318 96.5218 22.6162C96.3094 22.3986 96.0249 22.3285 95.7539 22.3285V23.2204C95.8819 23.2204 95.8966 23.2525 95.8836 23.2392C95.8726 23.2279 95.9064 23.2492 95.9064 23.3875H96.7983ZM95.7539 22.3285C95.4661 22.3285 95.2017 22.4227 94.982 22.611L95.5624 23.2882C95.6152 23.243 95.6719 23.2204 95.7539 23.2204V22.3285ZM94.9842 22.6092C94.7299 22.8243 94.6365 23.1271 94.6365 23.4313H95.5284C95.5284 23.3672 95.5379 23.3311 95.5448 23.3138C95.5506 23.2991 95.5556 23.294 95.5602 23.29L94.9842 22.6092ZM94.6365 23.4313V23.8838H95.5284V23.4313H94.6365ZM95.0824 24.3297H95.8707V23.4379H95.0824V24.3297ZM95.8707 24.3297C96.1034 24.3297 96.3591 24.269 96.5519 24.0703C96.7424 23.8741 96.7983 23.6184 96.7983 23.3875H95.9064C95.9064 23.4355 95.9004 23.4597 95.8979 23.4674C95.8961 23.473 95.8986 23.4629 95.9119 23.4491C95.9256 23.4351 95.9375 23.4307 95.9365 23.431C95.9333 23.4321 95.9139 23.4379 95.8707 23.4379V24.3297Z" fill="#7B3F23"/>
</g>
<path d="M15.4556 19.4404C16.0608 19.036 16.7722 18.8202 17.5 18.8202C18.4759 18.8202 19.4119 19.2079 20.102 19.898C20.7921 20.5881 21.1798 21.5241 21.1798 22.5C21.1798 23.2278 20.964 23.9392 20.5596 24.5444C20.1553 25.1495 19.5806 25.6212 18.9082 25.8997C18.2358 26.1782 17.4959 26.2511 16.7821 26.1091C16.0683 25.9671 15.4126 25.6166 14.898 25.102C14.3834 24.5874 14.0329 23.9317 13.8909 23.2179C13.7489 22.5041 13.8218 21.7642 14.1003 21.0918C14.3788 20.4194 14.8505 19.8447 15.4556 19.4404ZM16.8203 23.5173C17.0215 23.6517 17.258 23.7234 17.5 23.7234C17.8245 23.7234 18.1357 23.5945 18.3651 23.3651C18.5945 23.1357 18.7234 22.8245 18.7234 22.5C18.7234 22.258 18.6517 22.0215 18.5173 21.8203C18.3828 21.6191 18.1918 21.4623 17.9682 21.3697C17.7446 21.2771 17.4986 21.2529 17.2613 21.3001C17.024 21.3473 16.806 21.4638 16.6349 21.6349C16.4638 21.806 16.3473 22.024 16.3001 22.2613C16.2529 22.4986 16.2771 22.7446 16.3697 22.9682C16.4623 23.1918 16.6191 23.3828 16.8203 23.5173ZM8.30409 22.5C8.30409 17.42 12.42 13.3041 17.5 13.3041C22.58 13.3041 26.6959 17.42 26.6959 22.5C26.6959 27.58 22.58 31.6959 17.5 31.6959C12.42 31.6959 8.30409 27.58 8.30409 22.5ZM14.607 26.8297C15.4633 27.4019 16.4701 27.7073 17.5 27.7073C18.8811 27.7073 20.2056 27.1587 21.1821 26.1821C22.1587 25.2056 22.7073 23.8811 22.7073 22.5C22.7073 21.4701 22.4019 20.4633 21.8297 19.607C21.2575 18.7506 20.4443 18.0832 19.4928 17.6891C18.5412 17.2949 17.4942 17.1918 16.4841 17.3927C15.474 17.5937 14.5461 18.0896 13.8179 18.8179C13.0896 19.5461 12.5937 20.474 12.3927 21.4841C12.1918 22.4942 12.2949 23.5412 12.6891 24.4928C13.0832 25.4443 13.7506 26.2575 14.607 26.8297Z" fill="white" stroke="#7B3F23" stroke-width="0.608187"/>
<defs>
<filter id="filter0_d_75_2192" x="0.567251" y="0" width="108.865" height="49.8655" filterUnits="userSpaceOnUse" color-interpolation-filters="sRGB">
<feFlood flood-opacity="0" result="BackgroundImageFix"/>
<feColorMatrix in="SourceAlpha" type="matrix" values="0 0 0 0 0 0 0 0 0 0 0 0 0 0 0 0 0 0 127 0" result="hardAlpha"/>
<feOffset dy="2.43275"/>
<feGaussianBlur stdDeviation="1.21637"/>
<feComposite in2="hardAlpha" operator="out"/>
<feColorMatrix type="matrix" values="0 0 0 0 0 0 0 0 0 0 0 0 0 0 0 0 0 0 0.25 0"/>
<feBlend mode="normal" in2="BackgroundImageFix" result="effect1_dropShadow_75_2192"/>
<feBlend mode="normal" in="SourceGraphic" in2="effect1_dropShadow_75_2192" result="shape"/>
</filter>
<filter id="filter1_d_75_2192" x="32.7864" y="17.6511" width="66.0181" height="11.3867" filterUnits="userSpaceOnUse" color-interpolation-filters="sRGB">
<feFlood flood-opacity="0" result="BackgroundImageFix"/>
<feColorMatrix in="SourceAlpha" type="matrix" values="0 0 0 0 0 0 0 0 0 0 0 0 0 0 0 0 0 0 127 0" result="hardAlpha"/>
<feOffset dy="0.891874"/>
<feComposite in2="hardAlpha" operator="out"/>
<feColorMatrix type="matrix" values="0 0 0 0 0.0313726 0 0 0 0 0.00784314 0 0 0 0 0.0235294 0 0 0 1 0"/>
<feBlend mode="normal" in2="BackgroundImageFix" result="effect1_dropShadow_75_2192"/>
<feBlend mode="normal" in="SourceGraphic" in2="effect1_dropShadow_75_2192" result="shape"/>
</filter>
</defs>
</svg>
