<svg width="102" height="52" viewBox="0 0 102 52" fill="none" xmlns="http://www.w3.org/2000/svg">
<g filter="url(#filter0_d_75_2186)">
<rect x="4" width="94" height="45" rx="19.2623" fill="#EEA812"/>
<rect x="4.77049" y="0.770492" width="92.459" height="43.459" rx="18.4918" stroke="#7B3F23" stroke-width="1.54098"/>
</g>
<g filter="url(#filter1_d_75_2186)">
<path d="M39.588 27.7947C39.588 27.9919 39.0025 28.0906 37.8313 28.0906C36.6478 28.0906 36.0561 27.9981 36.0561 27.8132V15.7565C36.0561 15.3251 36.2842 15.1093 36.7403 15.1093H40.2722C43.5145 15.1093 45.1356 16.3729 45.1356 18.9001C45.1356 19.6645 44.9876 20.361 44.6918 20.9897C44.3959 21.6061 43.9768 22.0992 43.4343 22.4691L45.7643 26.3523C45.6657 26.6482 45.3451 26.9872 44.8027 27.3694C44.0631 27.8995 43.4528 28.1645 42.972 28.1645C42.4912 28.1645 42.1337 27.9919 41.8995 27.6468L40.1613 23.5971H39.588V27.7947ZM39.588 18.3824V21.1561H39.6805C40.8516 21.1561 41.4372 20.6692 41.4372 19.6953C41.4372 19.2515 41.3201 18.9248 41.0859 18.7152C40.864 18.4933 40.4941 18.3824 39.9764 18.3824H39.588ZM53.2136 27.5543C52.4369 28.0104 51.4384 28.2385 50.2179 28.2385C48.9975 28.2385 47.9681 27.8255 47.1298 26.9996C46.2915 26.1613 45.8724 25.0086 45.8724 23.5416C45.8724 22.0622 46.273 20.8726 47.0743 19.9727C47.888 19.0727 48.9112 18.6228 50.144 18.6228C51.3768 18.6228 52.326 18.9371 52.9917 19.5659C53.6697 20.1946 54.0088 20.9589 54.0088 21.8588C54.0088 23.8559 52.8623 24.8545 50.5693 24.8545H49.2933C49.2933 25.2243 49.392 25.4832 49.5892 25.6312C49.7988 25.7668 50.1008 25.8346 50.4953 25.8346C51.3583 25.8346 52.1781 25.6373 52.9547 25.2428C52.967 25.2305 53.0225 25.3168 53.1211 25.5017C53.417 26.0318 53.565 26.4818 53.565 26.8516C53.565 27.2091 53.4478 27.4434 53.2136 27.5543ZM50.9021 22.2102C50.9021 21.6924 50.6494 21.4335 50.144 21.4335C49.9097 21.4335 49.7063 21.5075 49.5337 21.6554C49.3735 21.791 49.2933 21.9944 49.2933 22.2657V22.8389H50.2919C50.6987 22.8389 50.9021 22.6293 50.9021 22.2102ZM57.6022 23.4676C57.6022 24.6758 58.0584 25.2798 58.9706 25.2798C59.5624 25.2798 60.0555 25.1627 60.45 24.9285C60.6349 24.9285 60.7828 25.249 60.8938 25.89C61.017 26.5188 61.0787 26.9502 61.0787 27.1845C61.0787 27.4064 61.0479 27.5543 60.9862 27.6283C60.3329 28.0351 59.4391 28.2385 58.3049 28.2385C57.1708 28.2385 56.203 27.8194 55.4017 26.9811C54.6127 26.1304 54.2182 24.9778 54.2182 23.5231C54.2182 22.0561 54.6066 20.8726 55.3832 19.9727C56.1722 19.0727 57.2139 18.6228 58.5083 18.6228C59.8151 18.6228 60.7212 18.9371 61.2266 19.5659C61.3376 19.7015 61.393 19.9049 61.393 20.1761C61.393 20.435 61.3437 20.7555 61.2451 21.1377C61.0232 21.9266 60.7335 22.3828 60.376 22.506C60.3267 22.5184 60.2527 22.5245 60.1541 22.5245C60.0678 22.5245 59.9569 22.4506 59.8212 22.3026C59.3405 21.8219 58.9521 21.5815 58.6563 21.5815C58.3727 21.5815 58.1262 21.7294 57.9166 22.0253C57.707 22.3211 57.6022 22.8019 57.6022 23.4676ZM62.5549 26.9626C61.7905 26.1119 61.4084 24.9346 61.4084 23.4306C61.4084 21.9266 61.7905 20.7493 62.5549 19.8987C63.3315 19.0481 64.3732 18.6228 65.68 18.6228C66.9867 18.6228 68.0223 19.0481 68.7866 19.8987C69.5509 20.7493 69.9331 21.9266 69.9331 23.4306C69.9331 24.9346 69.5509 26.1119 68.7866 26.9626C68.0223 27.8132 66.9867 28.2385 65.68 28.2385C64.3732 28.2385 63.3315 27.8132 62.5549 26.9626ZM65.68 21.7109C64.9896 21.7109 64.6444 22.278 64.6444 23.4121C64.6444 24.5463 64.9896 25.1134 65.68 25.1134C66.3827 25.1134 66.734 24.5463 66.734 23.4121C66.734 22.278 66.3827 21.7109 65.68 21.7109ZM74.6429 28.0351C74.6429 28.1214 74.0819 28.1645 72.9601 28.1645C71.8383 28.1399 71.2774 28.0906 71.2774 28.0166V21.8773H70.7781C70.5808 21.8773 70.4206 21.7602 70.2973 21.526C70.1863 21.2794 70.1309 20.9774 70.1309 20.6199C70.1309 19.2885 70.5254 18.6228 71.3143 18.6228C71.8691 18.6228 72.3314 18.7954 72.7012 19.1405C73.0711 19.4734 73.256 19.8556 73.256 20.287C73.5149 19.7816 73.86 19.3809 74.2915 19.0851C74.7353 18.7769 75.1853 18.6228 75.6414 18.6228C76.3564 18.6228 76.7879 18.8077 76.9358 19.1775C76.9728 19.2761 76.9913 19.4241 76.9913 19.6213C76.9913 19.8062 76.9297 20.1453 76.8064 20.6384C76.6955 21.1315 76.5783 21.489 76.4551 21.7109C76.3318 21.9328 76.2578 22.0438 76.2332 22.0438C76.2085 22.0438 76.0914 22.0006 75.8818 21.9143C75.6846 21.8157 75.5058 21.7664 75.3455 21.7664C74.8771 21.7664 74.6429 22.1362 74.6429 22.8759V28.0351ZM81.9561 15.2203C81.9561 15.0354 82.443 14.9429 83.4169 14.9429C83.7498 14.9429 84.132 14.9676 84.5634 15.0169C85.0072 15.0539 85.2291 15.1093 85.2291 15.1833V24.9285H85.8763C86.1845 24.9285 86.388 25.2059 86.4866 25.7606C86.5112 25.9209 86.5236 26.1428 86.5236 26.4263C86.5236 26.6975 86.4373 27.0304 86.2647 27.4249C86.0181 27.9673 85.6236 28.2385 85.0812 28.2385C84.6744 28.2385 84.3107 28.1584 83.9902 27.9981C83.682 27.8379 83.4724 27.6714 83.3615 27.4988L83.195 27.2584C82.517 27.9118 81.6664 28.2385 80.6432 28.2385C79.62 28.2385 78.7447 27.8132 78.0173 26.9626C77.29 26.1119 76.9263 24.9285 76.9263 23.4121C76.9263 21.8835 77.3085 20.7062 78.0728 19.8802C78.8371 19.0419 79.7925 18.6228 80.939 18.6228C81.2719 18.6228 81.6109 18.6598 81.9561 18.7337V15.2203ZM81.3459 21.5815C80.6555 21.5815 80.3103 22.204 80.3103 23.4491C80.3103 24.0779 80.4089 24.534 80.6062 24.8175C80.8034 25.0887 81.0192 25.2243 81.2534 25.2243C81.5 25.2243 81.7342 25.1196 81.9561 24.91V21.7664C81.7465 21.6431 81.5431 21.5815 81.3459 21.5815Z" fill="#FEFDFB"/>
<path d="M44.6918 20.9897L45.2011 21.2342L45.2029 21.2303L44.6918 20.9897ZM43.4343 22.4691L43.1161 22.0023L42.6756 22.3026L42.9499 22.7597L43.4343 22.4691ZM45.7643 26.3523L46.3002 26.531L46.3824 26.2845L46.2487 26.0617L45.7643 26.3523ZM44.8027 27.3694L44.4773 26.9075L44.4736 26.9102L44.8027 27.3694ZM41.8995 27.6468L41.3804 27.8696L41.4017 27.9193L41.432 27.964L41.8995 27.6468ZM40.1613 23.5971L40.6804 23.3742L40.5336 23.0321H40.1613V23.5971ZM39.588 23.5971V23.0321H39.0231V23.5971H39.588ZM39.588 18.3824V17.8174H39.0231V18.3824H39.588ZM39.588 21.1561H39.0231V21.7211H39.588V21.1561ZM41.0859 18.7152L40.6864 19.1147L40.6975 19.1258L40.7092 19.1362L41.0859 18.7152ZM39.0231 27.7947C39.0231 27.666 39.075 27.5632 39.1298 27.4986C39.177 27.4429 39.2205 27.4214 39.2235 27.4199C39.2264 27.4184 39.183 27.438 39.055 27.4595C38.8103 27.5007 38.4095 27.5256 37.8313 27.5256V28.6555C38.4243 28.6555 38.9018 28.6311 39.2427 28.5737C39.4075 28.5459 39.5837 28.5038 39.733 28.4284C39.8621 28.3631 40.153 28.1745 40.153 27.7947H39.0231ZM37.8313 27.5256C37.2464 27.5256 36.8382 27.5023 36.5871 27.4631C36.5265 27.4536 36.4809 27.444 36.4481 27.4355C36.4139 27.4266 36.4028 27.4211 36.4068 27.423C36.407 27.4231 36.4511 27.4426 36.5008 27.497C36.5588 27.5604 36.621 27.6697 36.621 27.8132H35.4912C35.4912 28.2122 35.8144 28.3932 35.9273 28.4461C36.0743 28.515 36.2481 28.5537 36.4127 28.5794C36.7533 28.6326 37.2328 28.6555 37.8313 28.6555V27.5256ZM36.621 27.8132V15.7565H35.4912V27.8132H36.621ZM36.621 15.7565C36.621 15.6969 36.6291 15.6685 36.6317 15.6611C36.6332 15.6569 36.6295 15.6682 36.6154 15.6815C36.5853 15.71 36.5917 15.6743 36.7403 15.6743V14.5444C36.4327 14.5444 36.097 14.6165 35.8389 14.8607C35.5749 15.1105 35.4912 15.4455 35.4912 15.7565H36.621ZM36.7403 15.6743H40.2722V14.5444H36.7403V15.6743ZM40.2722 15.6743C41.8355 15.6743 42.904 15.9815 43.5724 16.5026C44.2142 17.0028 44.5706 17.7664 44.5706 18.9001H45.7005C45.7005 17.5067 45.2464 16.3749 44.267 15.6115C43.3144 14.8689 41.9512 14.5444 40.2722 14.5444V15.6743ZM44.5706 18.9001C44.5706 19.5897 44.4376 20.203 44.1806 20.7492L45.2029 21.2303C45.5376 20.519 45.7005 19.7392 45.7005 18.9001H44.5706ZM44.1825 20.7453C43.9278 21.2759 43.5729 21.6908 43.1161 22.0023L43.7526 22.9358C44.3806 22.5076 44.8641 21.9363 45.2011 21.2342L44.1825 20.7453ZM42.9499 22.7597L45.2799 26.643L46.2487 26.0617L43.9188 22.1784L42.9499 22.7597ZM45.2283 26.1737C45.1921 26.2825 45.0111 26.5315 44.4773 26.9076L45.1281 27.8312C45.6792 27.443 46.1393 27.014 46.3002 26.531L45.2283 26.1737ZM44.4736 26.9102C43.7567 27.424 43.2687 27.5996 42.972 27.5996V28.7295C43.6369 28.7295 44.3694 28.375 45.1318 27.8286L44.4736 26.9102ZM42.972 27.5996C42.6454 27.5996 42.4787 27.4943 42.367 27.3296L41.432 27.964C41.7887 28.4896 42.3371 28.7295 42.972 28.7295V27.5996ZM42.4187 27.4239L40.6804 23.3742L39.6421 23.8199L41.3804 27.8696L42.4187 27.4239ZM40.1613 23.0321H39.588V24.162H40.1613V23.0321ZM39.0231 23.5971V27.7947H40.153V23.5971H39.0231ZM39.0231 18.3824V21.1561H40.153V18.3824H39.0231ZM39.588 21.7211H39.6805V20.5912H39.588V21.7211ZM39.6805 21.7211C40.3304 21.7211 40.9229 21.5881 41.3593 21.2253C41.8155 20.8459 42.0022 20.2995 42.0022 19.6953H40.8723C40.8723 20.0649 40.7661 20.249 40.6368 20.3566C40.4875 20.4807 40.2018 20.5912 39.6805 20.5912V21.7211ZM42.0022 19.6953C42.0022 19.159 41.8594 18.6493 41.4626 18.2942L40.7092 19.1362C40.7808 19.2003 40.8723 19.344 40.8723 19.6953H42.0022ZM41.4853 18.3158C41.1064 17.9368 40.5515 17.8174 39.9764 17.8174V18.9473C40.4368 18.9473 40.6216 19.0499 40.6864 19.1147L41.4853 18.3158ZM39.9764 17.8174H39.588V18.9473H39.9764V17.8174ZM53.2136 27.5543L52.9718 27.0437L52.9491 27.0545L52.9275 27.0672L53.2136 27.5543ZM47.1298 26.9996L46.7303 27.399L46.7333 27.402L47.1298 26.9996ZM47.0743 19.9727L46.6553 19.5938L46.6524 19.597L47.0743 19.9727ZM52.9917 19.5659L52.6038 19.9766L52.6076 19.9801L52.9917 19.5659ZM49.2933 24.8545V24.2896H48.7284V24.8545H49.2933ZM49.5892 25.6312L49.2502 26.0831L49.2659 26.0948L49.2823 26.1055L49.5892 25.6312ZM52.9547 25.2428L53.2106 25.7465L53.2907 25.7058L53.3542 25.6423L52.9547 25.2428ZM53.1211 25.5017L52.6226 25.7676L52.6278 25.7771L53.1211 25.5017ZM49.5337 21.6554L49.8987 22.0867L49.9014 22.0844L49.5337 21.6554ZM49.2933 22.8389H48.7284V23.4038H49.2933V22.8389ZM52.9275 27.0672C52.2631 27.4574 51.3722 27.6736 50.2179 27.6736V28.8034C51.5046 28.8034 52.6108 28.5635 53.4997 28.0415L52.9275 27.0672ZM50.2179 27.6736C49.1397 27.6736 48.2546 27.3147 47.5263 26.5971L46.7333 27.402C47.6816 28.3363 48.8552 28.8034 50.2179 28.8034V27.6736ZM47.5293 26.6001C46.8209 25.8917 46.4373 24.8965 46.4373 23.5416H45.3074C45.3074 25.1207 45.7621 26.4308 46.7303 27.399L47.5293 26.6001ZM46.4373 23.5416C46.4373 22.1678 46.8068 21.1226 47.4963 20.3484L46.6524 19.597C45.7392 20.6226 45.3074 21.9567 45.3074 23.5416H46.4373ZM47.4934 20.3515C48.198 19.5722 49.0679 19.1877 50.144 19.1877V18.0578C48.7544 18.0578 47.578 18.5732 46.6553 19.5938L47.4934 20.3515ZM50.144 19.1877C51.2835 19.1877 52.0749 19.4771 52.6038 19.9766L53.3796 19.1551C52.5771 18.3972 51.47 18.0578 50.144 18.0578V19.1877ZM52.6076 19.9801C53.1739 20.5052 53.4438 21.121 53.4438 21.8588H54.5737C54.5737 20.7968 54.1656 19.8839 53.3758 19.1516L52.6076 19.9801ZM53.4438 21.8588C53.4438 22.7484 53.1921 23.3188 52.7778 23.6796C52.3487 24.0534 51.6464 24.2896 50.5693 24.2896V25.4194C51.7852 25.4194 52.8026 25.1564 53.5199 24.5316C54.2522 23.8938 54.5737 22.9663 54.5737 21.8588H53.4438ZM50.5693 24.2896H49.2933V25.4194H50.5693V24.2896ZM48.7284 24.8545C48.7284 25.31 48.8504 25.7832 49.2502 26.0831L49.9282 25.1792C49.9252 25.177 49.9114 25.1673 49.8952 25.1249C49.8771 25.0773 49.8583 24.9924 49.8583 24.8545H48.7284ZM49.2823 26.1055C49.6221 26.3253 50.0498 26.3995 50.4953 26.3995V25.2696C50.1518 25.2696 49.9755 25.2082 49.8961 25.1569L49.2823 26.1055ZM50.4953 26.3995C51.448 26.3995 52.3554 26.1809 53.2106 25.7465L52.6989 24.7391C52.0007 25.0938 51.2685 25.2696 50.4953 25.2696V26.3995ZM53.3542 25.6423C53.2471 25.7494 53.1035 25.8066 52.9575 25.8066C52.8321 25.8066 52.7397 25.7649 52.6955 25.7413C52.6115 25.6965 52.5626 25.6414 52.5556 25.6338C52.5299 25.6058 52.5198 25.5874 52.5304 25.6038C52.5451 25.6267 52.5748 25.6778 52.6227 25.7676L53.6196 25.2359C53.5689 25.1408 53.5215 25.0562 53.4808 24.9928C53.4636 24.966 53.4311 24.9168 53.3885 24.8703C53.3731 24.8535 53.317 24.7923 53.2272 24.7444C53.1802 24.7193 53.0852 24.6767 52.9575 24.6767C52.8094 24.6767 52.6639 24.7347 52.5552 24.8434L53.3542 25.6423ZM52.6278 25.7771C52.9036 26.271 53 26.6213 53 26.8516H54.1299C54.1299 26.3423 53.9305 25.7926 53.6145 25.2264L52.6278 25.7771ZM53 26.8516C53 26.973 52.9795 27.0274 52.9718 27.0428C52.9687 27.0491 52.9681 27.0483 52.9714 27.045C52.9748 27.0417 52.9763 27.0416 52.9718 27.0437L53.4555 28.0649C53.9614 27.8252 54.1299 27.3308 54.1299 26.8516H53ZM51.4671 22.2102C51.4671 21.8676 51.3835 21.5062 51.1168 21.2331C50.8477 20.9574 50.4873 20.8686 50.144 20.8686V21.9985C50.3061 21.9985 50.3247 22.0391 50.3083 22.0223C50.2944 22.008 50.3372 22.035 50.3372 22.2102H51.4671ZM50.144 20.8686C49.7794 20.8686 49.4444 20.9879 49.1661 21.2265L49.9014 22.0844C49.9682 22.0271 50.0401 21.9985 50.144 21.9985V20.8686ZM49.1688 21.2242C48.8467 21.4967 48.7284 21.8803 48.7284 22.2657H49.8583C49.8583 22.1845 49.8704 22.1388 49.8791 22.1168C49.8864 22.0982 49.8928 22.0917 49.8987 22.0867L49.1688 21.2242ZM48.7284 22.2657V22.8389H49.8583V22.2657H48.7284ZM49.2933 23.4038H50.2919V22.274H49.2933V23.4038ZM50.2919 23.4038C50.5867 23.4038 50.9106 23.3269 51.155 23.0752C51.3963 22.8266 51.4671 22.5027 51.4671 22.2102H50.3372C50.3372 22.271 50.3296 22.3017 50.3265 22.3113C50.3242 22.3185 50.3273 22.3057 50.3442 22.2883C50.3614 22.2705 50.3766 22.2649 50.3754 22.2653C50.3713 22.2667 50.3467 22.274 50.2919 22.274V23.4038ZM60.45 24.9285V24.3635H60.2949L60.1615 24.4427L60.45 24.9285ZM60.8938 25.89L60.337 25.9864L60.3394 25.9988L60.8938 25.89ZM60.9862 27.6283L61.2848 28.1079L61.362 28.0598L61.4202 27.9899L60.9862 27.6283ZM55.4017 26.9811L54.9875 27.3653L54.9933 27.3714L55.4017 26.9811ZM55.3832 19.9727L54.9584 19.6002L54.9555 19.6036L55.3832 19.9727ZM61.2266 19.5659L60.7863 19.9198L60.7894 19.9236L61.2266 19.5659ZM61.2451 21.1377L61.7891 21.2906L61.7921 21.2788L61.2451 21.1377ZM60.376 22.506L60.513 23.0541L60.5369 23.0482L60.5602 23.0401L60.376 22.506ZM59.8212 22.3026L60.2377 21.9209L60.2294 21.9118L60.2207 21.9032L59.8212 22.3026ZM57.9166 22.0253L58.3776 22.3518L58.3776 22.3518L57.9166 22.0253ZM57.0373 23.4676C57.0373 24.1266 57.1589 24.7241 57.4935 25.1672C57.8507 25.6403 58.3781 25.8448 58.9706 25.8448V24.7149C58.6509 24.7149 58.4941 24.6173 58.3952 24.4863C58.2737 24.3254 58.1672 24.0168 58.1672 23.4676H57.0373ZM58.9706 25.8448C59.635 25.8448 60.2348 25.7133 60.7384 25.4142L60.1615 24.4427C59.8762 24.6121 59.4897 24.7149 58.9706 24.7149V25.8448ZM60.45 25.4934C60.3158 25.4934 60.2259 25.4303 60.1899 25.3955C60.1615 25.3682 60.1652 25.3591 60.1867 25.4056C60.2295 25.4983 60.2842 25.6809 60.3371 25.9864L61.4504 25.7937C61.3924 25.4581 61.3177 25.1599 61.2126 24.9321C61.1311 24.7556 60.911 24.3635 60.45 24.3635V25.4934ZM60.3394 25.9988C60.4637 26.6329 60.5137 27.0129 60.5137 27.1845H61.6436C61.6436 26.8876 61.5704 26.4046 61.4482 25.7813L60.3394 25.9988ZM60.5137 27.1845C60.5137 27.2272 60.5122 27.2622 60.5099 27.2901C60.5076 27.3183 60.5046 27.3366 60.5025 27.3466C60.5003 27.3571 60.5001 27.354 60.5052 27.3416C60.5102 27.3295 60.5237 27.3008 60.5522 27.2666L61.4202 27.9899C61.5348 27.8525 61.5841 27.6951 61.6086 27.5771C61.6347 27.4521 61.6436 27.3179 61.6436 27.1845H60.5137ZM60.6876 27.1487C60.1567 27.4793 59.3804 27.6736 58.3049 27.6736V28.8034C59.4977 28.8034 60.509 28.5909 61.2848 28.1079L60.6876 27.1487ZM58.3049 27.6736C57.3289 27.6736 56.5075 27.3203 55.8101 26.5907L54.9933 27.3714C55.8985 28.3184 57.0126 28.8034 58.3049 28.8034V27.6736ZM55.8159 26.5969C55.1467 25.8754 54.7832 24.873 54.7832 23.5231H53.6533C53.6533 25.0825 54.0787 26.3854 54.9875 27.3652L55.8159 26.5969ZM54.7832 23.5231C54.7832 22.1587 55.1422 21.1167 55.8109 20.3418L54.9555 19.6036C54.071 20.6285 53.6533 21.9535 53.6533 23.5231H54.7832ZM55.808 20.3451C56.4802 19.5783 57.3617 19.1877 58.5083 19.1877V18.0578C57.0662 18.0578 55.8642 18.5671 54.9584 19.6002L55.808 20.3451ZM58.5083 19.1877C59.7491 19.1877 60.4401 19.4892 60.7863 19.9198L61.6669 19.2119C61.0022 18.3851 59.881 18.0578 58.5083 18.0578V19.1877ZM60.7894 19.9236C60.7831 19.916 60.8281 19.9675 60.8281 20.1761H61.958C61.958 19.8422 61.892 19.4869 61.6639 19.2081L60.7894 19.9236ZM60.8281 20.1761C60.8281 20.3694 60.7903 20.639 60.6981 20.9965L61.7921 21.2788C61.8971 20.8719 61.958 20.5005 61.958 20.1761H60.8281ZM60.7013 20.9847C60.5984 21.3506 60.4888 21.6044 60.3845 21.7686C60.2796 21.9339 60.2073 21.9666 60.1918 21.972L60.5602 23.0401C60.9023 22.9222 61.1536 22.6652 61.3383 22.3744C61.5237 22.0825 61.67 21.7137 61.789 21.2906L60.7013 20.9847ZM60.239 21.958C60.254 21.9542 60.2557 21.9553 60.2366 21.9569C60.2193 21.9584 60.1925 21.9596 60.1541 21.9596V23.0895C60.2643 23.0895 60.3946 23.0837 60.513 23.0541L60.239 21.958ZM60.1541 21.9596C60.2134 21.9596 60.2579 21.9722 60.2831 21.9817C60.296 21.9865 60.3053 21.9911 60.3109 21.994C60.3166 21.997 60.3195 21.999 60.3195 21.999C60.3196 21.9991 60.3176 21.9977 60.3135 21.9944C60.3093 21.9912 60.3036 21.9864 60.2963 21.9798C60.2813 21.9664 60.2618 21.9472 60.2377 21.9209L59.4048 22.6844C59.4895 22.7768 59.5857 22.8677 59.6928 22.9391C59.7941 23.0067 59.9539 23.0895 60.1541 23.0895V21.9596ZM60.2207 21.9032C59.9629 21.6454 59.7112 21.4327 59.4668 21.2814C59.228 21.1336 58.9517 21.0165 58.6563 21.0165V22.1464C58.6539 22.1464 58.6698 22.146 58.7082 22.1595C58.7469 22.1731 58.8012 22.1982 58.872 22.2421C59.0159 22.3312 59.1988 22.4791 59.4218 22.7021L60.2207 21.9032ZM58.6563 21.0165C58.1392 21.0165 57.7382 21.2997 57.4556 21.6987L58.3776 22.3518C58.5141 22.1591 58.6062 22.1464 58.6563 22.1464V21.0165ZM57.4556 21.6987C57.142 22.1414 57.0373 22.7696 57.0373 23.4676H58.1672C58.1672 22.8342 58.272 22.5008 58.3776 22.3518L57.4556 21.6987ZM62.5549 26.9626L62.1346 27.3402L62.1377 27.3435L62.5549 26.9626ZM62.5549 19.8987L62.1376 19.5178L62.1346 19.5211L62.5549 19.8987ZM68.7866 19.8987L68.3664 20.2763L68.7866 19.8987ZM68.7866 26.9626L68.3664 26.585L68.7866 26.9626ZM62.9751 26.585C62.3301 25.8672 61.9733 24.8401 61.9733 23.4306H60.8434C60.8434 25.0292 61.2509 26.3567 62.1346 27.3402L62.9751 26.585ZM61.9733 23.4306C61.9733 22.0212 62.3301 20.9941 62.9751 20.2763L62.1346 19.5211C61.2509 20.5046 60.8434 21.8321 60.8434 23.4306H61.9733ZM62.9721 20.2796C63.6267 19.5626 64.5084 19.1877 65.68 19.1877V18.0578C64.2381 18.0578 63.0363 18.5336 62.1377 19.5178L62.9721 20.2796ZM65.68 19.1877C66.8517 19.1877 67.725 19.5625 68.3664 20.2763L69.2068 19.5211C68.3195 18.5336 67.1217 18.0578 65.68 18.0578V19.1877ZM68.3664 20.2763C69.0113 20.9941 69.3681 22.0212 69.3681 23.4306H70.498C70.498 21.8321 70.0905 20.5046 69.2068 19.5211L68.3664 20.2763ZM69.3681 23.4306C69.3681 24.8401 69.0113 25.8672 68.3664 26.585L69.2068 27.3402C70.0905 26.3567 70.498 25.0292 70.498 23.4306H69.3681ZM68.3664 26.585C67.725 27.2988 66.8517 27.6736 65.68 27.6736V28.8034C67.1217 28.8034 68.3195 28.3276 69.2068 27.3402L68.3664 26.585ZM65.68 27.6736C64.5084 27.6736 63.6267 27.2987 62.9721 26.5816L62.1377 27.3435C63.0363 28.3277 64.2381 28.8034 65.68 28.8034V27.6736ZM65.68 21.146C65.1472 21.146 64.7007 21.3825 64.4207 21.8425C64.1684 22.257 64.0795 22.8061 64.0795 23.4121H65.2094C65.2094 22.884 65.293 22.5825 65.3859 22.43C65.4511 22.3229 65.5224 22.2758 65.68 22.2758V21.146ZM64.0795 23.4121C64.0795 24.0181 64.1684 24.5673 64.4207 24.9818C64.7007 25.4418 65.1472 25.6783 65.68 25.6783V24.5484C65.5224 24.5484 65.4511 24.5014 65.3859 24.3943C65.293 24.2418 65.2094 23.9403 65.2094 23.4121H64.0795ZM65.68 25.6783C66.2143 25.6783 66.6656 25.4459 66.9507 24.9856C67.2082 24.57 67.2989 24.0192 67.2989 23.4121H66.1691C66.1691 23.9392 66.0841 24.239 65.9903 24.3905C65.9241 24.4974 65.8484 24.5484 65.68 24.5484V25.6783ZM67.2989 23.4121C67.2989 22.8051 67.2082 22.2542 66.9507 21.8387C66.6656 21.3784 66.2143 21.146 65.68 21.146V22.2758C65.8484 22.2758 65.9241 22.3269 65.9903 22.4338C66.0841 22.5853 66.1691 22.8851 66.1691 23.4121H67.2989ZM72.9601 28.1645L72.9477 28.7295H72.9601V28.1645ZM71.2774 21.8773H71.8423V21.3124H71.2774V21.8773ZM70.2973 21.526L69.7821 21.7578L69.7892 21.7737L69.7974 21.7891L70.2973 21.526ZM72.7012 19.1405L72.3157 19.5536L72.3233 19.5605L72.7012 19.1405ZM73.256 20.287H72.691L73.7588 20.5446L73.256 20.287ZM74.2915 19.0851L74.611 19.551L74.6138 19.5491L74.2915 19.0851ZM76.9358 19.1775L77.4649 18.9791L77.4604 18.9677L76.9358 19.1775ZM76.8064 20.6384L76.2582 20.5013L76.2552 20.5144L76.8064 20.6384ZM75.8818 21.9143L75.6292 22.4196L75.6476 22.4288L75.6667 22.4367L75.8818 21.9143ZM74.0779 28.0351C74.0779 27.7073 74.3382 27.5737 74.3487 27.568C74.3977 27.5417 74.4293 27.5369 74.4107 27.5413C74.3831 27.5476 74.3121 27.5586 74.1788 27.5689C73.9208 27.5888 73.5178 27.5996 72.9601 27.5996V28.7295C73.5243 28.7295 73.9626 28.7188 74.2655 28.6955C74.4127 28.6841 74.5521 28.6682 74.6647 28.6422C74.7162 28.6303 74.8004 28.6081 74.8844 28.5629C74.93 28.5383 75.2078 28.3844 75.2078 28.0351H74.0779ZM72.9725 27.5997C72.4144 27.5875 72.0088 27.5693 71.7475 27.5463C71.6132 27.5345 71.5373 27.5231 71.5038 27.5157C71.4822 27.5109 71.5071 27.514 71.5496 27.5346C71.5699 27.5444 71.6267 27.5734 71.6856 27.6329C71.7484 27.6964 71.8423 27.8266 71.8423 28.0166H70.7124C70.7124 28.2158 70.8107 28.3551 70.8823 28.4275C70.9499 28.4958 71.0199 28.5335 71.0577 28.5518C71.1352 28.5893 71.2127 28.6086 71.2613 28.6192C71.368 28.6427 71.5025 28.659 71.6486 28.6718C71.9482 28.6982 72.384 28.717 72.9477 28.7293L72.9725 27.5997ZM71.8423 28.0166V21.8773H70.7124V28.0166H71.8423ZM71.2774 21.3124H70.7781V22.4423H71.2774V21.3124ZM70.7781 21.3124C70.7856 21.3124 70.7981 21.3137 70.8129 21.3185C70.8277 21.3233 70.8381 21.3296 70.8433 21.3334C70.8479 21.3367 70.845 21.3357 70.8363 21.3249C70.8274 21.3139 70.8138 21.2944 70.7972 21.2629L69.7974 21.7891C69.9797 22.1356 70.2994 22.4423 70.7781 22.4423V21.3124ZM70.8125 21.2941C70.7431 21.1399 70.6958 20.922 70.6958 20.6199H69.5659C69.5659 21.0328 69.6296 21.4189 69.7821 21.7578L70.8125 21.2941ZM70.6958 20.6199C70.6958 19.9915 70.7922 19.6135 70.9127 19.4101C71.0058 19.253 71.1146 19.1877 71.3143 19.1877V18.0578C70.7251 18.0578 70.2421 18.3254 69.9407 18.834C69.6668 19.2963 69.5659 19.9169 69.5659 20.6199H70.6958ZM71.3143 19.1877C71.741 19.1877 72.061 19.3158 72.3158 19.5535L73.0867 18.7275C72.6017 18.2749 71.9971 18.0578 71.3143 18.0578V19.1877ZM72.3233 19.5605C72.5942 19.8043 72.691 20.0409 72.691 20.287H73.8209C73.8209 19.6702 73.5479 19.1425 73.0791 18.7206L72.3233 19.5605ZM73.7588 20.5446C73.9786 20.1154 74.2635 19.7893 74.611 19.551L73.972 18.6191C73.4565 18.9726 73.0511 19.4477 72.7532 20.0295L73.7588 20.5446ZM74.6138 19.5491C74.9808 19.2942 75.3205 19.1877 75.6414 19.1877V18.0578C75.0501 18.0578 74.4898 18.2595 73.9693 18.621L74.6138 19.5491ZM75.6414 19.1877C75.9585 19.1877 76.1603 19.2299 76.2787 19.2807C76.3832 19.3255 76.4028 19.3662 76.4113 19.3873L77.4604 18.9677C77.1718 18.2462 76.3912 18.0578 75.6414 18.0578V19.1877ZM76.4069 19.3759C76.4049 19.3707 76.411 19.3859 76.4169 19.4325C76.4225 19.4772 76.4264 19.5391 76.4264 19.6213H77.5563C77.5563 19.4048 77.5381 19.1747 77.4648 18.9792L76.4069 19.3759ZM76.4264 19.6213C76.4264 19.7267 76.3834 20.001 76.2583 20.5014L77.3545 20.7754C77.4759 20.2895 77.5563 19.8858 77.5563 19.6213H76.4264ZM76.2552 20.5144C76.1469 20.9961 76.0436 21.2882 75.9612 21.4365L76.9489 21.9853C77.1131 21.6898 77.2441 21.2669 77.3576 20.7624L76.2552 20.5144ZM75.9612 21.4365C75.9016 21.5438 75.8611 21.611 75.8371 21.6472C75.8236 21.6674 75.8251 21.6628 75.8386 21.6476C75.8445 21.6411 75.8676 21.6152 75.9058 21.5866C75.9255 21.5718 75.9596 21.5484 76.0065 21.5273C76.0521 21.5068 76.1309 21.4788 76.2332 21.4788V22.6087C76.4264 22.6087 76.5551 22.5119 76.5837 22.4905C76.6311 22.455 76.665 22.4187 76.6831 22.3983C76.7213 22.3553 76.7537 22.3092 76.7772 22.2739C76.8271 22.1991 76.8852 22.0999 76.9489 21.9853L75.9612 21.4365ZM76.2332 21.4788C76.2693 21.4788 76.2972 21.4825 76.3107 21.4845C76.3259 21.4867 76.3376 21.4892 76.344 21.4907C76.3565 21.4935 76.3634 21.4957 76.3618 21.4952C76.3591 21.4944 76.3471 21.4905 76.3221 21.4813C76.2735 21.4634 76.1995 21.4342 76.0969 21.3919L75.6667 22.4367C75.7737 22.4808 75.863 22.5163 75.9315 22.5415C75.9651 22.5539 76.0001 22.5662 76.0328 22.5761C76.0362 22.5772 76.1288 22.6087 76.2332 22.6087V21.4788ZM76.1345 21.409C75.8867 21.2851 75.6201 21.2014 75.3456 21.2014V22.3313C75.3915 22.3313 75.4825 22.3463 75.6292 22.4196L76.1345 21.409ZM75.3456 21.2014C74.934 21.2014 74.5704 21.3797 74.3413 21.7415C74.1397 22.0597 74.0779 22.4646 74.0779 22.8759H75.2078C75.2078 22.5475 75.2631 22.3977 75.2958 22.346C75.3071 22.3283 75.3096 22.3312 75.3012 22.3356C75.2945 22.3392 75.3036 22.3313 75.3456 22.3313V21.2014ZM74.0779 22.8759V28.0351H75.2078V22.8759H74.0779ZM84.5634 15.0169L84.4993 15.5782L84.5079 15.5791L84.5165 15.5799L84.5634 15.0169ZM85.2291 24.9285H84.6642V25.4934H85.2291V24.9285ZM86.4866 25.7606L87.0451 25.6747L87.0428 25.6617L86.4866 25.7606ZM86.2647 27.4249L86.779 27.6587L86.7822 27.6513L86.2647 27.4249ZM83.9902 27.9981L83.7295 28.4994L83.7375 28.5034L83.9902 27.9981ZM83.3615 27.4988L83.8367 27.1933L83.8315 27.1852L83.826 27.1773L83.3615 27.4988ZM83.195 27.2584L83.6595 26.9369L83.2814 26.3907L82.803 26.8516L83.195 27.2584ZM78.0173 26.9626L77.588 27.3297L78.0173 26.9626ZM78.0728 19.8802L78.4875 20.2639L78.4903 20.2608L78.0728 19.8802ZM81.9561 18.7337L81.8377 19.2861L82.521 19.4325V18.7337H81.9561ZM80.6062 24.8175L80.1423 25.1402L80.1493 25.1498L80.6062 24.8175ZM81.9561 24.91L82.344 25.3207L82.521 25.1535V24.91H81.9561ZM81.9561 21.7664H82.521V21.4433L82.2425 21.2794L81.9561 21.7664ZM82.521 15.2203C82.521 15.4696 82.3439 15.5802 82.327 15.5898C82.3073 15.601 82.3267 15.5863 82.4267 15.5673C82.6164 15.5313 82.9384 15.5078 83.4169 15.5078V14.378C82.9216 14.378 82.5132 14.4008 82.2159 14.4572C82.0724 14.4845 81.9092 14.5275 81.7678 14.608C81.6291 14.687 81.3911 14.8785 81.3911 15.2203H82.521ZM83.4169 15.5078C83.723 15.5078 84.0831 15.5306 84.4993 15.5782L84.6276 14.4556C84.1808 14.4045 83.7765 14.378 83.4169 14.378V15.5078ZM84.5165 15.5799C84.7308 15.5977 84.8604 15.618 84.9257 15.6343C84.963 15.6436 84.9438 15.6432 84.9029 15.6193C84.8812 15.6066 84.8288 15.5734 84.7776 15.5093C84.721 15.4387 84.6642 15.3267 84.6642 15.1833H85.7941C85.7941 14.8489 85.5435 14.6849 85.4722 14.6433C85.3757 14.587 85.2734 14.5565 85.1997 14.5381C85.0432 14.499 84.8399 14.473 84.6103 14.4539L84.5165 15.5799ZM84.6642 15.1833V24.9285H85.7941V15.1833H84.6642ZM85.2291 25.4934H85.8763V24.3635H85.2291V25.4934ZM85.8763 25.4934C85.8651 25.4934 85.8422 25.4899 85.8186 25.4771C85.797 25.4654 85.7941 25.4564 85.8045 25.4706C85.8325 25.5088 85.8876 25.6193 85.9304 25.8595L87.0428 25.6617C86.9869 25.3472 86.891 25.0416 86.7156 24.8024C86.5218 24.5381 86.2332 24.3635 85.8763 24.3635V25.4934ZM85.9282 25.8465C85.9464 25.9649 85.9586 26.1537 85.9586 26.4263H87.0885C87.0885 26.1319 87.076 25.8768 87.0449 25.6747L85.9282 25.8465ZM85.9586 26.4263C85.9586 26.5872 85.9047 26.8381 85.7471 27.1984L86.7822 27.6513C86.9698 27.2227 87.0885 26.8078 87.0885 26.4263H85.9586ZM85.7504 27.1911C85.6593 27.3915 85.558 27.5048 85.4638 27.5696C85.373 27.632 85.2539 27.6736 85.0812 27.6736V28.8034C85.4509 28.8034 85.8003 28.7094 86.1039 28.5006C86.4042 28.2942 86.6235 28.0006 86.779 27.6586L85.7504 27.1911ZM85.0812 27.6736C84.7501 27.6736 84.4749 27.6088 84.2428 27.4928L83.7375 28.5034C84.1465 28.7079 84.5986 28.8034 85.0812 28.8034V27.6736ZM84.2508 27.4969C83.9767 27.3543 83.8693 27.2441 83.8367 27.1933L82.8862 27.8043C83.0755 28.0988 83.3873 28.3214 83.7295 28.4993L84.2508 27.4969ZM83.826 27.1773L83.6595 26.9369L82.7305 27.58L82.897 27.8204L83.826 27.1773ZM82.803 26.8516C82.2399 27.3943 81.5341 27.6736 80.6432 27.6736V28.8034C81.7987 28.8034 82.7941 28.4293 83.587 27.6652L82.803 26.8516ZM80.6432 27.6736C79.8018 27.6736 79.0781 27.3338 78.4467 26.5954L77.588 27.3297C78.4113 28.2926 79.4381 28.8034 80.6432 28.8034V27.6736ZM78.4467 26.5954C77.8337 25.8785 77.4913 24.8418 77.4913 23.4121H76.3614C76.3614 25.0151 76.7463 26.3454 77.588 27.3297L78.4467 26.5954ZM77.4913 23.4121C77.4913 21.974 77.8499 20.9529 78.4875 20.2639L77.6582 19.4965C76.767 20.4595 76.3614 21.7929 76.3614 23.4121H77.4913ZM78.4903 20.2608C79.1463 19.5414 79.9495 19.1877 80.939 19.1877V18.0578C79.6356 18.0578 78.528 18.5425 77.6553 19.4996L78.4903 20.2608ZM80.939 19.1877C81.2298 19.1877 81.5291 19.22 81.8377 19.2861L82.0745 18.1813C81.6927 18.0995 81.314 18.0578 80.939 18.0578V19.1877ZM82.521 18.7337V15.2203H81.3911V18.7337H82.521ZM81.3459 21.0165C81.0856 21.0165 80.831 21.0761 80.6017 21.214C80.3733 21.3513 80.2008 21.5477 80.0751 21.7744C79.8331 22.2109 79.7454 22.7929 79.7454 23.4491H80.8753C80.8753 22.8603 80.9601 22.5084 81.0633 22.3223C81.1101 22.2378 81.1534 22.2007 81.1839 22.1824C81.2135 22.1646 81.2609 22.1464 81.3459 22.1464V21.0165ZM79.7454 23.4491C79.7454 24.1111 79.8443 24.7116 80.1424 25.1401L81.0699 24.4949C80.9736 24.3564 80.8753 24.0446 80.8753 23.4491H79.7454ZM80.1493 25.1498C80.4041 25.5002 80.7691 25.7893 81.2534 25.7893V24.6594C81.252 24.6594 81.2426 24.6607 81.2166 24.6443C81.1855 24.6248 81.1321 24.5801 81.0631 24.4852L80.1493 25.1498ZM81.2534 25.7893C81.6766 25.7893 82.0434 25.6046 82.344 25.3207L81.5682 24.4993C81.4249 24.6345 81.3233 24.6594 81.2534 24.6594V25.7893ZM82.521 24.91V21.7664H81.3911V24.91H82.521ZM82.2425 21.2794C81.9662 21.1169 81.6648 21.0165 81.3459 21.0165V22.1464C81.4214 22.1464 81.5268 22.1693 81.6696 22.2533L82.2425 21.2794Z" fill="#7B3F23"/>
</g>
<path d="M23.9027 27.4794L23.9027 27.4795C26.9933 27.7972 29.5664 25.2365 29.5664 22.0982V20.2149C29.5664 20.0613 29.6793 19.9723 29.7765 19.9723H30.3719C30.4691 19.9723 30.582 20.0613 30.582 20.2149V22.0982C30.582 25.407 28.2442 28.1209 25.256 28.5532L24.9259 28.601V28.9345V30.2595V30.6448H25.3111H27.395C27.4922 30.6448 27.6051 30.7337 27.6051 30.8873V31.5151C27.6051 31.6687 27.4922 31.7576 27.395 31.7576H21.4412C21.344 31.7576 21.231 31.6687 21.231 31.5151V30.8873C21.231 30.7337 21.344 30.6448 21.4412 30.6448H23.525H23.9103V30.2595V28.9196V28.5863L23.5804 28.5383C20.526 28.0942 18.2541 25.1506 18.2541 21.7906V20.2149C18.2541 20.0613 18.3671 19.9723 18.4643 19.9723H19.0597C19.1569 19.9723 19.2698 20.0613 19.2698 20.2149V21.8746C19.2698 24.6538 21.1946 27.2008 23.9027 27.4794ZM27.6051 22.0982C27.6051 23.9853 26.1593 25.4797 24.4181 25.4797C22.6769 25.4797 21.231 23.9853 21.231 22.0982V15.8203C21.231 13.9333 22.6769 12.4388 24.4181 12.4388C26.1593 12.4388 27.6051 13.9333 27.6051 15.8203V22.0982Z" fill="white" stroke="#7B3F23" stroke-width="0.770492"/>
<defs>
<filter id="filter0_d_75_2186" x="0.918033" y="0" width="100.164" height="51.1639" filterUnits="userSpaceOnUse" color-interpolation-filters="sRGB">
<feFlood flood-opacity="0" result="BackgroundImageFix"/>
<feColorMatrix in="SourceAlpha" type="matrix" values="0 0 0 0 0 0 0 0 0 0 0 0 0 0 0 0 0 0 127 0" result="hardAlpha"/>
<feOffset dy="3.08197"/>
<feGaussianBlur stdDeviation="1.54098"/>
<feComposite in2="hardAlpha" operator="out"/>
<feColorMatrix type="matrix" values="0 0 0 0 0 0 0 0 0 0 0 0 0 0 0 0 0 0 0.25 0"/>
<feBlend mode="normal" in2="BackgroundImageFix" result="effect1_dropShadow_75_2186"/>
<feBlend mode="normal" in="SourceGraphic" in2="effect1_dropShadow_75_2186" result="shape"/>
</filter>
<filter id="filter1_d_75_2186" x="36.0561" y="14.9429" width="50.4675" height="14.4255" filterUnits="userSpaceOnUse" color-interpolation-filters="sRGB">
<feFlood flood-opacity="0" result="BackgroundImageFix"/>
<feColorMatrix in="SourceAlpha" type="matrix" values="0 0 0 0 0 0 0 0 0 0 0 0 0 0 0 0 0 0 127 0" result="hardAlpha"/>
<feOffset dy="1.12988"/>
<feComposite in2="hardAlpha" operator="out"/>
<feColorMatrix type="matrix" values="0 0 0 0 0.0313726 0 0 0 0 0.00784314 0 0 0 0 0.0235294 0 0 0 1 0"/>
<feBlend mode="normal" in2="BackgroundImageFix" result="effect1_dropShadow_75_2186"/>
<feBlend mode="normal" in="SourceGraphic" in2="effect1_dropShadow_75_2186" result="shape"/>
</filter>
</defs>
</svg>
